Recursive Sans-Casual Black.ufo
<glyph name="exclam" format="2">
  <advance width="350.0"/>
  <unicode hex="0021"/>
  <outline>
    <contour>
      <point x="245.0" y="305.5" type="line"/>
      <point x="267.0" y="369.5"/>
      <point x="285.0" y="461.0"/>
      <point x="285.0" y="547.5" type="curve"/>
      <point x="285.0" y="630.0" type="line" smooth="yes"/>
      <point x="285.0" y="685.5"/>
      <point x="215.49999999999997" y="710.0"/>
      <point x="139.5" y="710.0" type="curve"/>
      <point x="106.99999999999999" y="710.0"/>
      <point x="83.99999999999999" y="708.0"/>
      <point x="56.0" y="701.5" type="curve"/>
      <point x="65.5" y="665.5"/>
      <point x="70.5" y="628.0"/>
      <point x="70.5" y="587.0" type="curve" smooth="yes"/>
      <point x="70.5" y="555.5" type="line"/>
      <point x="70.49999999999999" y="477.5"/>
      <point x="86.49999999999999" y="367.5"/>
      <point x="113.99999999999999" y="340.0" type="curve" smooth="yes"/>
      <point x="137.0" y="317.0"/>
      <point x="170.0" y="305.5"/>
      <point x="226.5" y="305.5" type="curve"/>
    </contour>
    <contour>
      <point x="291.5" y="8.881784197001252e-16" type="curve"/>
      <point x="291.5" y="120.99999999999997" type="line" smooth="yes"/>
      <point x="291.5" y="206.0"/>
      <point x="234.0" y="228.5"/>
      <point x="160.99999999999997" y="228.5" type="curve"/>
      <point x="117.99999999999999" y="228.5"/>
      <point x="87.49999999999999" y="222.5"/>
      <point x="57.499999999999986" y="210.5" type="curve"/>
      <point x="57.499999999999986" y="89.50000000000001" type="line" smooth="yes"/>
      <point x="57.499999999999986" y="9.000000000000007"/>
      <point x="114.99999999999999" y="-11.5"/>
      <point x="192.5" y="-11.5" type="curve" smooth="yes"/>
      <point x="230.0" y="-11.5"/>
      <point x="261.5" y="-8.0"/>
    </contour>
  </outline>
</glyph>
<glyph name="quotedbl" format="2">
  <advance width="600.0"/>
  <unicode hex="0022"/>
  <outline>
    <contour>
      <point x="251.5" y="448.5" type="curve"/>
      <point x="267.0" y="620.0" type="line" smooth="yes"/>
      <point x="274.0" y="712.0"/>
      <point x="226.0" y="754.0"/>
      <point x="113.5" y="754.0" type="curve" smooth="yes"/>
      <point x="97.49999999999997" y="754.0"/>
      <point x="80.5" y="753.5"/>
      <point x="61.49999999999998" y="750.0" type="curve"/>
      <point x="70.99999999999997" y="724.5"/>
      <point x="76.99999999999999" y="688.5"/>
      <point x="81.99999999999999" y="638.0" type="curve" smooth="yes"/>
      <point x="91.99999999999997" y="511.5" type="line" smooth="yes"/>
      <point x="95.49999999999997" y="460.0"/>
      <point x="119.99999999999997" y="440.5"/>
      <point x="177.99999999999997" y="440.5" type="curve" smooth="yes"/>
      <point x="207.49999999999997" y="440.5"/>
      <point x="232.5" y="443.0"/>
    </contour>
    <contour>
      <point x="498.0" y="448.5" type="curve"/>
      <point x="517.0" y="623.5" type="line" smooth="yes"/>
      <point x="525.5" y="712.0"/>
      <point x="476.5" y="754.0"/>
      <point x="380.0" y="754.0" type="curve" smooth="yes"/>
      <point x="357.5" y="754.0"/>
      <point x="343.0" y="753.0"/>
      <point x="324.5" y="751.5" type="curve"/>
      <point x="342.0" y="511.5" type="line"/>
      <point x="345.5" y="460.0"/>
      <point x="370.0" y="440.5"/>
      <point x="428.5" y="440.5" type="curve" smooth="yes"/>
      <point x="457.5" y="440.5"/>
      <point x="479.0" y="443.0"/>
    </contour>
  </outline>
</glyph>
<glyph name="percent" format="2">
  <advance width="600.0"/>
  <unicode hex="0025"/>
  <outline>
    <contour>
      <point x="164.0" y="710.0" type="curve" smooth="yes"/>
      <point x="70.0" y="710.0"/>
      <point x="7.0" y="637.0"/>
      <point x="7.0" y="529.0" type="curve" smooth="yes"/>
      <point x="7.0" y="523.0" type="line" smooth="yes"/>
      <point x="7.0" y="420.0"/>
      <point x="64.0" y="356.0"/>
      <point x="157.0" y="356.0" type="curve" smooth="yes"/>
      <point x="254.0" y="356.0"/>
      <point x="316.0" y="427.0"/>
      <point x="316.0" y="539.0" type="curve" smooth="yes"/>
      <point x="316.0" y="545.0" type="line" smooth="yes"/>
      <point x="316.0" y="640.5"/>
      <point x="251.0" y="710.0"/>
    </contour>
    <contour>
      <point x="124.0" y="559.0" type="curve" smooth="yes"/>
      <point x="124.0" y="560.0" type="line" smooth="yes"/>
      <point x="124.0" y="571.5"/>
      <point x="130.5" y="582.5"/>
      <point x="137.0" y="582.5" type="curve" smooth="yes"/>
      <point x="139.0" y="571.5"/>
      <point x="145.0" y="565.5"/>
      <point x="166.5" y="539.0" type="curve" smooth="yes"/>
      <point x="167.0" y="543.0"/>
      <point x="167.0" y="538.0"/>
      <point x="167.0" y="534.5" type="curve" smooth="yes"/>
      <point x="167.0" y="534.0" type="line" smooth="yes"/>
      <point x="167.0" y="527.0"/>
      <point x="165.5" y="527.5"/>
      <point x="157.0" y="527.5" type="curve" smooth="yes"/>
      <point x="154.0" y="534.5"/>
      <point x="136.5" y="554.0"/>
      <point x="120.0" y="564.5" type="curve" smooth="yes"/>
      <point x="123.0" y="559.0"/>
      <point x="124.0" y="559.5"/>
    </contour>
    <contour>
      <point x="440.5" y="344.0" type="curve" smooth="yes"/>
      <point x="346.5" y="344.0"/>
      <point x="283.5" y="271.0"/>
      <point x="283.5" y="163.0" type="curve" smooth="yes"/>
      <point x="283.5" y="157.0" type="line" smooth="yes"/>
      <point x="283.5" y="54.0"/>
      <point x="340.5" y="-10.0"/>
      <point x="433.5" y="-10.0" type="curve" smooth="yes"/>
      <point x="530.5" y="-10.0"/>
      <point x="592.5" y="61.0"/>
      <point x="592.5" y="173.0" type="curve" smooth="yes"/>
      <point x="592.5" y="179.0" type="line" smooth="yes"/>
      <point x="592.5" y="274.5"/>
      <point x="527.5" y="344.0"/>
    </contour>
    <contour>
      <point x="400.5" y="193.0" type="curve" smooth="yes"/>
      <point x="400.5" y="194.0" type="line" smooth="yes"/>
      <point x="400.5" y="205.5"/>
      <point x="407.0" y="216.5"/>
      <point x="413.5" y="216.5" type="curve" smooth="yes"/>
      <point x="415.5" y="205.5"/>
      <point x="421.5" y="199.5"/>
      <point x="443.0" y="173.0" type="curve" smooth="yes"/>
      <point x="443.5" y="177.0"/>
      <point x="443.5" y="172.0"/>
      <point x="443.5" y="168.5" type="curve" smooth="yes"/>
      <point x="443.5" y="168.0" type="line" smooth="yes"/>
      <point x="443.5" y="161.0"/>
      <point x="442.0" y="161.5"/>
      <point x="433.5" y="161.5" type="curve" smooth="yes"/>
      <point x="430.5" y="168.5"/>
      <point x="413.0" y="188.0"/>
      <point x="396.5" y="198.5" type="curve" smooth="yes"/>
      <point x="399.5" y="193.0"/>
      <point x="400.5" y="193.5"/>
    </contour>
    <contour>
      <point x="338.5" y="404.0" type="curve"/>
      <point x="354.0" y="394.5"/>
      <point x="379.0" y="389.0"/>
      <point x="410.5" y="389.0" type="curve" smooth="yes"/>
      <point x="446.0" y="389.0"/>
      <point x="465.5" y="395.5"/>
      <point x="489.0" y="428.0" type="curve" smooth="yes"/>
      <point x="536.0" y="490.0"/>
      <point x="566.5" y="580.0"/>
      <point x="566.5" y="646.0" type="curve" smooth="yes"/>
      <point x="566.5" y="690.5"/>
      <point x="542.5" y="715.0"/>
      <point x="489.0" y="715.0" type="curve" smooth="yes"/>
      <point x="458.0" y="715.0"/>
      <point x="434.5" y="712.5"/>
      <point x="408.5" y="707.5" type="curve"/>
      <point x="406.5" y="598.5"/>
      <point x="381.5" y="493.0"/>
    </contour>
    <contour>
      <point x="263.0" y="300.0" type="curve"/>
      <point x="247.5" y="309.5"/>
      <point x="222.5" y="315.0"/>
      <point x="191.0" y="315.0" type="curve" smooth="yes"/>
      <point x="155.5" y="315.0"/>
      <point x="136.0" y="308.5"/>
      <point x="112.5" y="276.0" type="curve" smooth="yes"/>
      <point x="65.5" y="214.0"/>
      <point x="35.0" y="124.0"/>
      <point x="35.0" y="58.0" type="curve" smooth="yes"/>
      <point x="35.0" y="13.5"/>
      <point x="59.0" y="-11.0"/>
      <point x="112.5" y="-11.0" type="curve" smooth="yes"/>
      <point x="143.5" y="-11.0"/>
      <point x="167.0" y="-8.5"/>
      <point x="193.0" y="-3.5" type="curve"/>
      <point x="195.0" y="105.5"/>
      <point x="220.0" y="211.0"/>
    </contour>
  </outline>
</glyph>
<glyph name="ampersand" format="2">
  <advance width="600.0"/>
  <unicode hex="0026"/>
  <outline>
    <contour>
      <point x="274.0" y="402.5" type="curve" smooth="yes"/>
      <point x="258.0" y="438.0"/>
      <point x="249.0" y="468.5"/>
      <point x="246.5" y="500.0" type="curve" smooth="yes"/>
      <point x="246.0" y="506.0"/>
      <point x="246.5" y="513.5"/>
      <point x="247.00000000000003" y="519.5" type="curve"/>
      <point x="265.5" y="531.0"/>
      <point x="297.0" y="538.0"/>
      <point x="334.5" y="538.0" type="curve" smooth="yes"/>
      <point x="398.0" y="538.0"/>
      <point x="443.5" y="529.0"/>
      <point x="490.0" y="506.0" type="curve"/>
      <point x="496.0" y="506.0" type="line"/>
      <point x="504.5" y="524.0"/>
      <point x="509.0" y="549.0"/>
      <point x="509.0" y="576.0" type="curve" smooth="yes"/>
      <point x="509.0" y="619.5"/>
      <point x="501.5" y="654.5"/>
      <point x="477.0" y="679.0" type="curve" smooth="yes"/>
      <point x="451.0" y="705.0"/>
      <point x="409.0" y="715.0"/>
      <point x="329.0" y="715.0" type="curve" smooth="yes"/>
      <point x="170.0" y="715.0"/>
      <point x="86.49999999999999" y="605.0"/>
      <point x="86.49999999999999" y="531.0" type="curve" smooth="yes"/>
      <point x="86.49999999999999" y="526.5" type="line" smooth="yes"/>
      <point x="86.49999999999999" y="474.0"/>
      <point x="103.49999999999997" y="417.50000000000006"/>
      <point x="145.0" y="343.0" type="curve" smooth="yes"/>
      <point x="193.5" y="257.5"/>
      <point x="263.49999999999994" y="166.5"/>
      <point x="331.0" y="99.0" type="curve" smooth="yes"/>
      <point x="427.0" y="2.9999999999999964"/>
      <point x="465.5" y="-12.000000000000002"/>
      <point x="509.5" y="-12.000000000000002" type="curve" smooth="yes"/>
      <point x="520.0" y="-12.000000000000002"/>
      <point x="530.0" y="-9.500000000000004"/>
      <point x="537.0" y="-4.000000000000006" type="curve" smooth="yes"/>
      <point x="561.0" y="3.4999999999999876"/>
      <point x="583.0" y="34.999999999999986"/>
      <point x="583.0" y="100.00000000000001" type="curve" smooth="yes"/>
      <point x="583.0" y="136.0"/>
      <point x="580.5" y="159.5"/>
      <point x="574.5" y="184.50000000000003" type="curve"/>
      <point x="568.5" y="184.50000000000003" type="line"/>
      <point x="555.5" y="177.50000000000003"/>
      <point x="545.0" y="175.50000000000003"/>
      <point x="524.0" y="175.50000000000003" type="curve" smooth="yes"/>
      <point x="483.0" y="175.50000000000003"/>
      <point x="429.5" y="198.5"/>
      <point x="389.5" y="238.5" type="curve" smooth="yes"/>
      <point x="342.5" y="284.5"/>
      <point x="301.5" y="343.0"/>
    </contour>
    <contour>
      <point x="196.5" y="-11.500000000000002" type="curve" smooth="yes"/>
      <point x="272.5" y="-11.500000000000002"/>
      <point x="326.5" y="26.999999999999993"/>
      <point x="345.0" y="79.5" type="curve"/>
      <point x="387.0" y="79.5" type="line"/>
      <point x="314.0" y="165.5" type="line"/>
      <point x="289.5" y="140.0"/>
      <point x="266.44845360825" y="131.0"/>
      <point x="232.5" y="131.0" type="curve" smooth="yes"/>
      <point x="196.5" y="131.0"/>
      <point x="172.0" y="160.5"/>
      <point x="172.0" y="195.0" type="curve" smooth="yes"/>
      <point x="172.0" y="198.0" type="line" smooth="yes"/>
      <point x="172.0" y="240.5"/>
      <point x="195.00000000000003" y="268.0"/>
      <point x="229.0" y="278.5" type="curve"/>
      <point x="146.49999999999997" y="373.5" type="line"/>
      <point x="139.99999999999997" y="344.5" type="line"/>
      <point x="65.99999999999999" y="320.5"/>
      <point x="15.499999999999998" y="263.5"/>
      <point x="15.499999999999998" y="171.5" type="curve" smooth="yes"/>
      <point x="15.499999999999998" y="167.5" type="line" smooth="yes"/>
      <point x="15.499999999999998" y="60.5"/>
      <point x="90.5" y="-11.500000000000002"/>
    </contour>
    <contour>
      <point x="403.0" y="430.5" type="curve"/>
      <point x="403.0" y="421.0"/>
      <point x="403.0" y="412.0"/>
      <point x="403.0" y="402.0" type="curve" smooth="yes"/>
      <point x="403.0" y="338.00806451615"/>
      <point x="394.0" y="289.0"/>
      <point x="363.5" y="234.5" type="curve"/>
      <point x="444.5" y="153.5" type="line"/>
      <point x="444.5" y="206.0" type="line"/>
      <point x="523.5" y="233.0"/>
      <point x="574.0" y="306.0"/>
      <point x="574.0" y="355.5" type="curve" smooth="yes"/>
      <point x="574.0" y="364.0" type="line" smooth="yes"/>
      <point x="574.0" y="408.0"/>
      <point x="523.5" y="436.0"/>
      <point x="454.0" y="436.0" type="curve"/>
      <point x="433.5" y="436.0"/>
      <point x="417.5" y="434.0"/>
    </contour>
  </outline>
</glyph>
<glyph name="quotesingle" format="2">
  <advance width="300.0"/>
  <unicode hex="0027"/>
  <outline>
    <contour>
      <point x="237.0" y="448.5" type="curve"/>
      <point x="252.5" y="623.5" type="line" smooth="yes"/>
      <point x="260.0" y="712.0"/>
      <point x="212.0" y="754.0"/>
      <point x="101.0" y="754.0" type="curve" smooth="yes"/>
      <point x="83.0" y="754.0"/>
      <point x="66.5" y="753.5"/>
      <point x="47.5" y="750.0" type="curve"/>
      <point x="56.5" y="724.5"/>
      <point x="63.0" y="688.5"/>
      <point x="67.5" y="638.0" type="curve" smooth="yes"/>
      <point x="77.5" y="511.5" type="line" smooth="yes"/>
      <point x="81.0" y="460.0"/>
      <point x="105.5" y="440.5"/>
      <point x="164.0" y="440.5" type="curve" smooth="yes"/>
      <point x="193.0" y="440.5"/>
      <point x="218.5" y="443.0"/>
    </contour>
  </outline>
</glyph>
<glyph name="parenleft" format="2">
  <advance width="450.0"/>
  <unicode hex="0028"/>
  <outline>
    <contour>
      <point x="181.0" y="718.0" type="curve" smooth="yes"/>
      <point x="95.5" y="632.5"/>
      <point x="41.499999999999986" y="483.5"/>
      <point x="41.499999999999986" y="314.5" type="curve" smooth="yes"/>
      <point x="41.499999999999986" y="302.5" type="line" smooth="yes"/>
      <point x="41.499999999999986" y="133.5"/>
      <point x="96.0" y="-15.99999999999999"/>
      <point x="181.0" y="-100.99999999999997" type="curve" smooth="yes"/>
      <point x="221.49999999999997" y="-141.49999999999997"/>
      <point x="251.99999999999997" y="-152.99999999999997"/>
      <point x="295.99999999999994" y="-152.99999999999997" type="curve" smooth="yes"/>
      <point x="349.5" y="-152.99999999999997"/>
      <point x="382.5" y="-134.49999999999997"/>
      <point x="408.50000000000006" y="-108.99999999999996" type="curve"/>
      <point x="408.50000000000006" y="-102.99999999999997" type="line"/>
      <point x="301.5" y="1.865174681370263e-14"/>
      <point x="241.5" y="144.5"/>
      <point x="241.5" y="302.5" type="curve" smooth="yes"/>
      <point x="241.5" y="314.5" type="line" smooth="yes"/>
      <point x="241.5" y="472.0"/>
      <point x="301.0" y="616.0"/>
      <point x="408.50000000000006" y="719.0" type="curve"/>
      <point x="408.50000000000006" y="725.0" type="line"/>
      <point x="382.5" y="750.5"/>
      <point x="349.5" y="770.0"/>
      <point x="295.99999999999994" y="770.0" type="curve" smooth="yes"/>
      <point x="251.99999999999997" y="770.0"/>
      <point x="221.49999999999997" y="758.5"/>
    </contour>
  </outline>
</glyph>
<glyph name="parenright" format="2">
  <advance width="450.0"/>
  <unicode hex="0029"/>
  <outline>
    <contour>
      <point x="269.0" y="-101.0" type="curve" smooth="yes"/>
      <point x="354.5" y="-15.5"/>
      <point x="408.5" y="133.5"/>
      <point x="408.5" y="302.5" type="curve" smooth="yes"/>
      <point x="408.5" y="314.5" type="line" smooth="yes"/>
      <point x="408.5" y="483.5"/>
      <point x="354.0" y="633.0"/>
      <point x="269.0" y="718.0" type="curve" smooth="yes"/>
      <point x="228.5" y="758.5"/>
      <point x="198.0" y="770.0"/>
      <point x="154.0" y="770.0" type="curve" smooth="yes"/>
      <point x="100.5" y="770.0"/>
      <point x="67.5" y="751.5"/>
      <point x="41.5" y="726.0" type="curve"/>
      <point x="41.5" y="720.0" type="line"/>
      <point x="148.5" y="617.0"/>
      <point x="208.5" y="472.5"/>
      <point x="208.5" y="314.5" type="curve" smooth="yes"/>
      <point x="208.5" y="302.5" type="line" smooth="yes"/>
      <point x="208.5" y="145.0"/>
      <point x="149.0" y="1.0"/>
      <point x="41.5" y="-102.0" type="curve"/>
      <point x="41.5" y="-108.0" type="line"/>
      <point x="67.5" y="-133.5"/>
      <point x="100.5" y="-153.0"/>
      <point x="154.0" y="-153.0" type="curve" smooth="yes"/>
      <point x="198.0" y="-153.0"/>
      <point x="228.5" y="-141.5"/>
    </contour>
  </outline>
</glyph>
<glyph name="asterisk" format="2">
  <advance width="600.0"/>
  <unicode hex="002A"/>
  <outline>
    <contour>
      <point x="281.0" y="578.0" type="curve" smooth="yes"/>
      <point x="254.99999999999997" y="578.0"/>
      <point x="233.0" y="574.5"/>
      <point x="209.49999999999997" y="565.5" type="curve"/>
      <point x="223.5" y="536.5"/>
      <point x="231.5" y="510.0"/>
      <point x="240.5" y="472.0" type="curve" smooth="yes"/>
      <point x="246.5" y="442.5"/>
      <point x="252.0" y="416.5"/>
      <point x="260.5" y="389.5" type="curve"/>
      <point x="255.0" y="386.0" type="line"/>
      <point x="225.5" y="416.0"/>
      <point x="195.0" y="444.5"/>
      <point x="161.5" y="471.0" type="curve" smooth="yes"/>
      <point x="127.00000000000001" y="499.5"/>
      <point x="91.50000000000001" y="484.0"/>
      <point x="63.00000000000002" y="436.0" type="curve" smooth="yes"/>
      <point x="52.5" y="417.5"/>
      <point x="47.5" y="399.0"/>
      <point x="43.00000000000001" y="380.0" type="curve"/>
      <point x="106.49999999999999" y="355.0"/>
      <point x="159.5" y="335.5"/>
      <point x="218.5" y="316.5" type="curve"/>
      <point x="218.5" y="310.5" type="line"/>
      <point x="171.5" y="298.0"/>
      <point x="136.5" y="286.0"/>
      <point x="94.00000000000001" y="271.5" type="curve" smooth="yes"/>
      <point x="51.5" y="257.0"/>
      <point x="48.0" y="216.50000000000003"/>
      <point x="75.0" y="169.0" type="curve" smooth="yes"/>
      <point x="86.0" y="150.0"/>
      <point x="100.5" y="136.5"/>
      <point x="115.00000000000001" y="123.49999999999999" type="curve"/>
      <point x="165.0" y="164.0"/>
      <point x="206.0" y="197.0"/>
      <point x="251.0" y="239.0" type="curve"/>
      <point x="256.0" y="235.5" type="line"/>
      <point x="245.0" y="209.0"/>
      <point x="237.5" y="184.5"/>
      <point x="230.49999999999997" y="157.0" type="curve" smooth="yes"/>
      <point x="210.99999999999997" y="81.5"/>
      <point x="247.99999999999997" y="40.5"/>
      <point x="318.5" y="40.5" type="curve" smooth="yes"/>
      <point x="345.0" y="40.5"/>
      <point x="367.0" y="44.0"/>
      <point x="390.0" y="53.0" type="curve"/>
      <point x="376.5" y="82.0"/>
      <point x="365.5" y="108.49999999999999"/>
      <point x="358.0" y="151.5" type="curve" smooth="yes"/>
      <point x="353.0" y="180.5"/>
      <point x="348.5" y="204.0"/>
      <point x="340.0" y="236.0" type="curve"/>
      <point x="345.5" y="239.0" type="line"/>
      <point x="376.0" y="208.5"/>
      <point x="403.5" y="184.0"/>
      <point x="440.0" y="155.0" type="curve" smooth="yes"/>
      <point x="475.0" y="126.49999999999999"/>
      <point x="510.0" y="141.49999999999997"/>
      <point x="538.0" y="190.50000000000003" type="curve" smooth="yes"/>
      <point x="548.0" y="207.5"/>
      <point x="553.5" y="224.0"/>
      <point x="558.0" y="245.50000000000003" type="curve"/>
      <point x="489.0" y="273.0"/>
      <point x="440.5" y="291.5"/>
      <point x="383.0" y="309.0" type="curve"/>
      <point x="383.0" y="315.0" type="line"/>
      <point x="423.5" y="325.5"/>
      <point x="462.5" y="339.0"/>
      <point x="507.0" y="354.5" type="curve" smooth="yes"/>
      <point x="549.5" y="369.0"/>
      <point x="554.0" y="408.5"/>
      <point x="525.5" y="457.5" type="curve" smooth="yes"/>
      <point x="515.5" y="474.5"/>
      <point x="504.0" y="486.5"/>
      <point x="487.5" y="502.0" type="curve"/>
      <point x="425.0" y="453.0"/>
      <point x="386.0" y="421.0"/>
      <point x="350.5" y="386.0" type="curve"/>
      <point x="346.0" y="389.5" type="line"/>
      <point x="356.0" y="412.0"/>
      <point x="362.5" y="434.5"/>
      <point x="369.5" y="461.5" type="curve" smooth="yes"/>
      <point x="388.5" y="535.5"/>
      <point x="351.5" y="578.0"/>
    </contour>
  </outline>
</glyph>
<glyph name="plus" format="2">
  <advance width="600.0"/>
  <unicode hex="002B"/>
  <outline>
    <contour>
      <point x="194.5" y="546.0" type="curve"/>
      <point x="203.0" y="510.5"/>
      <point x="207.0" y="474.0"/>
      <point x="207.0" y="430.0" type="curve" smooth="yes"/>
      <point x="207.0" y="343.5"/>
      <point x="207.0" y="257.0"/>
      <point x="207.0" y="170.5" type="curve" smooth="yes"/>
      <point x="207.0" y="78.0"/>
      <point x="237.5" y="44.99999999999999"/>
      <point x="324.5" y="44.99999999999999" type="curve" smooth="yes"/>
      <point x="349.5" y="44.99999999999999"/>
      <point x="370.5" y="46.99999999999999"/>
      <point x="394.0" y="52.499999999999986" type="curve"/>
      <point x="394.0" y="183.5"/>
      <point x="394.0" y="315.5"/>
      <point x="394.0" y="446.5" type="curve" smooth="yes"/>
      <point x="394.0" y="522.0"/>
      <point x="357.5" y="555.0"/>
      <point x="273.5" y="555.0" type="curve" smooth="yes"/>
      <point x="246.99999999999997" y="555.0"/>
      <point x="217.49999999999997" y="551.5"/>
    </contour>
    <contour>
      <point x="51.99999999999999" y="390.5" type="line"/>
      <point x="46.49999999999999" y="364.0"/>
      <point x="42.99999999999999" y="335.0"/>
      <point x="42.99999999999999" y="311.0" type="curve" smooth="yes"/>
      <point x="42.99999999999999" y="233.0"/>
      <point x="70.49999999999999" y="209.5"/>
      <point x="159.0" y="209.5" type="curve"/>
      <point x="559.5" y="209.5" type="line"/>
      <point x="560.5" y="224.99999999999997"/>
      <point x="561.0" y="238.49999999999997"/>
      <point x="561.0" y="252.99999999999994" type="curve" smooth="yes"/>
      <point x="561.0" y="361.5"/>
      <point x="535.0" y="390.5"/>
      <point x="439.49999999999994" y="390.5" type="curve"/>
    </contour>
  </outline>
</glyph>
<glyph name="comma" format="2">
  <advance width="400.0"/>
  <unicode hex="002C"/>
  <outline>
    <contour>
      <point x="177.0" y="-203.0" type="curve" smooth="yes"/>
      <point x="208.0" y="-203.0"/>
      <point x="223.5" y="-197.0"/>
      <point x="241.5" y="-178.0" type="curve"/>
      <point x="296.5" y="-116.5"/>
      <point x="350.0" y="15.999999999999993"/>
      <point x="350.00000000000006" y="106.5" type="curve"/>
      <point x="350.00000000000006" y="178.50000000000003"/>
      <point x="314.50000000000006" y="210.0"/>
      <point x="204.00000000000003" y="210.0" type="curve" smooth="yes"/>
      <point x="176.0" y="210.0"/>
      <point x="154.0" y="207.0"/>
      <point x="118.99999999999999" y="200.0" type="curve"/>
      <point x="118.99999999999999" y="62.000000000000014"/>
      <point x="97.99999999999999" y="-64.5"/>
      <point x="49.999999999999986" y="-156.0" type="curve"/>
      <point x="83.0" y="-190.0"/>
      <point x="124.5" y="-203.0"/>
    </contour>
  </outline>
</glyph>
<glyph name="hyphen" format="2">
  <advance width="600.0"/>
  <unicode hex="002D"/>
  <outline>
    <contour>
      <point x="96.99999999999999" y="389.5" type="line"/>
      <point x="96.99999999999999" y="382.5"/>
      <point x="96.99999999999999" y="376.00000000000006"/>
      <point x="96.99999999999999" y="367.5" type="curve" smooth="yes"/>
      <point x="96.99999999999999" y="231.99999999999997"/>
      <point x="116.0" y="209.49999999999997"/>
      <point x="230.0" y="209.49999999999997" type="curve"/>
      <point x="509.5" y="209.49999999999997" type="line"/>
      <point x="515.0" y="236.0"/>
      <point x="519.0" y="265.0"/>
      <point x="519.0" y="289.0" type="curve" smooth="yes"/>
      <point x="519.0" y="368.5"/>
      <point x="500.5" y="389.5"/>
      <point x="430.5" y="389.5" type="curve"/>
    </contour>
  </outline>
</glyph>
<glyph name="period" format="2">
  <advance width="350.0"/>
  <unicode hex="002E"/>
  <outline>
    <contour>
      <point x="292.0" y="8.881784197001252e-16" type="curve"/>
      <point x="292.0" y="120.99999999999997" type="line" smooth="yes"/>
      <point x="292.0" y="206.0"/>
      <point x="234.5" y="228.5"/>
      <point x="161.49999999999997" y="228.5" type="curve"/>
      <point x="118.49999999999999" y="228.5"/>
      <point x="87.99999999999999" y="222.5"/>
      <point x="57.99999999999999" y="210.5" type="curve"/>
      <point x="57.99999999999999" y="89.50000000000001" type="line" smooth="yes"/>
      <point x="57.99999999999999" y="9.000000000000007"/>
      <point x="115.49999999999997" y="-11.5"/>
      <point x="193.0" y="-11.5" type="curve" smooth="yes"/>
      <point x="230.5" y="-11.5"/>
      <point x="262.0" y="-8.0"/>
    </contour>
  </outline>
</glyph>
<glyph name="zero" format="2">
  <advance width="600.0"/>
  <unicode hex="0030"/>
  <outline>
    <contour>
      <point x="300.0" y="720.0" type="curve" smooth="yes"/>
      <point x="144.5" y="720.0"/>
      <point x="38.499999999999986" y="582.5"/>
      <point x="38.499999999999986" y="358.5" type="curve" smooth="yes"/>
      <point x="38.499999999999986" y="313.0" type="line" smooth="yes"/>
      <point x="38.499999999999986" y="108.0"/>
      <point x="143.0" y="-20.0"/>
      <point x="301.0" y="-20.0" type="curve" smooth="yes"/>
      <point x="458.0" y="-20.0"/>
      <point x="561.5" y="110.50000000000001"/>
      <point x="561.5" y="310.5" type="curve" smooth="yes"/>
      <point x="561.5" y="342.0" type="line" smooth="yes"/>
      <point x="561.5" y="570.0"/>
      <point x="455.5" y="720.0"/>
    </contour>
    <contour>
      <point x="320.0" y="549.0" type="curve" smooth="yes"/>
      <point x="330.0" y="549.0"/>
      <point x="339.0" y="549.0"/>
      <point x="346.0" y="548.5" type="curve" smooth="yes"/>
      <point x="365.49999999999994" y="510.5"/>
      <point x="373.99999999999994" y="452.0"/>
      <point x="373.99999999999994" y="367.5" type="curve" smooth="yes"/>
      <point x="373.99999999999994" y="337.0" type="line" smooth="yes"/>
      <point x="373.99999999999994" y="208.0"/>
      <point x="341.5" y="151.0"/>
      <point x="281.0" y="151.0" type="curve" smooth="yes"/>
      <point x="269.0" y="151.0"/>
      <point x="257.5" y="151.0"/>
      <point x="248.99999999999997" y="152.00000000000003" type="curve" smooth="yes"/>
      <point x="232.5" y="186.0"/>
      <point x="226.0" y="236.5"/>
      <point x="226.0" y="307.5" type="curve" smooth="yes"/>
      <point x="226.0" y="338.0" type="line" smooth="yes"/>
      <point x="226.0" y="477.5"/>
      <point x="255.00000000000003" y="549.0"/>
    </contour>
  </outline>
</glyph>
<glyph name="one" format="2">
  <advance width="600.0"/>
  <unicode hex="0031"/>
  <outline>
    <contour>
      <point x="223.49999999999997" y="705.0" type="curve"/>
      <point x="210.49999999999997" y="681.0"/>
      <point x="181.99999999999997" y="648.0"/>
      <point x="155.49999999999997" y="624.5" type="curve" smooth="yes"/>
      <point x="127.49999999999997" y="600.0"/>
      <point x="93.99999999999997" y="579.5"/>
      <point x="53.999999999999986" y="563.5" type="curve"/>
      <point x="53.999999999999986" y="530.0" type="line" smooth="yes"/>
      <point x="53.999999999999986" y="422.49999999999994"/>
      <point x="81.49999999999999" y="386.49999999999994"/>
      <point x="120.0" y="386.49999999999994" type="curve" smooth="yes"/>
      <point x="149.0" y="386.49999999999994"/>
      <point x="172.49999999999997" y="399.49999999999994"/>
      <point x="193.49999999999997" y="428.99999999999994" type="curve" smooth="yes"/>
      <point x="215.50000000000003" y="460.49999999999994"/>
      <point x="229.5" y="487.99999999999994"/>
      <point x="246.99999999999997" y="547.5" type="curve"/>
      <point x="208.0" y="516.5" type="line"/>
      <point x="272.0" y="516.5" type="line"/>
      <point x="242.99999999999997" y="548.5" type="line"/>
      <point x="242.99999999999997" y="450.00000000000006"/>
      <point x="242.99999999999997" y="335.5"/>
      <point x="242.99999999999997" y="274.5" type="curve" smooth="yes"/>
      <point x="242.99999999999997" y="233.00000000000003"/>
      <point x="255.49999999999997" y="202.50000000000003"/>
      <point x="286.5" y="186.00000000000003" type="curve"/>
      <point x="277.49999999999994" y="127.0" type="line"/>
      <point x="429.0" y="127.0" type="line"/>
      <point x="429.0" y="292.5"/>
      <point x="429.0" y="521.5000000000001"/>
      <point x="429.0" y="642.0" type="curve" smooth="yes"/>
      <point x="429.0" y="690.0"/>
      <point x="400.0" y="715.0"/>
      <point x="309.49999999999994" y="715.0" type="curve"/>
      <point x="275.99999999999994" y="715.0"/>
      <point x="244.49999999999997" y="711.0"/>
    </contour>
    <contour>
      <point x="59.999999999999986" y="180.0" type="curve"/>
      <point x="56.99999999999998" y="160.5"/>
      <point x="54.49999999999998" y="139.5"/>
      <point x="54.49999999999998" y="114.0" type="curve" smooth="yes"/>
      <point x="54.49999999999998" y="71.5"/>
      <point x="62.999999999999986" y="39.5"/>
      <point x="80.49999999999997" y="22.0" type="curve" smooth="yes"/>
      <point x="97.49999999999999" y="5.0"/>
      <point x="122.99999999999999" y="0.0"/>
      <point x="171.5" y="0.0" type="curve" smooth="yes"/>
      <point x="247.0" y="0.0"/>
      <point x="543.0" y="0.0"/>
      <point x="560.0" y="0.0" type="curve"/>
      <point x="564.5" y="15.500000000000002"/>
      <point x="569.0" y="39.0"/>
      <point x="569.0" y="67.0" type="curve" smooth="yes"/>
      <point x="569.0" y="134.5"/>
      <point x="521.0" y="180.0"/>
      <point x="416.5" y="180.0" type="curve"/>
      <point x="322.0" y="180.0"/>
      <point x="78.5" y="180.0"/>
    </contour>
  </outline>
</glyph>
<glyph name="two" format="2">
  <advance width="600.0"/>
  <unicode hex="0032"/>
  <outline>
    <contour>
      <point x="297.0" y="720.0" type="curve" smooth="yes"/>
      <point x="216.5" y="720.0"/>
      <point x="147.0" y="696.5"/>
      <point x="111.0" y="660.5" type="curve" smooth="yes"/>
      <point x="80.0" y="629.5"/>
      <point x="68.5" y="591.0"/>
      <point x="68.5" y="545.5" type="curve" smooth="yes"/>
      <point x="68.5" y="498.5"/>
      <point x="92.0" y="469.0"/>
      <point x="142.0" y="456.5" type="curve"/>
      <point x="148.0" y="456.5" type="line"/>
      <point x="168.0" y="509.0"/>
      <point x="214.5" y="540.0"/>
      <point x="289.0" y="540.0" type="curve" smooth="yes"/>
      <point x="317.0" y="540.0"/>
      <point x="343.0" y="538.0"/>
      <point x="365.0" y="533.0" type="curve" smooth="yes"/>
      <point x="368.5" y="526.5"/>
      <point x="371.0" y="515.5"/>
      <point x="371.0" y="503.5" type="curve" smooth="yes"/>
      <point x="371.0" y="500.0" type="line" smooth="yes"/>
      <point x="371.0" y="456.0"/>
      <point x="355.5" y="430.0"/>
      <point x="239.0" y="374.0" type="curve" smooth="yes"/>
      <point x="91.0" y="300.5"/>
      <point x="45.5" y="224.0"/>
      <point x="45.5" y="136.5" type="curve" smooth="yes"/>
      <point x="45.5" y="129.0" type="line" smooth="yes"/>
      <point x="45.5" y="63.0"/>
      <point x="88.0" y="0.0"/>
      <point x="132.5" y="0.0" type="curve" smooth="yes"/>
      <point x="173.0" y="0.0"/>
      <point x="528.5" y="0.0"/>
      <point x="551.0" y="0.0" type="curve"/>
      <point x="557.5" y="23.5"/>
      <point x="562.0" y="53.5"/>
      <point x="562.0" y="83.0" type="curve" smooth="yes"/>
      <point x="562.0" y="152.0"/>
      <point x="535.5" y="180.0"/>
      <point x="467.0" y="180.0" type="curve" smooth="yes"/>
      <point x="375.0" y="180.0" type="line" smooth="yes"/>
      <point x="274.5" y="180.0"/>
      <point x="217.5" y="169.0"/>
      <point x="168.5" y="135.0" type="curve"/>
      <point x="227.5" y="150.0" type="line"/>
      <point x="172.0" y="150.0" type="line"/>
      <point x="182.0" y="121.5" type="line"/>
      <point x="194.0" y="185.0"/>
      <point x="216.5" y="210.0"/>
      <point x="343.5" y="264.0" type="curve" smooth="yes"/>
      <point x="499.0" y="330.0"/>
      <point x="547.5" y="399.0"/>
      <point x="547.5" y="505.0" type="curve" smooth="yes"/>
      <point x="547.5" y="510.0" type="line" smooth="yes"/>
      <point x="547.5" y="648.5"/>
      <point x="465.0" y="720.0"/>
    </contour>
  </outline>
</glyph>
<glyph name="three" format="2">
  <advance width="600.0"/>
  <unicode hex="0033"/>
  <outline>
    <contour>
      <point x="292.0" y="720.0" type="curve" smooth="yes"/>
      <point x="211.5" y="720.0"/>
      <point x="136.5" y="700.0"/>
      <point x="102.5" y="667.0" type="curve" smooth="yes"/>
      <point x="74.99999999999999" y="640.0"/>
      <point x="66.49999999999999" y="610.0"/>
      <point x="66.49999999999999" y="558.0" type="curve" smooth="yes"/>
      <point x="66.49999999999999" y="525.0"/>
      <point x="70.0" y="501.5"/>
      <point x="78.0" y="479.0" type="curve"/>
      <point x="83.99999999999999" y="479.0" type="line"/>
      <point x="133.5" y="525.0"/>
      <point x="184.0" y="543.0"/>
      <point x="263.0" y="543.0" type="curve" smooth="yes"/>
      <point x="319.5" y="543.0"/>
      <point x="359.99999999999994" y="531.5"/>
      <point x="384.49999999999994" y="515.5" type="curve" smooth="yes"/>
      <point x="384.49999999999994" y="510.5" type="line" smooth="yes"/>
      <point x="358.49999999999994" y="437.0"/>
      <point x="285.0" y="404.5"/>
      <point x="170.5" y="404.5" type="curve"/>
      <point x="166.0" y="387.0"/>
      <point x="163.5" y="373.00000000000006"/>
      <point x="163.5" y="345.0" type="curve" smooth="yes"/>
      <point x="163.5" y="293.5"/>
      <point x="179.0" y="273.0"/>
      <point x="221.50000000000003" y="271.5" type="curve" smooth="yes"/>
      <point x="310.0" y="267.5"/>
      <point x="380.99999999999994" y="242.0"/>
      <point x="401.99999999999994" y="188.5" type="curve"/>
      <point x="401.99999999999994" y="184.50000000000003" type="line"/>
      <point x="375.99999999999994" y="167.0"/>
      <point x="336.5" y="157.50000000000003"/>
      <point x="272.5" y="157.50000000000003" type="curve" smooth="yes"/>
      <point x="189.5" y="157.50000000000003"/>
      <point x="131.0" y="172.5"/>
      <point x="61.499999999999986" y="224.0" type="curve"/>
      <point x="55.499999999999986" y="224.0" type="line"/>
      <point x="46.999999999999986" y="200.5"/>
      <point x="42.499999999999986" y="179.0"/>
      <point x="42.499999999999986" y="145.0" type="curve" smooth="yes"/>
      <point x="42.499999999999986" y="89.5"/>
      <point x="52.499999999999986" y="59.49999999999999"/>
      <point x="80.5" y="31.499999999999996" type="curve" smooth="yes"/>
      <point x="113.5" y="-1.5000000000000029"/>
      <point x="193.5" y="-20.0"/>
      <point x="293.5" y="-20.0" type="curve" smooth="yes"/>
      <point x="476.5" y="-20.0"/>
      <point x="560.0" y="56.5"/>
      <point x="560.0" y="168.5" type="curve"/>
      <point x="560.0" y="181.5" type="line"/>
      <point x="560.0" y="262.0"/>
      <point x="496.0" y="321.5"/>
      <point x="340.5" y="351.5" type="curve"/>
      <point x="371.5" y="319.5" type="line"/>
      <point x="371.5" y="373.5" type="line"/>
      <point x="341.0" y="344.0" type="line"/>
      <point x="491.5" y="373.0"/>
      <point x="548.5" y="450.5"/>
      <point x="549.5" y="526.0" type="curve" smooth="yes"/>
      <point x="550.0" y="543.0" type="line" smooth="yes"/>
      <point x="552.0" y="640.0"/>
      <point x="462.0" y="720.0"/>
    </contour>
  </outline>
</glyph>
<glyph name="four" format="2">
  <advance width="600.0"/>
  <unicode hex="0034"/>
  <outline>
    <contour>
      <point x="382.5" y="715.0" type="curve" smooth="yes"/>
      <point x="327.0" y="715.0"/>
      <point x="290.0" y="700.0"/>
      <point x="238.5" y="649.0" type="curve" smooth="yes"/>
      <point x="136.5" y="548.0"/>
      <point x="34.5" y="370.0"/>
      <point x="34.5" y="287.5" type="curve" smooth="yes"/>
      <point x="34.5" y="269.0" type="line"/>
      <point x="34.5" y="195.0"/>
      <point x="67.5" y="135.0"/>
      <point x="128.0" y="135.0" type="curve" smooth="yes"/>
      <point x="569.0" y="135.0" type="line"/>
      <point x="574.5" y="160.0"/>
      <point x="580.5" y="192.5"/>
      <point x="580.5" y="228.5" type="curve" smooth="yes"/>
      <point x="580.5" y="280.0"/>
      <point x="566.0" y="311.5"/>
      <point x="520.5" y="311.5" type="curve" smooth="yes"/>
      <point x="359.0" y="311.5" type="line" smooth="yes"/>
      <point x="268.5" y="311.5"/>
      <point x="218.5" y="304.5"/>
      <point x="163.5" y="279.0" type="curve"/>
      <point x="187.5" y="263.5" type="line"/>
      <point x="187.5" y="328.5" type="line"/>
      <point x="173.0" y="269.5" type="line"/>
      <point x="264.5" y="437.0"/>
      <point x="411.5" y="566.5"/>
      <point x="561.0" y="641.5" type="curve"/>
      <point x="561.0" y="646.5" type="line"/>
      <point x="524.5" y="690.5"/>
      <point x="459.5" y="715.0"/>
    </contour>
    <contour>
      <point x="385.0" y="431.0" type="curve"/>
      <point x="340.5" y="366.0"/>
      <point x="310.0" y="275.5"/>
      <point x="310.0" y="205.5" type="curve" smooth="yes"/>
      <point x="310.0" y="160.5"/>
      <point x="310.0" y="114.5"/>
      <point x="310.0" y="69.5" type="curve" smooth="yes"/>
      <point x="310.0" y="20.5"/>
      <point x="346.5" y="-7.5"/>
      <point x="438.5" y="-7.5" type="curve" smooth="yes"/>
      <point x="473.0" y="-7.5"/>
      <point x="499.0" y="-4.5"/>
      <point x="522.5" y="3.0" type="curve"/>
      <point x="514.0" y="36.0"/>
      <point x="511.0" y="67.0"/>
      <point x="511.0" y="110.5" type="curve" smooth="yes"/>
      <point x="511.0" y="364.0" type="line"/>
      <point x="511.0" y="408.0"/>
      <point x="469.5" y="431.0"/>
      <point x="391.0" y="431.0" type="curve" smooth="yes"/>
      <point x="389.0" y="431.0"/>
      <point x="387.0" y="431.0"/>
    </contour>
  </outline>
</glyph>
<glyph name="six" format="2">
  <advance width="600.0"/>
  <unicode hex="0036"/>
  <outline>
    <contour>
      <point x="362.0" y="720.0" type="curve" smooth="yes"/>
      <point x="177.0" y="720.0"/>
      <point x="39.0" y="592.5"/>
      <point x="39.0" y="307.0" type="curve" smooth="yes"/>
      <point x="39.0" y="300.5" type="line" smooth="yes"/>
      <point x="39.0" y="92.5"/>
      <point x="146.0" y="-20.0"/>
      <point x="316.0" y="-20.0" type="curve" smooth="yes"/>
      <point x="461.5" y="-20.0"/>
      <point x="562.5" y="64.0"/>
      <point x="562.5" y="206.5" type="curve" smooth="yes"/>
      <point x="562.5" y="216.0" type="line" smooth="yes"/>
      <point x="562.5" y="334.0"/>
      <point x="475.5" y="417.0"/>
      <point x="371.0" y="417.0" type="curve" smooth="yes"/>
      <point x="297.5" y="417.0"/>
      <point x="244.5" y="389.5"/>
      <point x="217.0" y="322.5" type="curve"/>
      <point x="261.0" y="349.5" type="line"/>
      <point x="183.5" y="349.5" type="line"/>
      <point x="183.5" y="247.5" type="line"/>
      <point x="226.0" y="265.5"/>
      <point x="269.5" y="276.0"/>
      <point x="311.0" y="276.0" type="curve" smooth="yes"/>
      <point x="340.0" y="276.0"/>
      <point x="361.5" y="272.0"/>
      <point x="379.0" y="266.5" type="curve" smooth="yes"/>
      <point x="382.5" y="255.5"/>
      <point x="384.0" y="245.0"/>
      <point x="384.0" y="232.5" type="curve" smooth="yes"/>
      <point x="384.0" y="227.5" type="line" smooth="yes"/>
      <point x="384.0" y="184.0"/>
      <point x="356.0" y="153.5"/>
      <point x="302.5" y="153.5" type="curve" smooth="yes"/>
      <point x="280.0" y="153.5"/>
      <point x="259.0" y="156.0"/>
      <point x="242.0" y="161.5" type="curve" smooth="yes"/>
      <point x="233.0" y="180.0"/>
      <point x="224.0" y="220.0"/>
      <point x="224.0" y="274.5" type="curve" smooth="yes"/>
      <point x="224.0" y="304.5" type="line" smooth="yes"/>
      <point x="224.0" y="422.5"/>
      <point x="240.5" y="489.0"/>
      <point x="257.5" y="524.5" type="curve" smooth="yes"/>
      <point x="285.5" y="537.0"/>
      <point x="323.5" y="545.0"/>
      <point x="371.0" y="545.0" type="curve" smooth="yes"/>
      <point x="427.0" y="545.0"/>
      <point x="468.5" y="536.5"/>
      <point x="516.5" y="514.5" type="curve"/>
      <point x="522.5" y="514.5" type="line"/>
      <point x="529.0" y="535.0"/>
      <point x="533.5" y="556.0"/>
      <point x="533.5" y="586.5" type="curve" smooth="yes"/>
      <point x="533.5" y="633.5"/>
      <point x="521.5" y="664.5"/>
      <point x="501.0" y="685.0" type="curve" smooth="yes"/>
      <point x="483.0" y="703.0"/>
      <point x="441.0" y="720.0"/>
    </contour>
  </outline>
</glyph>
<glyph name="seven" format="2">
  <advance width="600.0"/>
  <unicode hex="0037"/>
  <outline>
    <contour>
      <point x="73.5" y="722.0" type="curve"/>
      <point x="55.49999999999999" y="663.0"/>
      <point x="42.49999999999999" y="561.5"/>
      <point x="42.49999999999999" y="498.5" type="curve" smooth="yes"/>
      <point x="42.49999999999999" y="437.0"/>
      <point x="75.49999999999999" y="425.0"/>
      <point x="139.5" y="425.0" type="curve" smooth="yes"/>
      <point x="173.5" y="425.0"/>
      <point x="200.0" y="429.0"/>
      <point x="219.5" y="436.0" type="curve"/>
      <point x="219.5" y="484.0"/>
      <point x="234.5" y="622.5"/>
      <point x="234.5" y="656.5" type="curve" smooth="yes"/>
      <point x="234.5" y="696.0"/>
      <point x="171.5" y="720.0"/>
    </contour>
    <contour>
      <point x="371.0" y="0.5" type="curve"/>
      <point x="373.5" y="95.5"/>
      <point x="393.0" y="181.0"/>
      <point x="457.5" y="299.0" type="curve" smooth="yes"/>
      <point x="533.0" y="438.5"/>
      <point x="563.0" y="505.5"/>
      <point x="563.0" y="551.5" type="curve" smooth="yes"/>
      <point x="563.0" y="558.0" type="line"/>
      <point x="563.0" y="635.5"/>
      <point x="535.0" y="695.0"/>
      <point x="485.0" y="695.0" type="curve"/>
      <point x="100.0" y="695.0" type="line"/>
      <point x="100.0" y="656.5"/>
      <point x="123.49999999999999" y="516.5"/>
      <point x="170.0" y="516.5" type="curve" smooth="yes"/>
      <point x="230.50000000000003" y="516.5" type="line" smooth="yes"/>
      <point x="312.5" y="516.5"/>
      <point x="368.49999999999994" y="524.0"/>
      <point x="422.49999999999994" y="543.5" type="curve"/>
      <point x="393.49999999999994" y="560.5" type="line"/>
      <point x="393.49999999999994" y="503.99999999999994" type="line"/>
      <point x="405.5" y="572.0" type="line"/>
      <point x="390.99999999999994" y="507.5"/>
      <point x="365.5" y="447.5"/>
      <point x="301.49999999999994" y="359.5" type="curve" smooth="yes"/>
      <point x="209.49999999999997" y="232.99999999999997"/>
      <point x="174.5" y="154.49999999999997"/>
      <point x="174.5" y="70.0" type="curve" smooth="yes"/>
      <point x="174.5" y="12.499999999999996"/>
      <point x="214.0" y="-15.000000000000004"/>
      <point x="285.5" y="-15.000000000000004" type="curve" smooth="yes"/>
      <point x="320.0" y="-15.000000000000004"/>
      <point x="350.0" y="-9.500000000000002"/>
    </contour>
  </outline>
</glyph>
<glyph name="eight" format="2">
  <advance width="600.0"/>
  <unicode hex="0038"/>
  <outline>
    <contour>
      <point x="302.0" y="720.0" type="curve" smooth="yes"/>
      <point x="144.0" y="720.0"/>
      <point x="50.0" y="626.0"/>
      <point x="50.0" y="517.0" type="curve" smooth="yes"/>
      <point x="50.0" y="513.5" type="line" smooth="yes"/>
      <point x="50.0" y="429.0"/>
      <point x="91.5" y="358.5"/>
      <point x="246.0" y="300.0" type="curve" smooth="yes"/>
      <point x="333.5" y="267.0" type="line" smooth="yes"/>
      <point x="383.0" y="248.5"/>
      <point x="396.0" y="220.5"/>
      <point x="396.0" y="178.5" type="curve" smooth="yes"/>
      <point x="370.0" y="160.0"/>
      <point x="334.0" y="152.0"/>
      <point x="296.5" y="152.0" type="curve" smooth="yes"/>
      <point x="259.5" y="152.0"/>
      <point x="227.0" y="160.0"/>
      <point x="209.0" y="173.0" type="curve" smooth="yes"/>
      <point x="212.5" y="223.0"/>
      <point x="244.5" y="269.0"/>
      <point x="327.0" y="310.0" type="curve"/>
      <point x="184.5" y="349.5" type="line"/>
      <point x="184.5" y="287.0" type="line"/>
      <point x="213.0" y="323.5" type="line"/>
      <point x="92.5" y="317.0"/>
      <point x="44.5" y="246.5"/>
      <point x="44.5" y="171.5" type="curve" smooth="yes"/>
      <point x="44.5" y="164.5" type="line" smooth="yes"/>
      <point x="44.5" y="47.5"/>
      <point x="144.0" y="-20.0"/>
      <point x="294.5" y="-20.0" type="curve" smooth="yes"/>
      <point x="462.0" y="-20.0"/>
      <point x="556.5" y="60.0"/>
      <point x="556.5" y="168.5" type="curve" smooth="yes"/>
      <point x="556.5" y="175.5" type="line" smooth="yes"/>
      <point x="556.5" y="238.5"/>
      <point x="523.0" y="315.5"/>
      <point x="404.0" y="358.0" type="curve" smooth="yes"/>
      <point x="307.5" y="392.5" type="line" smooth="yes"/>
      <point x="240.5" y="416.5"/>
      <point x="217.0" y="441.5"/>
      <point x="217.0" y="484.5" type="curve"/>
      <point x="217.0" y="530.0"/>
      <point x="255.0" y="555.0"/>
      <point x="304.5" y="555.0" type="curve" smooth="yes"/>
      <point x="333.5" y="555.0"/>
      <point x="357.5" y="550.0"/>
      <point x="372.5" y="543.5" type="curve" smooth="yes"/>
      <point x="376.5" y="533.0"/>
      <point x="379.0" y="520.0"/>
      <point x="379.0" y="505.0" type="curve" smooth="yes"/>
      <point x="379.0" y="501.0" type="line" smooth="yes"/>
      <point x="379.0" y="451.5"/>
      <point x="347.5" y="410.0"/>
      <point x="266.5" y="373.5" type="curve"/>
      <point x="407.5" y="328.5" type="line"/>
      <point x="407.5" y="393.0" type="line"/>
      <point x="378.5" y="358.5" type="line"/>
      <point x="488.5" y="369.5"/>
      <point x="551.0" y="434.0"/>
      <point x="551.0" y="523.0" type="curve" smooth="yes"/>
      <point x="551.0" y="528.5" type="line" smooth="yes"/>
      <point x="551.0" y="650.0"/>
      <point x="433.0" y="720.0"/>
    </contour>
  </outline>
</glyph>
<glyph name="nine" format="2">
  <advance width="600.0"/>
  <unicode hex="0039"/>
  <outline>
    <contour>
      <point x="291.0" y="720.0" type="curve" smooth="yes"/>
      <point x="140.0" y="720.0"/>
      <point x="39.0" y="616.0"/>
      <point x="39.0" y="460.0" type="curve" smooth="yes"/>
      <point x="39.0" y="455.5" type="line" smooth="yes"/>
      <point x="39.0" y="313.0"/>
      <point x="120.49999999999997" y="255.5"/>
      <point x="228.99999999999997" y="255.5" type="curve" smooth="yes"/>
      <point x="299.49999999999994" y="255.5"/>
      <point x="357.49999999999994" y="282.0"/>
      <point x="381.0" y="355.5" type="curve"/>
      <point x="340.49999999999994" y="328.5" type="line"/>
      <point x="417.99999999999994" y="328.5" type="line"/>
      <point x="417.99999999999994" y="430.0" type="line"/>
      <point x="376.0" y="411.5"/>
      <point x="329.5" y="401.5"/>
      <point x="289.0" y="401.5" type="curve" smooth="yes"/>
      <point x="264.0" y="401.5"/>
      <point x="243.50000000000003" y="405.0"/>
      <point x="227.0" y="410.5" type="curve" smooth="yes"/>
      <point x="219.5" y="422.5"/>
      <point x="217.5" y="438.0"/>
      <point x="217.5" y="457.0" type="curve" smooth="yes"/>
      <point x="217.5" y="463.0" type="line" smooth="yes"/>
      <point x="217.5" y="514.0"/>
      <point x="245.00000000000003" y="549.5"/>
      <point x="304.5" y="549.5" type="curve" smooth="yes"/>
      <point x="324.5" y="549.5"/>
      <point x="342.5" y="547.5"/>
      <point x="359.5" y="544.5" type="curve" smooth="yes"/>
      <point x="369.99999999999994" y="523.0"/>
      <point x="377.49999999999994" y="481.5"/>
      <point x="377.49999999999994" y="425.5" type="curve" smooth="yes"/>
      <point x="377.49999999999994" y="395.5" type="line" smooth="yes"/>
      <point x="377.49999999999994" y="289.5"/>
      <point x="368.49999999999994" y="224.00000000000003"/>
      <point x="349.0" y="175.5" type="curve" smooth="yes"/>
      <point x="319.0" y="161.0"/>
      <point x="283.5" y="155.00000000000003"/>
      <point x="235.0" y="155.00000000000003" type="curve" smooth="yes"/>
      <point x="179.0" y="155.00000000000003"/>
      <point x="133.5" y="163.5"/>
      <point x="84.5" y="185.50000000000003" type="curve"/>
      <point x="78.5" y="185.50000000000003" type="line"/>
      <point x="72.0" y="165.0"/>
      <point x="68.0" y="142.0"/>
      <point x="68.0" y="115.5" type="curve" smooth="yes"/>
      <point x="68.0" y="61.5"/>
      <point x="81.5" y="35.00000000000001"/>
      <point x="100.0" y="16.5" type="curve" smooth="yes"/>
      <point x="120.0" y="-3.5000000000000036"/>
      <point x="166.5" y="-20.0"/>
      <point x="249.5" y="-20.0" type="curve" smooth="yes"/>
      <point x="433.0" y="-20.0"/>
      <point x="562.5" y="73.00000000000003"/>
      <point x="562.5" y="385.0" type="curve" smooth="yes"/>
      <point x="562.5" y="391.5" type="line" smooth="yes"/>
      <point x="562.5" y="609.5"/>
      <point x="455.5" y="720.0"/>
    </contour>
  </outline>
</glyph>
<glyph name="colon" format="2">
  <advance width="350.0"/>
  <unicode hex="003A"/>
  <outline>
    <contour>
      <point x="292.0" y="327.0" type="curve"/>
      <point x="292.0" y="448.0" type="line" smooth="yes"/>
      <point x="292.0" y="533.0"/>
      <point x="234.5" y="555.5"/>
      <point x="161.5" y="555.5" type="curve"/>
      <point x="118.5" y="555.5"/>
      <point x="88.0" y="549.5"/>
      <point x="58.0" y="537.5" type="curve"/>
      <point x="58.0" y="416.5" type="line" smooth="yes"/>
      <point x="58.0" y="336.0"/>
      <point x="115.5" y="315.5"/>
      <point x="193.0" y="315.5" type="curve" smooth="yes"/>
      <point x="230.5" y="315.5"/>
      <point x="262.0" y="319.0"/>
    </contour>
    <contour>
      <point x="292.0" y="0.0" type="curve"/>
      <point x="292.0" y="121.0" type="line" smooth="yes"/>
      <point x="292.0" y="206.0"/>
      <point x="234.5" y="228.5"/>
      <point x="161.5" y="228.5" type="curve"/>
      <point x="118.5" y="228.5"/>
      <point x="88.0" y="222.5"/>
      <point x="58.0" y="210.5" type="curve"/>
      <point x="58.0" y="89.5" type="line" smooth="yes"/>
      <point x="58.0" y="9.0"/>
      <point x="115.5" y="-11.5"/>
      <point x="193.0" y="-11.5" type="curve" smooth="yes"/>
      <point x="230.5" y="-11.5"/>
      <point x="262.0" y="-8.0"/>
    </contour>
  </outline>
</glyph>
<glyph name="semicolon" format="2">
  <advance width="400.0"/>
  <unicode hex="003B"/>
  <outline>
    <contour>
      <point x="317.5" y="327.5" type="curve"/>
      <point x="317.5" y="448.5" type="line" smooth="yes"/>
      <point x="317.5" y="533.5"/>
      <point x="260.0" y="556.0"/>
      <point x="186.99999999999997" y="556.0" type="curve"/>
      <point x="143.99999999999997" y="556.0"/>
      <point x="113.49999999999999" y="550.0"/>
      <point x="83.5" y="538.0" type="curve"/>
      <point x="83.5" y="417.0" type="line" smooth="yes"/>
      <point x="83.5" y="336.5"/>
      <point x="140.99999999999997" y="316.0"/>
      <point x="218.5" y="316.0" type="curve" smooth="yes"/>
      <point x="256.0" y="316.0"/>
      <point x="287.5" y="319.5"/>
    </contour>
    <contour>
      <point x="163.49999999999997" y="-203.0" type="curve" smooth="yes"/>
      <point x="194.5" y="-203.0"/>
      <point x="210.0" y="-197.0"/>
      <point x="228.0" y="-178.0" type="curve"/>
      <point x="283.0" y="-116.49999999999999"/>
      <point x="336.5" y="15.999999999999986"/>
      <point x="336.50000000000006" y="106.49999999999997" type="curve"/>
      <point x="336.50000000000006" y="178.5"/>
      <point x="301.00000000000006" y="210.0"/>
      <point x="190.5" y="210.0" type="curve" smooth="yes"/>
      <point x="162.5" y="210.0"/>
      <point x="140.5" y="207.0"/>
      <point x="105.49999999999999" y="200.0" type="curve"/>
      <point x="105.49999999999999" y="62.0"/>
      <point x="84.49999999999997" y="-64.5"/>
      <point x="36.49999999999999" y="-156.00000000000003" type="curve"/>
      <point x="69.49999999999999" y="-190.0"/>
      <point x="110.99999999999999" y="-203.0"/>
    </contour>
  </outline>
</glyph>
<glyph name="less" format="2">
  <advance width="600.0"/>
  <unicode hex="003C"/>
  <outline>
    <contour>
      <point x="70.0" y="334.5" type="curve"/>
      <point x="68.5" y="325.5"/>
      <point x="67.5" y="316.5"/>
      <point x="67.5" y="306.0" type="curve" smooth="yes"/>
      <point x="67.5" y="274.5"/>
      <point x="70.5" y="258.0"/>
      <point x="119.5" y="209.00000000000003" type="curve" smooth="yes"/>
      <point x="207.5" y="122.5"/>
      <point x="340.5" y="34.5"/>
      <point x="523.0" y="-11.500000000000007" type="curve"/>
      <point x="529.0" y="6.499999999999993"/>
      <point x="531.0" y="25.499999999999993"/>
      <point x="531.0" y="54.499999999999986" type="curve" smooth="yes"/>
      <point x="531.0" y="121.49999999999997"/>
      <point x="517.5" y="169.0"/>
      <point x="486.0" y="180.0" type="curve"/>
      <point x="396.5" y="210.0"/>
      <point x="328.0" y="246.5"/>
      <point x="245.50000000000003" y="315.5" type="curve"/>
      <point x="269.0" y="266.5" type="line"/>
      <point x="269.0" y="332.5" type="line"/>
      <point x="248.5" y="280.5" type="line"/>
      <point x="326.0" y="367.5"/>
      <point x="410.0" y="421.5"/>
      <point x="536.5" y="446.49999999999994" type="curve"/>
      <point x="536.5" y="455.5"/>
      <point x="536.5" y="464.5"/>
      <point x="536.5" y="473.5" type="curve" smooth="yes"/>
      <point x="536.5" y="522.0"/>
      <point x="505.5" y="602.5"/>
      <point x="458.0" y="602.5" type="curve" smooth="yes"/>
      <point x="445.0" y="602.5"/>
      <point x="419.0" y="596.0"/>
      <point x="381.0" y="578.5" type="curve" smooth="yes"/>
      <point x="252.5" y="520.5"/>
      <point x="118.49999999999999" y="405.49999999999994"/>
    </contour>
  </outline>
</glyph>
<glyph name="equal" format="2">
  <advance width="600.0"/>
  <unicode hex="003D"/>
  <outline>
    <contour>
      <point x="47.0" y="525.0" type="line"/>
      <point x="47.0" y="518.0"/>
      <point x="47.0" y="511.50000000000006"/>
      <point x="47.0" y="503.50000000000006" type="curve" smooth="yes"/>
      <point x="47.0" y="374.0"/>
      <point x="70.5" y="344.0"/>
      <point x="170.5" y="344.0" type="curve"/>
      <point x="552.0" y="344.0" type="line"/>
      <point x="558.0" y="372.5"/>
      <point x="561.5" y="399.5"/>
      <point x="561.5" y="423.5" type="curve" smooth="yes"/>
      <point x="561.5" y="502.0"/>
      <point x="538.5" y="525.0"/>
      <point x="460.5" y="525.0" type="curve" smooth="yes"/>
    </contour>
    <contour>
      <point x="55.99999999999999" y="256.0" type="line"/>
      <point x="50.5" y="227.5"/>
      <point x="47.0" y="198.5"/>
      <point x="47.0" y="176.5" type="curve" smooth="yes"/>
      <point x="47.0" y="97.5"/>
      <point x="69.5" y="74.99999999999999"/>
      <point x="148.0" y="74.99999999999999" type="curve"/>
      <point x="561.5" y="74.99999999999999" type="line"/>
      <point x="561.5" y="82.0"/>
      <point x="561.5" y="88.5"/>
      <point x="561.5" y="96.5" type="curve" smooth="yes"/>
      <point x="561.5" y="226.00000000000003"/>
      <point x="538.0" y="256.0"/>
      <point x="437.99999999999994" y="256.0" type="curve" smooth="yes"/>
    </contour>
  </outline>
</glyph>
<glyph name="greater" format="2">
  <advance width="600.0"/>
  <unicode hex="003E"/>
  <outline>
    <contour>
      <point x="530.0" y="268.5" type="curve"/>
      <point x="531.5" y="277.5"/>
      <point x="532.5" y="286.5"/>
      <point x="532.5" y="297.0" type="curve" smooth="yes"/>
      <point x="532.5" y="328.5"/>
      <point x="529.5" y="345.0"/>
      <point x="480.5" y="394.00000000000006" type="curve" smooth="yes"/>
      <point x="392.5" y="480.5"/>
      <point x="259.5" y="568.5"/>
      <point x="77.0" y="614.5" type="curve"/>
      <point x="71.0" y="596.5"/>
      <point x="69.0" y="577.5"/>
      <point x="69.0" y="548.4999999999999" type="curve" smooth="yes"/>
      <point x="69.0" y="481.49999999999994"/>
      <point x="82.5" y="433.99999999999994"/>
      <point x="114.0" y="422.99999999999994" type="curve"/>
      <point x="203.5" y="393.0"/>
      <point x="272.0" y="356.5"/>
      <point x="354.49999999999994" y="287.5" type="curve"/>
      <point x="330.99999999999994" y="336.5" type="line"/>
      <point x="330.99999999999994" y="270.5" type="line"/>
      <point x="351.49999999999994" y="322.5" type="line"/>
      <point x="274.0" y="235.5"/>
      <point x="190.0" y="181.5"/>
      <point x="63.49999999999999" y="156.5" type="curve"/>
      <point x="63.49999999999999" y="147.5"/>
      <point x="63.49999999999999" y="138.5"/>
      <point x="63.49999999999999" y="129.5" type="curve" smooth="yes"/>
      <point x="63.49999999999999" y="81.0"/>
      <point x="94.5" y="0.4999999999999911"/>
      <point x="142.0" y="0.4999999999999911" type="curve" smooth="yes"/>
      <point x="155.0" y="0.4999999999999911"/>
      <point x="181.0" y="6.999999999999993"/>
      <point x="219.0" y="24.499999999999993" type="curve" smooth="yes"/>
      <point x="347.5" y="82.5"/>
      <point x="481.5" y="197.5"/>
    </contour>
  </outline>
</glyph>
<glyph name="question" format="2">
  <advance width="600.0"/>
  <unicode hex="003F"/>
  <outline>
    <contour>
      <point x="397.0" y="-2.499999999999998" type="curve"/>
      <point x="397.0" y="97.49999999999997" type="line" smooth="yes"/>
      <point x="397.0" y="173.5"/>
      <point x="337.0" y="193.5"/>
      <point x="257.0" y="193.5" type="curve" smooth="yes"/>
      <point x="221.0" y="193.5"/>
      <point x="191.5" y="190.5"/>
      <point x="162.99999999999997" y="184.5" type="curve"/>
      <point x="162.99999999999997" y="84.50000000000001" type="line" smooth="yes"/>
      <point x="162.99999999999997" y="8.500000000000007"/>
      <point x="222.99999999999994" y="-11.5"/>
      <point x="303.0" y="-11.5" type="curve" smooth="yes"/>
      <point x="339.0" y="-11.5"/>
      <point x="368.5" y="-8.499999999999998"/>
    </contour>
    <contour>
      <point x="315.0" y="720.0" type="curve" smooth="yes"/>
      <point x="206.5" y="720.0"/>
      <point x="135.5" y="702.0"/>
      <point x="102.5" y="669.0" type="curve" smooth="yes"/>
      <point x="82.99999999999999" y="649.5"/>
      <point x="72.5" y="615.0"/>
      <point x="72.5" y="572.0" type="curve" smooth="yes"/>
      <point x="72.5" y="541.5"/>
      <point x="75.5" y="522.5"/>
      <point x="83.99999999999999" y="497.99999999999994" type="curve"/>
      <point x="90.0" y="497.99999999999994" type="line"/>
      <point x="162.0" y="533.5"/>
      <point x="224.5" y="548.0"/>
      <point x="299.0" y="548.0" type="curve" smooth="yes"/>
      <point x="324.5" y="548.0"/>
      <point x="345.0" y="546.0"/>
      <point x="360.99999999999994" y="542.5" type="curve"/>
      <point x="361.49999999999994" y="537.5"/>
      <point x="360.99999999999994" y="532.0"/>
      <point x="359.99999999999994" y="526.0" type="curve" smooth="yes"/>
      <point x="357.99999999999994" y="506.0"/>
      <point x="348.99999999999994" y="486.5"/>
      <point x="306.5" y="457.5" type="curve" smooth="yes"/>
      <point x="283.49999999999994" y="441.5" type="line" smooth="yes"/>
      <point x="212.49999999999997" y="392.0"/>
      <point x="200.49999999999997" y="370.0"/>
      <point x="200.49999999999997" y="340.0" type="curve" smooth="yes"/>
      <point x="200.49999999999997" y="336.5" type="line" smooth="yes"/>
      <point x="200.49999999999997" y="293.0"/>
      <point x="252.00000000000003" y="256.5"/>
      <point x="348.0" y="256.5" type="curve" smooth="yes"/>
      <point x="357.0" y="256.5" type="line"/>
      <point x="357.0" y="260.0" type="line" smooth="yes"/>
      <point x="357.0" y="281.5"/>
      <point x="368.0" y="300.5"/>
      <point x="392.5" y="315.5" type="curve" smooth="yes"/>
      <point x="425.0" y="336.0" type="line" smooth="yes"/>
      <point x="512.5" y="391.0"/>
      <point x="543.5" y="454.0"/>
      <point x="543.5" y="513.5" type="curve" smooth="yes"/>
      <point x="543.5" y="516.5" type="line" smooth="yes"/>
      <point x="543.5" y="617.5"/>
      <point x="454.5" y="720.0"/>
    </contour>
  </outline>
</glyph>
<glyph name="at" format="2">
  <advance width="1050.0"/>
  <unicode hex="0040"/>
  <outline>
    <contour>
      <point x="537.5" y="749.0" type="curve" smooth="yes"/>
      <point x="816.5" y="749.0"/>
      <point x="1004.5" y="586.0"/>
      <point x="1004.5" y="357.0" type="curve" smooth="yes"/>
      <point x="1004.5" y="345.0" type="line" smooth="yes"/>
      <point x="1004.5" y="158.0"/>
      <point x="877.8244147157" y="38.0"/>
      <point x="710.5" y="38.0" type="curve" smooth="yes"/>
      <point x="706.5" y="38.0" type="line" smooth="yes"/>
      <point x="597.0" y="38.0"/>
      <point x="552.5" y="106.0"/>
      <point x="553.0" y="181.0" type="curve" smooth="yes"/>
      <point x="553.5" y="250.5"/>
      <point x="578.5" y="340.0"/>
      <point x="601.0" y="412.0" type="curve" smooth="yes"/>
      <point x="612.0" y="445.5"/>
      <point x="622.5" y="479.0"/>
      <point x="633.0" y="510.0" type="curve"/>
      <point x="644.0" y="510.0" type="line" smooth="yes"/>
      <point x="726.0" y="510.0"/>
      <point x="771.5" y="479.0"/>
      <point x="770.0" y="422.5" type="curve" smooth="yes"/>
      <point x="768.0" y="349.5"/>
      <point x="732.0" y="265.5"/>
      <point x="723.5" y="208.5" type="curve" smooth="yes"/>
      <point x="717.5" y="168.5"/>
      <point x="718.0" y="148.5"/>
      <point x="723.5" y="126.5" type="curve"/>
      <point x="729.0" y="126.5" type="line"/>
      <point x="808.6584447181" y="166.30081153240002"/>
      <point x="852.0" y="250.0"/>
      <point x="852.0" y="355.0" type="curve" smooth="yes"/>
      <point x="852.0" y="366.5" type="line" smooth="yes"/>
      <point x="852.0" y="445.5"/>
      <point x="828.5" y="514.5"/>
      <point x="781.0" y="570.0" type="curve" smooth="yes"/>
      <point x="722.5" y="599.0"/>
      <point x="645.0" y="615.5"/>
      <point x="560.5" y="615.5" type="curve" smooth="yes"/>
      <point x="331.5" y="615.5"/>
      <point x="200.0" y="458.0"/>
      <point x="200.0" y="226.5" type="curve" smooth="yes"/>
      <point x="200.0" y="217.0" type="line" smooth="yes"/>
      <point x="200.0" y="128.0"/>
      <point x="224.0" y="51.0"/>
      <point x="268.5" y="-8.0" type="curve" smooth="yes"/>
      <point x="348.20209657005" y="-36.535318525099996"/>
      <point x="423.0652173913" y="-48.5"/>
      <point x="527.5" y="-48.5" type="curve"/>
      <point x="625.0" y="-48.5"/>
      <point x="739.5" y="-34.0"/>
      <point x="809.0" y="0.0" type="curve"/>
      <point x="812.5" y="0.0" type="line"/>
      <point x="812.5" y="-4.5" type="line" smooth="yes"/>
      <point x="812.5" y="-39.5"/>
      <point x="799.0" y="-84.0"/>
      <point x="766.0" y="-117.0" type="curve" smooth="yes"/>
      <point x="722.5" y="-160.0"/>
      <point x="652.0" y="-186.0"/>
      <point x="547.5" y="-186.0" type="curve"/>
      <point x="235.4900990099" y="-186.0"/>
      <point x="49.5" y="-25.5"/>
      <point x="49.5" y="225.0" type="curve" smooth="yes"/>
      <point x="49.5" y="238.0" type="line" smooth="yes"/>
      <point x="49.5" y="546.5"/>
      <point x="235.5" y="749.0"/>
    </contour>
    <contour>
      <point x="419.5" y="34.0" type="curve"/>
      <point x="356.0" y="34.0"/>
      <point x="297.0" y="116.5"/>
      <point x="296.0" y="213.0" type="curve" smooth="yes"/>
      <point x="296.0" y="221.0" type="line" smooth="yes"/>
      <point x="296.0" y="383.0"/>
      <point x="402.0" y="517.0"/>
      <point x="522.5" y="517.0" type="curve" smooth="yes"/>
      <point x="565.0" y="517.0"/>
      <point x="594.0" y="487.0"/>
      <point x="607.0" y="446.0" type="curve"/>
      <point x="640.0" y="446.0" type="line"/>
      <point x="613.0" y="346.0" type="line"/>
      <point x="600.0" y="367.0"/>
      <point x="581.0" y="383.0"/>
      <point x="556.5" y="383.0" type="curve" smooth="yes"/>
      <point x="498.0" y="383.0"/>
      <point x="461.5" y="299.5"/>
      <point x="461.5" y="232.0" type="curve" smooth="yes"/>
      <point x="461.5" y="224.0" type="line" smooth="yes"/>
      <point x="461.5" y="201.48648648649998"/>
      <point x="463.0" y="193.5"/>
      <point x="468.0" y="178.5" type="curve" smooth="yes"/>
      <point x="531.5" y="180.5"/>
      <point x="581.20770732165" y="222.60399056485"/>
      <point x="614.0" y="279.0" type="curve"/>
      <point x="576.0" y="127.5" type="line"/>
      <point x="557.0" y="127.5" type="line"/>
      <point x="520.5" y="70.5"/>
      <point x="471.5" y="34.0"/>
    </contour>
  </outline>
</glyph>
<glyph name="A" format="2">
  <advance width="650.0"/>
  <unicode hex="0041"/>
  <outline>
    <contour>
      <point x="13.99999999999999" y="285.0" type="line"/>
      <point x="13.99999999999999" y="248.5" type="line" smooth="yes"/>
      <point x="13.99999999999999" y="181.0"/>
      <point x="30.999999999999996" y="125.0"/>
      <point x="75.5" y="125.0" type="curve"/>
      <point x="459.0" y="125.0" type="line"/>
      <point x="464.5" y="273.0" type="line"/>
      <point x="405.5" y="250.5" type="line"/>
      <point x="378.5" y="277.0"/>
      <point x="345.0" y="285.0"/>
      <point x="304.0" y="285.0" type="curve"/>
    </contour>
    <contour>
      <point x="232.5" y="-0.5000000000000004" type="curve"/>
      <point x="236.0" y="290.5"/>
      <point x="274.5" y="452.50000000000006"/>
      <point x="355.0" y="587.5" type="curve"/>
      <point x="293.5" y="543.5" type="line"/>
      <point x="370.0" y="543.5" type="line"/>
      <point x="312.0" y="586.5" type="line"/>
      <point x="375.0" y="473.5"/>
      <point x="414.0" y="322.5"/>
      <point x="428.99999999999994" y="64.5" type="curve" smooth="yes"/>
      <point x="431.99999999999994" y="11.0"/>
      <point x="458.49999999999994" y="-9.0"/>
      <point x="551.0" y="-9.0" type="curve" smooth="yes"/>
      <point x="579.5" y="-9.0"/>
      <point x="602.5" y="-5.499999999999998"/>
      <point x="624.0" y="0.0" type="curve"/>
      <point x="622.5" y="33.499999999999986"/>
      <point x="621.5" y="65.49999999999997"/>
      <point x="618.5" y="97.49999999999997" type="curve" smooth="yes"/>
      <point x="605.0" y="287.0"/>
      <point x="573.5" y="447.5"/>
      <point x="527.5" y="560.5" type="curve"/>
      <point x="480.00000000000006" y="675.0"/>
      <point x="427.50000000000006" y="710.0"/>
      <point x="315.50000000000006" y="710.0" type="curve"/>
      <point x="280.0" y="710.0"/>
      <point x="251.0" y="707.5"/>
      <point x="220.5" y="701.5" type="curve"/>
      <point x="114.99999999999997" y="572.5"/>
      <point x="44.5" y="322.0"/>
      <point x="44.49999999999998" y="73.00000000000001" type="curve" smooth="yes"/>
      <point x="44.49999999999998" y="12.000000000000002"/>
      <point x="73.49999999999999" y="-8.5"/>
      <point x="158.0" y="-8.5" type="curve" smooth="yes"/>
      <point x="184.50000000000003" y="-8.5"/>
      <point x="210.5" y="-5.5"/>
    </contour>
  </outline>
</glyph>
<glyph name="B" format="2">
  <advance width="600.0"/>
  <unicode hex="0042"/>
  <outline>
    <contour>
      <point x="284.0" y="-9.5" type="curve" smooth="yes"/>
      <point x="439.0" y="-9.5"/>
      <point x="550.0" y="70.5"/>
      <point x="550.0" y="205.0" type="curve" smooth="yes"/>
      <point x="550.0" y="209.0" type="line" smooth="yes"/>
      <point x="550.0" y="255.5433070866"/>
      <point x="521.98418303055" y="301.34387797964996"/>
      <point x="480.5" y="325.5" type="curve"/>
      <point x="480.5" y="353.5" type="line"/>
      <point x="291.0" y="364.5" type="line"/>
      <point x="291.0" y="318.5" type="line"/>
      <point x="303.0" y="318.5" type="line"/>
      <point x="351.0" y="303.5"/>
      <point x="362.5" y="272.5"/>
      <point x="362.5" y="231.5" type="curve" smooth="yes"/>
      <point x="362.5" y="225.0" type="line" smooth="yes"/>
      <point x="362.5" y="174.5"/>
      <point x="335.0" y="153.0"/>
      <point x="283.0" y="153.0" type="curve" smooth="yes"/>
      <point x="272.0" y="153.0"/>
      <point x="262.0" y="154.0"/>
      <point x="252.0" y="157.0" type="curve"/>
      <point x="252.0" y="246.0"/>
      <point x="252.0" y="331.0"/>
      <point x="252.0" y="434.5" type="curve" smooth="yes"/>
      <point x="252.0" y="478.0"/>
      <point x="244.5" y="508.5"/>
      <point x="219.0" y="532.5" type="curve"/>
      <point x="237.5" y="578.0" type="line"/>
      <point x="60.0" y="578.0" type="line"/>
      <point x="60.0" y="416.0"/>
      <point x="60.0" y="274.0"/>
      <point x="60.0" y="127.0" type="curve"/>
      <point x="60.0" y="97.5"/>
      <point x="69.5" y="74.0"/>
      <point x="88.5" y="55.0" type="curve" smooth="yes"/>
      <point x="128.5" y="15.5"/>
      <point x="204.0" y="-9.5"/>
    </contour>
    <contour>
      <point x="19.0" y="695.0" type="curve"/>
      <point x="13.5" y="674.0"/>
      <point x="10.0" y="648.0"/>
      <point x="10.0" y="611.5" type="curve"/>
      <point x="10.0" y="543.5"/>
      <point x="22.0" y="520.0"/>
      <point x="52.0" y="520.0" type="curve"/>
      <point x="72.0" y="520.0"/>
      <point x="162.90425531915" y="540.0"/>
      <point x="272.0" y="540.0" type="curve"/>
      <point x="312.0" y="540.0"/>
      <point x="343.0" y="537.0"/>
      <point x="366.0" y="531.0" type="curve" smooth="yes"/>
      <point x="370.0" y="521.5"/>
      <point x="372.5" y="509.5"/>
      <point x="372.5" y="491.5" type="curve" smooth="yes"/>
      <point x="372.5" y="486.0" type="line" smooth="yes"/>
      <point x="372.5" y="426.75"/>
      <point x="336.0" y="396.5"/>
      <point x="278.0" y="396.5" type="curve" smooth="yes"/>
      <point x="248.0" y="396.5"/>
      <point x="232.0" y="400.0"/>
      <point x="208.0" y="412.0" type="curve"/>
      <point x="208.0" y="286.5" type="line"/>
      <point x="258.0" y="286.5" type="line"/>
      <point x="269.0" y="276.0"/>
      <point x="285.0" y="271.0"/>
      <point x="308.0" y="271.0" type="curve" smooth="yes"/>
      <point x="447.5" y="271.0"/>
      <point x="560.5" y="369.02731092435"/>
      <point x="560.5" y="495.5" type="curve" smooth="yes"/>
      <point x="560.5" y="502.5" type="line" smooth="yes"/>
      <point x="560.5" y="607.07673267325"/>
      <point x="470.0" y="715.0"/>
      <point x="298.0" y="715.0" type="curve" smooth="yes"/>
      <point x="202.0" y="715.0"/>
      <point x="105.5" y="708.5"/>
    </contour>
  </outline>
</glyph>
<glyph name="D" format="2">
  <advance width="650.0"/>
  <unicode hex="0044"/>
  <outline>
    <contour>
      <point x="615.0" y="406.0" type="curve" smooth="yes"/>
      <point x="615.0" y="417.5" type="line" smooth="yes"/>
      <point x="615.0" y="610.0"/>
      <point x="493.0" y="715.0"/>
      <point x="316.5" y="715.0" type="curve"/>
      <point x="214.00000000000003" y="715.0"/>
      <point x="99.49999999999997" y="708.0"/>
      <point x="21.499999999999996" y="695.0" type="curve"/>
      <point x="15.999999999999995" y="674.0"/>
      <point x="12.499999999999996" y="648.0"/>
      <point x="12.499999999999996" y="611.5" type="curve"/>
      <point x="12.499999999999996" y="544.5"/>
      <point x="22.999999999999993" y="515.0"/>
      <point x="49.5" y="515.0" type="curve" smooth="yes"/>
      <point x="75.49999999999999" y="515.0"/>
      <point x="156.0" y="536.0"/>
      <point x="286.0" y="535.0" type="curve" smooth="yes"/>
      <point x="339.5" y="535.0"/>
      <point x="375.5" y="530.5"/>
      <point x="408.0" y="518.0" type="curve" smooth="yes"/>
      <point x="416.99999999999994" y="490.5"/>
      <point x="420.99999999999994" y="459.5"/>
      <point x="420.99999999999994" y="413.0" type="curve" smooth="yes"/>
      <point x="420.99999999999994" y="402.5" type="line" smooth="yes"/>
      <point x="420.99999999999994" y="246.5"/>
      <point x="348.5" y="170.00000000000003"/>
      <point x="263.5" y="170.00000000000003" type="curve" smooth="yes"/>
      <point x="258.0" y="170.00000000000003"/>
      <point x="253.0" y="170.00000000000003"/>
      <point x="247.5" y="170.00000000000003" type="curve"/>
      <point x="247.5" y="260.0101522843"/>
      <point x="247.5" y="349.49507389165"/>
      <point x="247.5" y="439.4999999999999" type="curve" smooth="yes"/>
      <point x="247.5" y="479.0"/>
      <point x="239.5" y="504.99999999999994"/>
      <point x="213.0" y="527.5" type="curve"/>
      <point x="231.0" y="571.0" type="line"/>
      <point x="54.99999999999999" y="571.0" type="line"/>
      <point x="54.99999999999999" y="417.96484375"/>
      <point x="54.99999999999999" y="264.53515625"/>
      <point x="54.99999999999999" y="103.99999999999999" type="curve"/>
      <point x="54.99999999999999" y="79.5"/>
      <point x="63.5" y="63.49999999999999"/>
      <point x="86.5" y="42.0" type="curve" smooth="yes"/>
      <point x="123.49999999999999" y="8.5"/>
      <point x="191.99999999999997" y="-10.0"/>
      <point x="257.5" y="-10.0" type="curve" smooth="yes"/>
      <point x="463.0" y="-10.0"/>
      <point x="615.0" y="146.0"/>
    </contour>
  </outline>
</glyph>
<glyph name="F" format="2">
  <advance width="550.0"/>
  <unicode hex="0046"/>
  <outline>
    <contour>
      <point x="277.0" y="-3.0" type="curve"/>
      <point x="269.5" y="31.0"/>
      <point x="267.5" y="65.0"/>
      <point x="267.5" y="96.0" type="curve"/>
      <point x="267.5" y="209.0568828214"/>
      <point x="267.5" y="321.92857142854996"/>
      <point x="267.5" y="424.5" type="curve"/>
      <point x="267.5" y="465.5"/>
      <point x="260.5" y="493.0"/>
      <point x="233.5" y="514.0" type="curve"/>
      <point x="251.0" y="558.5" type="line"/>
      <point x="75.0" y="558.5" type="line"/>
      <point x="75.0" y="401.43555093555"/>
      <point x="75.0" y="244.3711018711"/>
      <point x="75.0" y="109.5" type="curve" smooth="yes"/>
      <point x="75.0" y="25.5"/>
      <point x="120.5" y="-6.0"/>
      <point x="243.0" y="-6.0" type="curve" smooth="yes"/>
      <point x="256.5" y="-6.0"/>
      <point x="265.5" y="-5.0"/>
    </contour>
    <contour>
      <point x="20.5" y="700.0" type="line"/>
      <point x="17.0" y="676.5"/>
      <point x="15.0" y="652.5"/>
      <point x="15.0" y="630.0" type="curve"/>
      <point x="15.0" y="555.0"/>
      <point x="25.0" y="520.0"/>
      <point x="66.5" y="520.0" type="curve"/>
      <point x="518.0" y="520.0" type="line"/>
      <point x="523.0" y="532.5"/>
      <point x="525.0" y="550.0"/>
      <point x="525.0" y="574.5" type="curve" smooth="yes"/>
      <point x="525.0" y="644.0"/>
      <point x="499.5" y="700.0"/>
      <point x="427.0" y="700.0" type="curve"/>
    </contour>
    <contour>
      <point x="174.5" y="362.5" type="line"/>
      <point x="174.5" y="187.5" type="line"/>
      <point x="479.0" y="187.5" type="line"/>
      <point x="483.5" y="209.5"/>
      <point x="485.0" y="228.0"/>
      <point x="485.0" y="254.5" type="curve"/>
      <point x="485.0" y="316.5"/>
      <point x="443.0" y="362.5"/>
      <point x="371.5" y="362.5" type="curve"/>
    </contour>
  </outline>
</glyph>
<glyph name="G" format="2">
  <advance width="650.0"/>
  <unicode hex="0047"/>
  <outline>
    <contour>
      <point x="358.0" y="370.0" type="line"/>
      <point x="355.0" y="359.5"/>
      <point x="353.5" y="345.5"/>
      <point x="353.5" y="332.0" type="curve" smooth="yes"/>
      <point x="353.5" y="257.0"/>
      <point x="395.5" y="226.0"/>
      <point x="510.0" y="226.0" type="curve"/>
      <point x="620.0" y="226.0" type="line"/>
      <point x="620.0" y="240.0" type="line" smooth="yes"/>
      <point x="620.0" y="338.5"/>
      <point x="602.5" y="370.0"/>
      <point x="547.0" y="370.0" type="curve" smooth="yes"/>
    </contour>
    <contour>
      <point x="366.0" y="720.0" type="curve" smooth="yes"/>
      <point x="186.0" y="720.0"/>
      <point x="35.0" y="568.5"/>
      <point x="35.0" y="299.0" type="curve" smooth="yes"/>
      <point x="35.0" y="286.5" type="line" smooth="yes"/>
      <point x="35.0" y="99.0"/>
      <point x="142.0" y="-20.0"/>
      <point x="351.0" y="-20.0" type="curve" smooth="yes"/>
      <point x="438.5" y="-20.0"/>
      <point x="514.0" y="7.0"/>
      <point x="553.5" y="43.5" type="curve" smooth="yes"/>
      <point x="580.5" y="68.5"/>
      <point x="599.0" y="100.5"/>
      <point x="599.0" y="141.5" type="curve" smooth="yes"/>
      <point x="599.0" y="177.0"/>
      <point x="588.0" y="204.5"/>
      <point x="565.5" y="220.0" type="curve"/>
      <point x="571.0" y="264.0" type="line"/>
      <point x="469.0" y="264.0" type="line"/>
      <point x="471.0" y="254.0"/>
      <point x="472.0" y="241.0"/>
      <point x="472.0" y="227.5" type="curve"/>
      <point x="472.0" y="181.0"/>
      <point x="433.0" y="150.0"/>
      <point x="360.0" y="150.0" type="curve" smooth="yes"/>
      <point x="290.5" y="150.0"/>
      <point x="253.0" y="167.0"/>
      <point x="232.5" y="210.0" type="curve" smooth="yes"/>
      <point x="229.5" y="235.0"/>
      <point x="228.0" y="267.5"/>
      <point x="228.0" y="297.5" type="curve" smooth="yes"/>
      <point x="228.0" y="310.5" type="line" smooth="yes"/>
      <point x="228.0" y="473.0"/>
      <point x="288.5" y="555.5"/>
      <point x="379.0" y="555.5" type="curve" smooth="yes"/>
      <point x="398.5" y="555.5"/>
      <point x="413.0" y="552.5"/>
      <point x="427.5" y="543.0" type="curve"/>
      <point x="418.0" y="581.5" type="line"/>
      <point x="405.0" y="540.0"/>
      <point x="402.5" y="520.0"/>
      <point x="402.5" y="496.0" type="curve" smooth="yes"/>
      <point x="402.5" y="453.5"/>
      <point x="438.0" y="435.0"/>
      <point x="503.0" y="436.0" type="curve" smooth="yes"/>
      <point x="535.0" y="436.0"/>
      <point x="564.0" y="439.5"/>
      <point x="590.0" y="446.5" type="curve"/>
      <point x="590.0" y="465.5"/>
      <point x="590.0" y="485.5"/>
      <point x="590.0" y="506.0" type="curve" smooth="yes"/>
      <point x="590.0" y="572.0"/>
      <point x="569.0" y="621.0"/>
      <point x="528.0" y="661.0" type="curve" smooth="yes"/>
      <point x="488.0" y="700.5"/>
      <point x="434.0" y="720.0"/>
    </contour>
  </outline>
</glyph>
<glyph name="H" format="2">
  <advance width="650.0"/>
  <unicode hex="0048"/>
  <outline>
    <contour>
      <point x="42.499999999999986" y="700.0" type="curve"/>
      <point x="50.999999999999986" y="664.5"/>
      <point x="54.99999999999998" y="623.5"/>
      <point x="54.99999999999998" y="575.0" type="curve" smooth="yes"/>
      <point x="54.99999999999998" y="416.0"/>
      <point x="54.99999999999998" y="257.0"/>
      <point x="54.99999999999998" y="118.0" type="curve" smooth="yes"/>
      <point x="54.99999999999998" y="19.5"/>
      <point x="87.99999999999999" y="-7.499999999999999"/>
      <point x="185.0" y="-7.499999999999999" type="curve" smooth="yes"/>
      <point x="208.00000000000003" y="-7.499999999999999"/>
      <point x="231.0" y="-4.5"/>
      <point x="247.5" y="0.0" type="curve"/>
      <point x="247.5" y="200.0"/>
      <point x="247.5" y="400.5"/>
      <point x="247.5" y="600.5" type="curve" smooth="yes"/>
      <point x="247.5" y="673.5"/>
      <point x="211.49999999999997" y="709.0"/>
      <point x="119.99999999999999" y="709.0" type="curve" smooth="yes"/>
      <point x="94.0" y="709.0"/>
      <point x="66.5" y="705.5"/>
    </contour>
    <contour>
      <point x="14.999999999999996" y="415.0" type="line"/>
      <point x="14.999999999999996" y="388.5" type="line" smooth="yes"/>
      <point x="14.999999999999996" y="269.5"/>
      <point x="27.0" y="235.0"/>
      <point x="117.00000000000003" y="235.0" type="curve"/>
      <point x="450.5" y="235.0" type="line"/>
      <point x="450.5" y="407.5" type="line"/>
      <point x="401.5" y="386.0" type="line"/>
      <point x="375.5" y="406.5"/>
      <point x="346.5" y="415.0"/>
      <point x="302.0" y="415.0" type="curve"/>
    </contour>
    <contour>
      <point x="610.5" y="0.0" type="curve"/>
      <point x="602.0" y="37.0"/>
      <point x="600.0" y="78.0"/>
      <point x="600.0" y="126.50000000000001" type="curve" smooth="yes"/>
      <point x="600.0" y="295.3469827586"/>
      <point x="600.0" y="465.5"/>
      <point x="600.0" y="604.5" type="curve" smooth="yes"/>
      <point x="600.0" y="682.0"/>
      <point x="557.5" y="707.5"/>
      <point x="467.99999999999994" y="707.5" type="curve" smooth="yes"/>
      <point x="447.0" y="707.5"/>
      <point x="427.5" y="705.0"/>
      <point x="407.49999999999994" y="700.5" type="curve"/>
      <point x="407.49999999999994" y="500.5"/>
      <point x="407.49999999999994" y="305.5"/>
      <point x="407.49999999999994" y="108.99999999999999" type="curve" smooth="yes"/>
      <point x="407.49999999999994" y="29.5"/>
      <point x="448.99999999999994" y="-9.0"/>
      <point x="528.4999999999999" y="-9.0" type="curve" smooth="yes"/>
      <point x="558.0" y="-9.0"/>
      <point x="583.5" y="-6.000000000000001"/>
    </contour>
  </outline>
</glyph>
<glyph name="I" format="2">
  <advance width="500.0"/>
  <unicode hex="0049"/>
  <outline>
    <contour>
      <point x="346.5" y="139.5" type="line"/>
      <point x="346.5" y="233.09278350515"/>
      <point x="346.5" y="325.48076923075"/>
      <point x="346.5" y="421.0" type="curve"/>
      <point x="346.5" y="463.0"/>
      <point x="338.0" y="493.5"/>
      <point x="312.5" y="514.0" type="curve"/>
      <point x="331.0" y="560.5" type="line"/>
      <point x="153.5" y="560.5" type="line"/>
      <point x="153.5" y="466.77526132405"/>
      <point x="153.5" y="372.660944206"/>
      <point x="153.5" y="279.0" type="curve"/>
      <point x="153.5" y="237.0"/>
      <point x="162.0" y="206.5"/>
      <point x="187.5" y="186.0" type="curve"/>
      <point x="169.0" y="139.5" type="line"/>
    </contour>
    <contour>
      <point x="456.0" y="0.0" type="line"/>
      <point x="461.0" y="16.5"/>
      <point x="464.5" y="39.0"/>
      <point x="464.5" y="61.5" type="curve" smooth="yes"/>
      <point x="464.5" y="127.0"/>
      <point x="445.0" y="180.0"/>
      <point x="357.0" y="180.0" type="curve" smooth="yes"/>
      <point x="42.5" y="180.0" type="line"/>
      <point x="38.5" y="161.0"/>
      <point x="35.5" y="135.0"/>
      <point x="35.5" y="110.0" type="curve"/>
      <point x="35.5" y="33.5"/>
      <point x="58.0" y="0.0"/>
      <point x="120.5" y="0.0" type="curve" smooth="yes"/>
    </contour>
    <contour>
      <point x="42.0" y="700.0" type="line"/>
      <point x="38.5" y="684.0"/>
      <point x="36.0" y="661.0"/>
      <point x="36.0" y="640.0" type="curve"/>
      <point x="36.0" y="557.0"/>
      <point x="78.0" y="520.0"/>
      <point x="167.0" y="520.0" type="curve" smooth="yes"/>
      <point x="455.5" y="520.0" type="line"/>
      <point x="461.0" y="539.5"/>
      <point x="464.5" y="564.5"/>
      <point x="464.5" y="588.0" type="curve" smooth="yes"/>
      <point x="464.5" y="659.5"/>
      <point x="445.0" y="700.0"/>
      <point x="382.5" y="700.0" type="curve" smooth="yes"/>
    </contour>
  </outline>
</glyph>
<glyph name="J" format="2">
  <advance width="500.0"/>
  <unicode hex="004A"/>
  <outline>
    <contour>
      <point x="214.0" y="162.50000000000003" type="curve" smooth="yes"/>
      <point x="146.0" y="162.50000000000003"/>
      <point x="104.0" y="176.00000000000003"/>
      <point x="42.99999999999999" y="209.50000000000003" type="curve"/>
      <point x="37.0" y="209.50000000000003" type="line"/>
      <point x="32.5" y="188.0"/>
      <point x="28.999999999999996" y="163.5"/>
      <point x="28.999999999999996" y="129.5" type="curve"/>
      <point x="28.999999999999996" y="79.5"/>
      <point x="40.0" y="46.5"/>
      <point x="64.0" y="22.5" type="curve"/>
      <point x="91.5" y="-6.0"/>
      <point x="137.5" y="-20.0"/>
      <point x="205.5" y="-20.0" type="curve" smooth="yes"/>
      <point x="365.5" y="-20.0"/>
      <point x="459.5" y="91.49999999999999"/>
      <point x="459.5" y="227.49999999999997" type="curve"/>
      <point x="459.9548743607" y="353.9982899702"/>
      <point x="460.0" y="487.5"/>
      <point x="459.5" y="603.5" type="curve"/>
      <point x="459.5" y="680.0"/>
      <point x="417.5" y="710.0"/>
      <point x="302.49999999999994" y="710.0" type="curve" smooth="yes"/>
      <point x="218.49999999999997" y="710.0"/>
      <point x="139.5" y="706.5"/>
      <point x="55.49999999999999" y="700.0" type="curve"/>
      <point x="51.499999999999986" y="681.5"/>
      <point x="48.999999999999986" y="656.0"/>
      <point x="48.999999999999986" y="629.5" type="curve" smooth="yes"/>
      <point x="48.999999999999986" y="550.0"/>
      <point x="73.0" y="515.0"/>
      <point x="123.5" y="515.0" type="curve" smooth="yes"/>
      <point x="176.5" y="515.0"/>
      <point x="232.49999999999997" y="534.0"/>
      <point x="290.0" y="569.0" type="curve"/>
      <point x="236.0" y="563.5" type="line"/>
      <point x="285.99999999999994" y="532.5" type="line"/>
      <point x="263.5" y="591.5" type="line"/>
      <point x="263.5" y="460.0"/>
      <point x="263.5" y="346.0"/>
      <point x="263.5" y="235.0" type="curve"/>
      <point x="263.5" y="210.00000000000003"/>
      <point x="262.99999999999994" y="189.0"/>
      <point x="259.99999999999994" y="170.0" type="curve" smooth="yes"/>
      <point x="246.49999999999994" y="165.00000000000003"/>
      <point x="231.99999999999997" y="162.50000000000003"/>
    </contour>
  </outline>
</glyph>
<glyph name="K" format="2">
  <advance width="600.0"/>
  <unicode hex="004B"/>
  <outline>
    <contour>
      <point x="394.0" y="370.0" type="curve"/>
      <point x="264.0" y="224.5" type="line"/>
      <point x="299.0" y="224.5" type="line"/>
      <point x="322.0" y="152.0"/>
      <point x="332.5" y="123.0"/>
      <point x="356.0" y="75.0" type="curve"/>
      <point x="387.0" y="10.0"/>
      <point x="433.0" y="-20.0"/>
      <point x="485.0" y="-20.0" type="curve" smooth="yes"/>
      <point x="513.5" y="-20.0"/>
      <point x="534.0" y="-12.5"/>
      <point x="549.0" y="2.5" type="curve" smooth="yes"/>
      <point x="564.5" y="18.0"/>
      <point x="578.0" y="49.5"/>
      <point x="578.0" y="93.0" type="curve" smooth="yes"/>
      <point x="578.0" y="135.5"/>
      <point x="576.0" y="156.5"/>
      <point x="570.5" y="184.5" type="curve"/>
      <point x="564.5" y="184.5" type="line"/>
      <point x="556.0" y="177.5"/>
      <point x="545.5" y="174.5"/>
      <point x="531.0" y="174.5" type="curve" smooth="yes"/>
      <point x="508.5" y="174.5"/>
      <point x="493.0" y="184.5"/>
      <point x="478.5" y="212.0" type="curve"/>
      <point x="450.5" y="264.5"/>
      <point x="422.0" y="317.5"/>
    </contour>
    <contour>
      <point x="402.0" y="710.0" type="curve" smooth="yes"/>
      <point x="380.5" y="710.0" type="line"/>
      <point x="373.0" y="623.0"/>
      <point x="356.0" y="554.0"/>
      <point x="334.0" y="501.0" type="curve" smooth="yes"/>
      <point x="311.0" y="444.5"/>
      <point x="284.5" y="402.5"/>
      <point x="251.5" y="365.5" type="curve"/>
      <point x="199.5" y="365.5" type="line"/>
      <point x="199.0" y="186.5" type="line"/>
      <point x="321.454221836" y="216.49180092585"/>
      <point x="476.610741435" y="344.43759137775"/>
      <point x="534.5" y="481.0" type="curve" smooth="yes"/>
      <point x="560.0" y="539.5"/>
      <point x="569.5" y="585.0"/>
      <point x="569.5" y="631.0" type="curve" smooth="yes"/>
      <point x="569.5" y="683.5"/>
      <point x="520.5" y="710.0"/>
    </contour>
    <contour>
      <point x="42.5" y="700.0" type="curve"/>
      <point x="51.0" y="664.5"/>
      <point x="55.0" y="623.5"/>
      <point x="55.0" y="575.0" type="curve" smooth="yes"/>
      <point x="55.0" y="416.0"/>
      <point x="55.0" y="257.0"/>
      <point x="55.0" y="118.0" type="curve" smooth="yes"/>
      <point x="55.0" y="22.5"/>
      <point x="88.0" y="-7.5"/>
      <point x="172.5" y="-7.5" type="curve" smooth="yes"/>
      <point x="201.0" y="-7.5"/>
      <point x="221.5" y="-5.0"/>
      <point x="245.5" y="0.0" type="curve"/>
      <point x="245.5" y="200.0"/>
      <point x="245.5" y="400.5"/>
      <point x="245.5" y="600.5" type="curve" smooth="yes"/>
      <point x="245.5" y="673.0"/>
      <point x="211.5" y="709.0"/>
      <point x="124.5" y="709.0" type="curve" smooth="yes"/>
      <point x="95.0" y="709.0"/>
      <point x="69.5" y="706.0"/>
    </contour>
  </outline>
</glyph>
<glyph name="M" format="2">
  <advance width="800.0"/>
  <unicode hex="004D"/>
  <outline>
    <contour>
      <point x="225.0" y="-1.5" type="curve"/>
      <point x="219.0" y="51.0"/>
      <point x="216.0" y="104.0"/>
      <point x="215.5" y="156.5" type="curve" smooth="yes"/>
      <point x="215.0" y="237.5"/>
      <point x="219.5" y="317.5"/>
      <point x="231.5" y="451.5" type="curve"/>
      <point x="212.0" y="424.5" type="line"/>
      <point x="264.0" y="424.5" type="line"/>
      <point x="229.5" y="450.0" type="line"/>
      <point x="270.0" y="273.5"/>
      <point x="316.5" y="160.5"/>
      <point x="346.5" y="135.0" type="curve" smooth="yes"/>
      <point x="364.0" y="120.5"/>
      <point x="375.5" y="117.5"/>
      <point x="401.0" y="117.5" type="curve" smooth="yes"/>
      <point x="418.5" y="117.5"/>
      <point x="435.0" y="119.0"/>
      <point x="449.0" y="122.5" type="curve"/>
      <point x="487.5" y="172.0"/>
      <point x="535.0" y="300.5"/>
      <point x="574.0" y="450.5" type="curve"/>
      <point x="538.0" y="424.5" type="line"/>
      <point x="599.5" y="424.5" type="line"/>
      <point x="572.0" y="453.0" type="line"/>
      <point x="579.5" y="323.0"/>
      <point x="585.0" y="257.0"/>
      <point x="583.5" y="198.5" type="curve"/>
      <point x="582.5" y="159.0"/>
      <point x="579.0" y="106.5"/>
      <point x="577.5" y="75.0" type="curve"/>
      <point x="575.0" y="11.0"/>
      <point x="599.0" y="-9.0"/>
      <point x="686.0" y="-9.0" type="curve"/>
      <point x="721.0" y="-9.0"/>
      <point x="750.5" y="-6.5"/>
      <point x="776.5" y="-1.5" type="curve"/>
      <point x="768.0" y="31.5"/>
      <point x="762.5" y="73.5"/>
      <point x="760.0" y="151.0" type="curve" smooth="yes"/>
      <point x="757.5" y="305.0"/>
      <point x="746.5" y="440.5"/>
      <point x="721.5" y="616.5" type="curve"/>
      <point x="711.0" y="688.5"/>
      <point x="687.5" y="709.0"/>
      <point x="578.5" y="709.0" type="curve" smooth="yes"/>
      <point x="536.5" y="709.0"/>
      <point x="508.5" y="705.5"/>
      <point x="484.5" y="700.5" type="curve"/>
      <point x="466.0" y="574.5"/>
      <point x="434.0" y="430.5"/>
      <point x="391.5" y="308.0" type="curve"/>
      <point x="437.5" y="342.5" type="line"/>
      <point x="367.0" y="342.5" type="line"/>
      <point x="409.0" y="307.5" type="line"/>
      <point x="371.5" y="427.0"/>
      <point x="349.5" y="541.5"/>
      <point x="335.0" y="637.5" type="curve"/>
      <point x="327.0" y="692.0"/>
      <point x="289.5" y="709.0"/>
      <point x="174.5" y="709.0" type="curve"/>
      <point x="131.0" y="709.0"/>
      <point x="91.5" y="705.0"/>
      <point x="67.5" y="700.0" type="curve"/>
      <point x="75.5" y="670.0"/>
      <point x="78.0" y="646.0"/>
      <point x="75.5" y="612.5" type="curve" smooth="yes"/>
      <point x="66.0" y="472.0"/>
      <point x="34.5" y="281.0"/>
      <point x="34.5" y="77.0" type="curve" smooth="yes"/>
      <point x="34.5" y="13.5"/>
      <point x="72.5" y="-9.0"/>
      <point x="140.5" y="-9.0" type="curve"/>
      <point x="168.0" y="-9.0"/>
      <point x="204.5" y="-6.5"/>
    </contour>
  </outline>
</glyph>
<glyph name="O" format="2">
  <advance width="650.0"/>
  <unicode hex="004F"/>
  <outline>
    <contour>
      <point x="325.0" y="720.0" type="curve" smooth="yes"/>
      <point x="141.5" y="720.0"/>
      <point x="34.999999999999986" y="584.5"/>
      <point x="34.999999999999986" y="351.0" type="curve" smooth="yes"/>
      <point x="34.999999999999986" y="333.0" type="line" smooth="yes"/>
      <point x="34.999999999999986" y="98.50000000000003"/>
      <point x="133.49999999999997" y="-20.0"/>
      <point x="327.0" y="-20.0" type="curve" smooth="yes"/>
      <point x="505.0" y="-20.0"/>
      <point x="615.0" y="111.50000000000001"/>
      <point x="615.0" y="349.0" type="curve" smooth="yes"/>
      <point x="615.0" y="367.0" type="line" smooth="yes"/>
      <point x="615.0" y="602.0"/>
      <point x="515.0" y="720.0"/>
    </contour>
    <contour>
      <point x="224.0" y="330.0" type="curve" smooth="yes"/>
      <point x="224.0" y="342.0" type="line" smooth="yes"/>
      <point x="224.0" y="484.0"/>
      <point x="258.5" y="540.5"/>
      <point x="332.0" y="540.5" type="curve" smooth="yes"/>
      <point x="359.0" y="540.5"/>
      <point x="377.0" y="538.0"/>
      <point x="400.0" y="529.5" type="curve"/>
      <point x="417.49999999999994" y="497.5"/>
      <point x="425.99999999999994" y="452.0"/>
      <point x="425.99999999999994" y="387.0" type="curve" smooth="yes"/>
      <point x="425.99999999999994" y="374.0" type="line" smooth="yes"/>
      <point x="425.99999999999994" y="210.0"/>
      <point x="388.5" y="159.50000000000003"/>
      <point x="313.5" y="159.50000000000003" type="curve" smooth="yes"/>
      <point x="289.0" y="159.50000000000003"/>
      <point x="271.0" y="162.5"/>
      <point x="252.0" y="169.0" type="curve" smooth="yes"/>
      <point x="234.5" y="198.50000000000003"/>
      <point x="224.0" y="246.00000000000003"/>
    </contour>
  </outline>
</glyph>
<glyph name="P" format="2">
  <advance width="600.0"/>
  <unicode hex="0050"/>
  <outline>
    <contour>
      <point x="264.0" y="0.0" type="curve"/>
      <point x="255.5" y="34.5"/>
      <point x="252.5" y="74.0"/>
      <point x="252.5" y="118.00000000000001" type="curve" smooth="yes"/>
      <point x="252.5" y="226.59036144579997"/>
      <point x="252.5" y="338.99999999999994"/>
      <point x="252.5" y="437.99999999999994" type="curve" smooth="yes"/>
      <point x="252.5" y="479.24431818179994"/>
      <point x="245.5400379559" y="506.4762738038999"/>
      <point x="218.5" y="527.5" type="curve"/>
      <point x="237.0" y="572.0" type="line"/>
      <point x="60.0" y="572.0" type="line"/>
      <point x="60.0" y="416.0"/>
      <point x="60.0" y="260.0"/>
      <point x="60.0" y="104.5" type="curve" smooth="yes"/>
      <point x="60.0" y="26.0"/>
      <point x="99.5" y="-8.000000000000002"/>
      <point x="189.0" y="-8.000000000000002" type="curve" smooth="yes"/>
      <point x="217.0" y="-8.000000000000002"/>
      <point x="239.50000000000006" y="-5.500000000000001"/>
    </contour>
    <contour>
      <point x="18.999999999999996" y="695.0" type="curve"/>
      <point x="13.499999999999998" y="674.0"/>
      <point x="9.999999999999996" y="648.0"/>
      <point x="9.999999999999996" y="611.5" type="curve"/>
      <point x="9.999999999999996" y="543.0"/>
      <point x="21.999999999999993" y="515.0"/>
      <point x="52.00000000000001" y="515.0" type="curve" smooth="yes"/>
      <point x="84.0" y="515.0"/>
      <point x="152.0" y="535.0"/>
      <point x="276.0" y="535.0" type="curve"/>
      <point x="314.5" y="535.0"/>
      <point x="342.51442002805" y="530.4228369958"/>
      <point x="364.99999999999994" y="522.0" type="curve" smooth="yes"/>
      <point x="368.99999999999994" y="507.99999999999994"/>
      <point x="371.0" y="491.0"/>
      <point x="371.0" y="473.0" type="curve" smooth="yes"/>
      <point x="371.0" y="460.0" type="line" smooth="yes"/>
      <point x="371.0" y="358.0"/>
      <point x="345.0" y="320.0"/>
      <point x="298.0" y="320.0" type="curve" smooth="yes"/>
      <point x="268.0" y="320.0"/>
      <point x="246.0" y="325.0"/>
      <point x="220.50000000000003" y="337.0" type="curve"/>
      <point x="220.50000000000003" y="200.0" type="line" smooth="yes"/>
      <point x="258.5" y="200.0" type="line"/>
      <point x="280.5" y="171.5"/>
      <point x="317.5" y="154.0"/>
      <point x="357.0" y="154.0" type="curve" smooth="yes"/>
      <point x="473.5" y="154.0"/>
      <point x="565.0" y="269.5"/>
      <point x="565.0" y="475.5" type="curve" smooth="yes"/>
      <point x="565.0" y="483.5" type="line" smooth="yes"/>
      <point x="565.0" y="617.5"/>
      <point x="462.0" y="715.0"/>
      <point x="308.5" y="715.0" type="curve"/>
      <point x="209.0" y="715.0"/>
      <point x="105.5" y="709.5"/>
    </contour>
  </outline>
</glyph>
<glyph name="Q" format="2">
  <advance width="650.0"/>
  <unicode hex="0051"/>
  <outline>
    <contour>
      <point x="485.0" y="140.0" type="curve"/>
      <point x="368.5" y="40.5" type="line"/>
      <point x="381.5" y="-10.5"/>
      <point x="398.0" y="-56.5"/>
      <point x="421.5" y="-107.0" type="curve" smooth="yes"/>
      <point x="450.5" y="-169.5"/>
      <point x="493.5" y="-203.0"/>
      <point x="547.0" y="-203.0" type="curve" smooth="yes"/>
      <point x="573.0" y="-203.0"/>
      <point x="592.5" y="-195.5"/>
      <point x="608.0" y="-177.5" type="curve" smooth="yes"/>
      <point x="625.0" y="-158.0"/>
      <point x="636.0" y="-122.5"/>
      <point x="636.0" y="-75.0" type="curve" smooth="yes"/>
      <point x="636.0" y="-43.0"/>
      <point x="634.5" y="-20.0"/>
      <point x="628.5" y="6.0" type="curve"/>
      <point x="622.5" y="6.0" type="line"/>
      <point x="611.5" y="-1.5"/>
      <point x="604.0" y="-5.0"/>
      <point x="588.5" y="-5.0" type="curve" smooth="yes"/>
      <point x="566.0" y="-5.0"/>
      <point x="549.5" y="5.0"/>
      <point x="536.0" y="30.5" type="curve"/>
      <point x="516.0" y="66.0"/>
      <point x="499.5" y="102.5"/>
    </contour>
    <contour>
      <point x="325.0" y="720.0" type="curve"/>
      <point x="141.5" y="720.0"/>
      <point x="35.0" y="584.5"/>
      <point x="35.0" y="351.0" type="curve" smooth="yes"/>
      <point x="35.0" y="333.0" type="line" smooth="yes"/>
      <point x="35.0" y="98.5"/>
      <point x="133.5" y="-20.0"/>
      <point x="327.0" y="-20.0" type="curve" smooth="yes"/>
      <point x="505.0" y="-20.0"/>
      <point x="615.0" y="111.5"/>
      <point x="615.0" y="349.0" type="curve" smooth="yes"/>
      <point x="615.0" y="367.0" type="line" smooth="yes"/>
      <point x="615.0" y="602.0"/>
      <point x="515.0" y="720.0"/>
    </contour>
    <contour>
      <point x="224.0" y="330.0" type="curve" smooth="yes"/>
      <point x="224.0" y="342.0" type="line" smooth="yes"/>
      <point x="224.0" y="484.0"/>
      <point x="258.5" y="540.5"/>
      <point x="332.0" y="540.5" type="curve" smooth="yes"/>
      <point x="359.0" y="540.5"/>
      <point x="377.0" y="538.0"/>
      <point x="400.0" y="529.5" type="curve" smooth="yes"/>
      <point x="417.5" y="497.5"/>
      <point x="426.0" y="452.0"/>
      <point x="426.0" y="387.0" type="curve" smooth="yes"/>
      <point x="426.0" y="374.0" type="line" smooth="yes"/>
      <point x="426.0" y="210.0"/>
      <point x="388.5" y="159.5"/>
      <point x="313.5" y="159.5" type="curve" smooth="yes"/>
      <point x="289.0" y="159.5"/>
      <point x="271.0" y="162.5"/>
      <point x="252.0" y="169.0" type="curve" smooth="yes"/>
      <point x="234.5" y="198.5"/>
      <point x="224.0" y="246.0"/>
    </contour>
  </outline>
</glyph>
<glyph name="S" format="2">
  <advance width="600.0"/>
  <unicode hex="0053"/>
  <outline>
    <contour>
      <point x="369.0" y="720.0" type="curve" smooth="yes"/>
      <point x="204.5" y="720.0"/>
      <point x="55.999999999999986" y="594.0"/>
      <point x="55.999999999999986" y="457.0" type="curve" smooth="yes"/>
      <point x="55.999999999999986" y="444.0" type="line" smooth="yes"/>
      <point x="55.999999999999986" y="371.5"/>
      <point x="94.0" y="319.0"/>
      <point x="241.0" y="269.5" type="curve" smooth="yes"/>
      <point x="334.0" y="238.50000000000003" type="line" smooth="yes"/>
      <point x="369.5" y="226.00000000000006"/>
      <point x="393.49999999999994" y="207.00000000000003"/>
      <point x="399.49999999999994" y="182.0" type="curve" smooth="yes"/>
      <point x="399.49999999999994" y="178.5" type="line" smooth="yes"/>
      <point x="376.49999999999994" y="164.0"/>
      <point x="339.5" y="155.0"/>
      <point x="289.5" y="155.0" type="curve" smooth="yes"/>
      <point x="187.5" y="155.0"/>
      <point x="119.5" y="180.50000000000003"/>
      <point x="53.999999999999986" y="238.0" type="curve"/>
      <point x="47.999999999999986" y="238.0" type="line"/>
      <point x="43.499999999999986" y="220.5"/>
      <point x="40.499999999999986" y="196.0"/>
      <point x="40.499999999999986" y="166.0" type="curve" smooth="yes"/>
      <point x="40.499999999999986" y="108.5"/>
      <point x="54.999999999999986" y="65.5"/>
      <point x="79.5" y="40.0" type="curve"/>
      <point x="116.00000000000001" y="1.5"/>
      <point x="196.0" y="-20.0"/>
      <point x="302.5" y="-20.0" type="curve" smooth="yes"/>
      <point x="472.0" y="-20.0"/>
      <point x="564.5" y="53.0"/>
      <point x="564.5" y="165.0" type="curve" smooth="yes"/>
      <point x="564.5" y="181.0" type="line" smooth="yes"/>
      <point x="564.5" y="232.5"/>
      <point x="533.5" y="307.5"/>
      <point x="394.0" y="352.5" type="curve" smooth="yes"/>
      <point x="299.0" y="383.5" type="line" smooth="yes"/>
      <point x="249.0" y="400.0"/>
      <point x="236.5" y="414.0"/>
      <point x="235.5" y="440.0" type="curve" smooth="yes"/>
      <point x="235.5" y="444.5" type="line" smooth="yes"/>
      <point x="235.5" y="494.5"/>
      <point x="301.99999999999994" y="545.5"/>
      <point x="356.0" y="545.5" type="curve" smooth="yes"/>
      <point x="374.5" y="545.5"/>
      <point x="386.5" y="543.5"/>
      <point x="405.99999999999994" y="537.0" type="curve"/>
      <point x="382.99999999999994" y="579.5" type="line"/>
      <point x="374.99999999999994" y="538.9999999999999"/>
      <point x="369.49999999999994" y="509.5"/>
      <point x="369.49999999999994" y="491.0" type="curve" smooth="yes"/>
      <point x="369.49999999999994" y="442.0"/>
      <point x="403.99999999999994" y="419.0"/>
      <point x="479.99999999999994" y="419.0" type="curve" smooth="yes"/>
      <point x="508.5" y="419.0"/>
      <point x="531.5" y="423.5"/>
      <point x="549.5" y="429.5" type="curve"/>
      <point x="549.5" y="458.5"/>
      <point x="549.5" y="489.5"/>
      <point x="549.5" y="520.0" type="curve"/>
      <point x="549.5" y="574.5"/>
      <point x="532.0" y="625.5"/>
      <point x="492.5" y="665.0" type="curve" smooth="yes"/>
      <point x="456.5" y="701.0"/>
      <point x="419.0" y="720.0"/>
    </contour>
  </outline>
</glyph>
<glyph name="T" format="2">
  <advance width="600.0"/>
  <unicode hex="0054"/>
  <outline>
    <contour>
      <point x="30.999999999999993" y="700.0" type="line"/>
      <point x="25.499999999999993" y="683.0"/>
      <point x="22.499999999999993" y="662.5"/>
      <point x="22.499999999999993" y="639.5" type="curve" smooth="yes"/>
      <point x="22.499999999999993" y="552.5"/>
      <point x="56.999999999999986" y="515.0"/>
      <point x="158.99999999999997" y="515.0" type="curve" smooth="yes"/>
      <point x="564.0" y="515.0" type="line"/>
      <point x="570.0" y="533.5"/>
      <point x="574.5" y="558.0"/>
      <point x="574.5" y="583.0" type="curve" smooth="yes"/>
      <point x="574.5" y="662.5"/>
      <point x="553.0" y="700.0"/>
      <point x="485.99999999999994" y="700.0" type="curve"/>
    </contour>
    <contour>
      <point x="408.0" y="0.0" type="curve"/>
      <point x="399.5" y="34.5"/>
      <point x="396.5" y="74.0"/>
      <point x="396.5" y="118.00000000000001" type="curve"/>
      <point x="396.5" y="218.83333333335003"/>
      <point x="396.5" y="319.0"/>
      <point x="396.5" y="420.0" type="curve"/>
      <point x="396.5" y="461.0"/>
      <point x="389.5" y="488.4999999999999"/>
      <point x="362.5" y="509.49999999999994" type="curve" smooth="yes"/>
      <point x="380.5" y="554.0" type="line"/>
      <point x="203.5" y="554.0" type="line"/>
      <point x="203.5" y="404.5"/>
      <point x="203.5" y="254.4841437632"/>
      <point x="203.5" y="108.5" type="curve" smooth="yes"/>
      <point x="203.5" y="24.5"/>
      <point x="240.0" y="-8.000000000000002"/>
      <point x="332.5" y="-8.000000000000002" type="curve" smooth="yes"/>
      <point x="360.5" y="-8.000000000000002"/>
      <point x="383.5" y="-5.500000000000001"/>
    </contour>
  </outline>
</glyph>
<glyph name="V" format="2">
  <advance width="650.0"/>
  <unicode hex="0056"/>
  <outline>
    <contour>
      <point x="104.0" y="709.0" type="curve"/>
      <point x="81.0" y="709.0"/>
      <point x="54.5" y="705.5"/>
      <point x="35.0" y="700.0" type="curve"/>
      <point x="36.0" y="667.0"/>
      <point x="37.5" y="636.0"/>
      <point x="39.5" y="606.5" type="curve" smooth="yes"/>
      <point x="56.0" y="301.0"/>
      <point x="100.5" y="129.5"/>
      <point x="196.0" y="35.0" type="curve" smooth="yes"/>
      <point x="231.5" y="0.0"/>
      <point x="272.5" y="-10.0"/>
      <point x="318.0" y="-10.0" type="curve"/>
      <point x="347.5" y="-10.0"/>
      <point x="376.0" y="-7.5"/>
      <point x="405.0" y="-1.0" type="curve"/>
      <point x="530.5369408244501" y="105.11039159020001"/>
      <point x="605.5" y="319.0"/>
      <point x="614.5" y="599.0" type="curve"/>
      <point x="618.0" y="676.5"/>
      <point x="574.5" y="709.0"/>
      <point x="496.5" y="709.0" type="curve"/>
      <point x="473.5" y="709.0"/>
      <point x="450.0" y="706.0"/>
      <point x="426.0" y="700.0" type="curve"/>
      <point x="423.0" y="408.5"/>
      <point x="388.5" y="271.5"/>
      <point x="304.5" y="131.0" type="curve"/>
      <point x="359.0" y="167.0" type="line"/>
      <point x="287.0" y="167.0" type="line"/>
      <point x="337.0" y="129.0" type="line"/>
      <point x="269.5" y="258.5"/>
      <point x="244.5" y="379.5"/>
      <point x="234.5" y="603.5" type="curve"/>
      <point x="230.5" y="685.0"/>
      <point x="187.0" y="709.0"/>
    </contour>
  </outline>
</glyph>
<glyph name="W" format="2">
  <advance width="900.0"/>
  <unicode hex="0057"/>
  <outline>
    <contour>
      <point x="29.0" y="700.5" type="curve"/>
      <point x="32.0" y="676.0"/>
      <point x="33.5" y="646.5"/>
      <point x="33.5" y="615.5" type="curve" smooth="yes"/>
      <point x="36.0" y="256.0"/>
      <point x="101.0" y="109.0"/>
      <point x="202.5" y="12.0" type="curve"/>
      <point x="219.0" y="-3.5"/>
      <point x="247.5" y="-9.0"/>
      <point x="276.5" y="-9.0" type="curve"/>
      <point x="295.5" y="-9.0"/>
      <point x="312.0" y="-6.5"/>
      <point x="323.0" y="-2.5" type="curve"/>
      <point x="375.5" y="50.5"/>
      <point x="422.5" y="142.0"/>
      <point x="458.0" y="284.0" type="curve"/>
      <point x="421.0" y="238.0" type="line"/>
      <point x="480.5" y="238.0" type="line"/>
      <point x="440.0" y="284.0" type="line"/>
      <point x="474.0" y="144.0"/>
      <point x="511.5" y="64.0"/>
      <point x="559.0" y="16.0" type="curve" smooth="yes"/>
      <point x="576.5" y="-2.0"/>
      <point x="595.0" y="-9.0"/>
      <point x="627.5" y="-9.0" type="curve" smooth="yes"/>
      <point x="647.0" y="-9.0"/>
      <point x="672.0" y="-6.5"/>
      <point x="684.0" y="-2.5" type="curve"/>
      <point x="802.95332563335" y="109.9495027357"/>
      <point x="869.0" y="327.0"/>
      <point x="869.0" y="606.5" type="curve"/>
      <point x="869.0" y="685.5"/>
      <point x="836.5" y="709.0"/>
      <point x="755.0" y="709.0" type="curve"/>
      <point x="732.0" y="709.0"/>
      <point x="707.0" y="706.5"/>
      <point x="683.0" y="700.5" type="curve"/>
      <point x="686.0" y="419.5"/>
      <point x="654.5" y="253.0"/>
      <point x="590.0" y="136.5" type="curve"/>
      <point x="637.5" y="183.0" type="line"/>
      <point x="570.5" y="183.0" type="line"/>
      <point x="623.5" y="136.0" type="line"/>
      <point x="570.5" y="256.0"/>
      <point x="544.0" y="380.0"/>
      <point x="535.5" y="553.5" type="curve" smooth="yes"/>
      <point x="533.5" y="608.5"/>
      <point x="497.0" y="627.0"/>
      <point x="410.0" y="627.5" type="curve"/>
      <point x="373.0" y="627.5" type="line"/>
      <point x="363.5" y="403.0"/>
      <point x="330.4511792944" y="256.87523597455004"/>
      <point x="266.5" y="137.0" type="curve"/>
      <point x="316.5" y="183.0" type="line"/>
      <point x="250.0" y="183.0" type="line"/>
      <point x="299.5" y="137.5" type="line"/>
      <point x="245.5" y="251.5"/>
      <point x="224.0" y="401.0"/>
      <point x="224.0" y="607.5" type="curve" smooth="yes"/>
      <point x="224.0" y="683.5"/>
      <point x="191.0" y="709.0"/>
      <point x="94.5" y="709.0" type="curve" smooth="yes"/>
      <point x="74.0" y="709.0"/>
      <point x="52.5" y="706.0"/>
    </contour>
  </outline>
</glyph>
<glyph name="X" format="2">
  <advance width="650.0"/>
  <unicode hex="0058"/>
  <outline>
    <contour>
      <point x="567.4999999999999" y="-11.0" type="curve" smooth="yes"/>
      <point x="594.0" y="-11.0"/>
      <point x="617.5" y="-7.5"/>
      <point x="636.5" y="0.0" type="curve"/>
      <point x="561.5" y="83.5"/>
      <point x="468.5" y="218.0"/>
      <point x="396.00000000000006" y="339.0" type="curve"/>
      <point x="355.0" y="405.0" type="line"/>
      <point x="308.0" y="491.5"/>
      <point x="281.5" y="555.0"/>
      <point x="246.50000000000003" y="636.5" type="curve" smooth="yes"/>
      <point x="222.50000000000003" y="694.0"/>
      <point x="183.0" y="709.0"/>
      <point x="82.00000000000001" y="709.0" type="curve" smooth="yes"/>
      <point x="58.99999999999999" y="709.0"/>
      <point x="35.999999999999986" y="706.5"/>
      <point x="12.999999999999995" y="701.0" type="curve"/>
      <point x="60.5" y="576.5"/>
      <point x="133.49999999999997" y="439.5"/>
      <point x="226.5" y="295.0" type="curve"/>
      <point x="270.0" y="231.0" type="line"/>
      <point x="311.0" y="157.99999999999997"/>
      <point x="357.99999999999994" y="89.50000000000001"/>
      <point x="401.5" y="42.5" type="curve" smooth="yes"/>
      <point x="442.0" y="2.6645352591003757e-15"/>
      <point x="481.99999999999994" y="-11.0"/>
    </contour>
    <contour>
      <point x="514.5" y="709.0" type="curve"/>
      <point x="489.0" y="709.0"/>
      <point x="469.0" y="706.0"/>
      <point x="445.99999999999994" y="700.0" type="curve"/>
      <point x="426.5" y="586.0"/>
      <point x="392.0" y="499.0"/>
      <point x="347.0" y="434.0" type="curve"/>
      <point x="310.0" y="434.0" type="line"/>
      <point x="406.50000000000006" y="258.0" type="line"/>
      <point x="520.5" y="382.0"/>
      <point x="584.0" y="483.50000000000006"/>
      <point x="615.5" y="598.5" type="curve"/>
      <point x="638.5" y="684.0"/>
      <point x="605.5" y="709.0"/>
    </contour>
    <contour>
      <point x="130.5" y="-9.0" type="curve" smooth="yes"/>
      <point x="163.0" y="-9.0"/>
      <point x="182.50000000000003" y="-6.000000000000001"/>
      <point x="199.00000000000003" y="0.0" type="curve"/>
      <point x="216.00000000000003" y="71.00000000000001"/>
      <point x="248.5" y="134.5"/>
      <point x="288.5" y="188.49999999999997" type="curve"/>
      <point x="328.5" y="188.49999999999997" type="line"/>
      <point x="237.0" y="376.5" type="line"/>
      <point x="131.99999999999997" y="269.0"/>
      <point x="66.0" y="185.50000000000003"/>
      <point x="32.5" y="95.5" type="curve"/>
      <point x="11.499999999999995" y="40.0"/>
      <point x="45.00000000000001" y="-9.0"/>
    </contour>
  </outline>
</glyph>
<glyph name="Y" format="2">
  <advance width="600.0"/>
  <unicode hex="0059"/>
  <outline>
    <contour>
      <point x="411.0" y="0.0" type="curve"/>
      <point x="401.0" y="35.5"/>
      <point x="397.0" y="76.5"/>
      <point x="397.0" y="125.0" type="curve"/>
      <point x="397.0" y="184.0"/>
      <point x="397.0" y="242.5"/>
      <point x="397.0" y="301.5" type="curve"/>
      <point x="204.0" y="301.5" type="line"/>
      <point x="204.0" y="234.0"/>
      <point x="204.0" y="165.5"/>
      <point x="204.0" y="101.5" type="curve"/>
      <point x="204.0" y="24.0"/>
      <point x="232.5" y="-9.0"/>
      <point x="328.0" y="-9.0" type="curve" smooth="yes"/>
      <point x="357.5" y="-9.0"/>
      <point x="382.5" y="-6.0"/>
    </contour>
    <contour>
      <point x="34.0" y="701.5" type="curve"/>
      <point x="56.0" y="469.5"/>
      <point x="101.5" y="315.0"/>
      <point x="184.5" y="232.0" type="curve"/>
      <point x="224.5" y="192.0"/>
      <point x="264.5" y="185.0"/>
      <point x="370.0" y="185.0" type="curve"/>
      <point x="463.0" y="264.0"/>
      <point x="543.0" y="439.5"/>
      <point x="560.5" y="623.0" type="curve"/>
      <point x="566.0" y="681.0"/>
      <point x="528.5" y="709.0"/>
      <point x="443.5" y="709.0" type="curve"/>
      <point x="422.0" y="709.0"/>
      <point x="400.5" y="707.0"/>
      <point x="379.5" y="701.5" type="curve"/>
      <point x="367.0" y="536.0"/>
      <point x="351.0" y="435.5"/>
      <point x="289.5" y="343.5" type="curve"/>
      <point x="334.5" y="365.5" type="line"/>
      <point x="265.0" y="365.5" type="line"/>
      <point x="310.0" y="343.5" type="line"/>
      <point x="267.5" y="415.5"/>
      <point x="242.5" y="511.5"/>
      <point x="231.5" y="617.0" type="curve"/>
      <point x="224.0" y="690.5"/>
      <point x="189.0" y="709.0"/>
      <point x="98.0" y="709.0" type="curve" smooth="yes"/>
      <point x="76.5" y="709.0"/>
      <point x="55.0" y="707.0"/>
    </contour>
  </outline>
</glyph>
<glyph name="bracketleft" format="2">
  <advance width="451.0"/>
  <unicode hex="005B"/>
  <outline>
    <contour>
      <point x="397.5" y="-161.0" type="line"/>
      <point x="403.0" y="-142.0"/>
      <point x="405.5" y="-116.99999999999999"/>
      <point x="405.5" y="-87.99999999999999" type="curve" smooth="yes"/>
      <point x="405.5" y="-9.999999999999982"/>
      <point x="384.5" y="20.50000000000002"/>
      <point x="331.5" y="20.50000000000002" type="curve"/>
      <point x="252.5" y="20.50000000000002" type="line"/>
      <point x="252.5" y="206.50000000000003"/>
      <point x="252.5" y="393.0"/>
      <point x="252.5" y="579.0" type="curve"/>
      <point x="395.0" y="579.0" type="line"/>
      <point x="401.0" y="600.5"/>
      <point x="403.0" y="618.5"/>
      <point x="403.0" y="644.5" type="curve" smooth="yes"/>
      <point x="403.0" y="725.5"/>
      <point x="379.0" y="760.0"/>
      <point x="333.0" y="760.0" type="curve"/>
      <point x="135.0" y="760.0" type="line" smooth="yes"/>
      <point x="101.0" y="760.0"/>
      <point x="76.5" y="757.5"/>
      <point x="45.499999999999986" y="751.5" type="curve"/>
      <point x="55.49999999999999" y="715.0"/>
      <point x="60.49999999999999" y="678.0"/>
      <point x="60.49999999999999" y="637.0" type="curve" smooth="yes"/>
      <point x="60.49999999999999" y="430.5"/>
      <point x="60.49999999999999" y="208.5"/>
      <point x="60.49999999999999" y="-5.499999999999979" type="curve" smooth="yes"/>
      <point x="60.49999999999999" y="-74.49999999999999"/>
      <point x="125.99999999999999" y="-161.0"/>
      <point x="177.5" y="-161.0" type="curve" smooth="yes"/>
    </contour>
  </outline>
</glyph>
<glyph name="backslash" format="2">
  <advance width="600.0"/>
  <unicode hex="005C"/>
  <outline>
    <contour>
      <point x="19.999999999999993" y="751.5" type="curve"/>
      <point x="82.49999999999997" y="454.0"/>
      <point x="179.99999999999997" y="192.50000000000003"/>
      <point x="314.5" y="-34.99999999999999" type="curve" smooth="yes"/>
      <point x="354.0" y="-101.0"/>
      <point x="402.0" y="-133.5"/>
      <point x="464.5" y="-133.5" type="curve" smooth="yes"/>
      <point x="504.5" y="-133.5"/>
      <point x="533.0" y="-126.5"/>
      <point x="567.0" y="-106.49999999999999" type="curve"/>
      <point x="544.0" y="-82.99999999999999"/>
      <point x="524.5" y="-55.0"/>
      <point x="505.0" y="-18.499999999999996" type="curve"/>
      <point x="381.0" y="201.5"/>
      <point x="290.50000000000006" y="439.5"/>
      <point x="235.0" y="697.0" type="curve"/>
      <point x="224.5" y="744.0"/>
      <point x="179.99999999999997" y="772.0"/>
      <point x="103.99999999999999" y="772.0" type="curve" smooth="yes"/>
      <point x="74.50000000000003" y="772.0"/>
      <point x="51.99999999999999" y="766.0"/>
    </contour>
  </outline>
</glyph>
<glyph name="bracketright" format="2">
  <advance width="451.0"/>
  <unicode hex="005D"/>
  <outline>
    <contour>
      <point x="53.5" y="760.0" type="line"/>
      <point x="48.0" y="741.0"/>
      <point x="45.5" y="716.0"/>
      <point x="45.5" y="687.0" type="curve" smooth="yes"/>
      <point x="45.5" y="609.0"/>
      <point x="66.5" y="578.5"/>
      <point x="119.5" y="578.5" type="curve" smooth="yes"/>
      <point x="198.5" y="578.5" type="line"/>
      <point x="198.5" y="392.5"/>
      <point x="198.5" y="206.0"/>
      <point x="198.5" y="20.0" type="curve"/>
      <point x="56.0" y="20.0" type="line"/>
      <point x="50.0" y="-1.5"/>
      <point x="48.0" y="-19.5"/>
      <point x="48.0" y="-45.5" type="curve" smooth="yes"/>
      <point x="48.0" y="-126.5"/>
      <point x="72.0" y="-161.0"/>
      <point x="118.0" y="-161.0" type="curve" smooth="yes"/>
      <point x="316.0" y="-161.0" type="line" smooth="yes"/>
      <point x="350.0" y="-161.0"/>
      <point x="374.5" y="-158.5"/>
      <point x="405.5" y="-152.5" type="curve"/>
      <point x="395.5" y="-116.0"/>
      <point x="390.5" y="-79.0"/>
      <point x="390.5" y="-38.0" type="curve" smooth="yes"/>
      <point x="390.5" y="168.5"/>
      <point x="390.5" y="390.5"/>
      <point x="390.5" y="604.5" type="curve" smooth="yes"/>
      <point x="390.5" y="673.5"/>
      <point x="325.0" y="760.0"/>
      <point x="273.5" y="760.0" type="curve" smooth="yes"/>
    </contour>
  </outline>
</glyph>
<glyph name="asciicircum" format="2">
  <advance width="600.0"/>
  <unicode hex="005E"/>
  <outline>
    <contour>
      <point x="260.0" y="760.0" type="curve"/>
      <point x="189.5" y="713.0"/>
      <point x="99.0" y="589.0"/>
      <point x="53.0" y="480.5" type="curve" smooth="yes"/>
      <point x="38.0" y="446.5"/>
      <point x="32.5" y="424.0"/>
      <point x="32.5" y="406.5" type="curve" smooth="yes"/>
      <point x="32.5" y="368.0"/>
      <point x="87.0" y="344.5"/>
      <point x="160.0" y="344.5" type="curve" smooth="yes"/>
      <point x="179.0" y="344.5" type="line"/>
      <point x="203.5" y="453.0"/>
      <point x="237.5" y="521.5"/>
      <point x="308.5" y="612.5" type="curve"/>
      <point x="260.0" y="592.5" type="line"/>
      <point x="327.0" y="592.5" type="line" smooth="yes"/>
      <point x="278.5" y="612.5" type="line"/>
      <point x="337.0" y="538.0"/>
      <point x="363.5" y="480.5"/>
      <point x="391.5" y="396.0" type="curve" smooth="yes"/>
      <point x="402.5" y="362.0"/>
      <point x="434.0" y="349.0"/>
      <point x="496.5" y="349.0" type="curve" smooth="yes"/>
      <point x="525.0" y="349.0"/>
      <point x="545.0" y="352.0"/>
      <point x="565.5" y="360.0" type="curve"/>
      <point x="524.0" y="510.5"/>
      <point x="459.0" y="630.0"/>
      <point x="383.5" y="710.0" type="curve" smooth="yes"/>
      <point x="341.5" y="754.5"/>
      <point x="324.0" y="760.0"/>
      <point x="297.0" y="760.0" type="curve" smooth="yes"/>
      <point x="285.0" y="760.0"/>
      <point x="272.0" y="760.0"/>
    </contour>
  </outline>
</glyph>
<glyph name="underscore" format="2">
  <advance width="600.0"/>
  <unicode hex="005F"/>
  <outline>
    <contour>
      <point x="46.99999999999999" y="-34.999999999999986" type="line"/>
      <point x="46.99999999999999" y="-41.999999999999986"/>
      <point x="46.99999999999999" y="-48.49999999999998"/>
      <point x="46.99999999999999" y="-56.500000000000014" type="curve" smooth="yes"/>
      <point x="46.99999999999999" y="-191.50000000000003"/>
      <point x="66.5" y="-214.50000000000003"/>
      <point x="180.00000000000003" y="-214.50000000000003" type="curve" smooth="yes"/>
      <point x="559.5" y="-214.50000000000003" type="line"/>
      <point x="564.93044694495" y="-188.31795682310002"/>
      <point x="569.0" y="-159.69791666665"/>
      <point x="569.0" y="-136.0" type="curve" smooth="yes"/>
      <point x="569.0" y="-56.90086206894999"/>
      <point x="548.0" y="-34.999999999999986"/>
      <point x="480.5" y="-34.999999999999986" type="curve" smooth="yes"/>
    </contour>
  </outline>
</glyph>
<glyph name="grave" format="2">
  <advance width="600.0"/>
  <unicode hex="0060"/>
  <outline>
    <contour>
      <point x="331.5" y="758.5" type="curve"/>
      <point x="272.0" y="759.0"/>
      <point x="230.5" y="755.0"/>
      <point x="197.5" y="745.5" type="curve" smooth="yes"/>
      <point x="170.0" y="738.5"/>
      <point x="156.5" y="720.0"/>
      <point x="161.5" y="684.0" type="curve" smooth="yes"/>
      <point x="170.0" y="615.0"/>
      <point x="222.49999999999997" y="523.5"/>
      <point x="268.5" y="482.0" type="curve" smooth="yes"/>
      <point x="299.0" y="454.5"/>
      <point x="320.0" y="447.0"/>
      <point x="364.5" y="447.0" type="curve" smooth="yes"/>
      <point x="394.0" y="447.0"/>
      <point x="423.0" y="453.0"/>
      <point x="444.5" y="467.5" type="curve"/>
      <point x="393.0" y="552.0"/>
      <point x="350.5" y="649.5"/>
    </contour>
  </outline>
</glyph>
<glyph name="a" format="2">
  <advance width="600.0"/>
  <unicode hex="0061"/>
  <outline>
    <contour>
      <point x="533.5" y="352.0" type="curve" smooth="yes"/>
      <point x="533.5" y="450.5"/>
      <point x="433.0" y="556.0"/>
      <point x="294.0" y="556.0" type="curve" smooth="yes"/>
      <point x="168.0" y="556.0"/>
      <point x="126.5" y="546.0"/>
      <point x="98.49999999999997" y="518.0" type="curve" smooth="yes"/>
      <point x="78.49999999999999" y="498.0"/>
      <point x="71.49999999999999" y="467.0"/>
      <point x="71.49999999999999" y="431.5" type="curve" smooth="yes"/>
      <point x="71.49999999999999" y="409.5"/>
      <point x="73.49999999999999" y="390.0"/>
      <point x="77.49999999999999" y="371.5" type="curve"/>
      <point x="83.49999999999997" y="371.5" type="line"/>
      <point x="138.49999999999997" y="388.49999999999994"/>
      <point x="187.0" y="393.99999999999994"/>
      <point x="246.5" y="393.99999999999994" type="curve" smooth="yes"/>
      <point x="291.99999999999994" y="393.99999999999994"/>
      <point x="329.49999999999994" y="389.5"/>
      <point x="366.49999999999994" y="376.0" type="curve" smooth="yes"/>
      <point x="354.49999999999994" y="332.49999999999994"/>
      <point x="347.49999999999994" y="295.5"/>
      <point x="346.49999999999994" y="265.0" type="curve" smooth="yes"/>
      <point x="346.49999999999994" y="226.0"/>
      <point x="346.49999999999994" y="188.5"/>
      <point x="346.49999999999994" y="149.5" type="curve" smooth="yes"/>
      <point x="346.49999999999994" y="71.99999999999999"/>
      <point x="412.5" y="-8.000000000000002"/>
      <point x="480.5" y="-8.000000000000002" type="curve" smooth="yes"/>
      <point x="506.5" y="-8.000000000000002"/>
      <point x="531.0" y="-1.3322676295501878e-15"/>
      <point x="553.5" y="23.0" type="curve" smooth="yes"/>
      <point x="574.5" y="44.0"/>
      <point x="590.0" y="90.5"/>
      <point x="590.0" y="141.0" type="curve" smooth="yes"/>
      <point x="590.0" y="158.0"/>
      <point x="588.0" y="171.0"/>
      <point x="586.0" y="179.0" type="curve"/>
      <point x="580.0" y="179.0" type="line"/>
      <point x="570.0" y="170.0"/>
      <point x="556.5" y="165.0"/>
      <point x="545.0" y="165.0" type="curve"/>
      <point x="541.5" y="165.0"/>
      <point x="536.0" y="166.0"/>
      <point x="533.5" y="167.5" type="curve" smooth="yes"/>
      <point x="533.5" y="186.5"/>
      <point x="533.5" y="204.5"/>
      <point x="533.5" y="224.00000000000003" type="curve" smooth="yes"/>
      <point x="533.5" y="266.0"/>
      <point x="533.5" y="309.5"/>
    </contour>
    <contour>
      <point x="218.0" y="175.0" type="curve" smooth="yes"/>
      <point x="218.0" y="177.0" type="line" smooth="yes"/>
      <point x="218.0" y="191.5"/>
      <point x="219.5" y="204.5"/>
      <point x="223.0" y="219.0" type="curve" smooth="yes"/>
      <point x="238.50000000000003" y="223.0"/>
      <point x="255.5" y="225.0"/>
      <point x="274.0" y="225.0" type="curve" smooth="yes"/>
      <point x="314.5" y="225.0"/>
      <point x="366.50000000000006" y="219.0"/>
      <point x="412.5" y="205.0" type="curve"/>
      <point x="412.5" y="246.0"/>
      <point x="405.0" y="270.5"/>
      <point x="388.0" y="283.5" type="curve" smooth="yes"/>
      <point x="357.50000000000006" y="308.5"/>
      <point x="293.5" y="324.5"/>
      <point x="206.99999999999997" y="324.5" type="curve" smooth="yes"/>
      <point x="118.5" y="324.5"/>
      <point x="31.499999999999996" y="237.0"/>
      <point x="31.499999999999996" y="159.5" type="curve" smooth="yes"/>
      <point x="31.499999999999996" y="151.0" type="line" smooth="yes"/>
      <point x="31.499999999999996" y="49.00000000000001"/>
      <point x="90.0" y="-10.0"/>
      <point x="191.49999999999997" y="-10.0" type="curve" smooth="yes"/>
      <point x="271.0" y="-10.0"/>
      <point x="328.49999999999994" y="38.0"/>
      <point x="351.5" y="92.5" type="curve"/>
      <point x="377.0" y="92.5" type="line"/>
      <point x="369.49999999999994" y="186.5" type="line"/>
      <point x="332.5" y="154.0"/>
      <point x="297.0" y="142.0"/>
      <point x="257.0" y="142.0" type="curve" smooth="yes"/>
      <point x="225.00000000000003" y="142.0"/>
      <point x="218.0" y="149.0"/>
    </contour>
  </outline>
</glyph>
<glyph name="b" format="2">
  <advance width="600.0"/>
  <unicode hex="0062"/>
  <outline>
    <contour>
      <point x="203.00000000000003" y="0.0" type="curve" smooth="yes"/>
      <point x="224.62988509435002" y="41.79549819179999"/>
      <point x="237.5" y="98.13846153845"/>
      <point x="237.5" y="155.5" type="curve"/>
      <point x="237.5" y="281.45991091315"/>
      <point x="237.5" y="444.22048997775"/>
      <point x="237.5" y="582.5" type="curve"/>
      <point x="237.5" y="716.0"/>
      <point x="181.5" y="758.0"/>
      <point x="89.99999999999999" y="758.0" type="curve"/>
      <point x="72.50000000000003" y="758.0"/>
      <point x="47.99999999999999" y="754.5"/>
      <point x="31.499999999999993" y="750.0" type="curve"/>
      <point x="45.499999999999986" y="716.0"/>
      <point x="49.999999999999986" y="670.5"/>
      <point x="49.999999999999986" y="628.0" type="curve"/>
      <point x="49.999999999999986" y="434.99999999999994"/>
      <point x="49.999999999999986" y="275.99999999999994"/>
      <point x="49.999999999999986" y="147.5" type="curve" smooth="yes"/>
      <point x="49.999999999999986" y="46.999999999999986"/>
      <point x="92.3425925926" y="-4.500000000000001"/>
      <point x="158.0" y="-4.500000000000001" type="curve" smooth="yes"/>
      <point x="173.5" y="-4.500000000000001"/>
      <point x="189.50000000000003" y="-3.5000000000000004"/>
    </contour>
    <contour>
      <point x="208.50000000000003" y="80.50000000000001" type="line"/>
      <point x="237.0" y="80.50000000000001" type="line"/>
      <point x="260.0" y="36.00000000000001"/>
      <point x="311.86183200085003" y="-11.0"/>
      <point x="374.5" y="-11.0" type="curve" smooth="yes"/>
      <point x="475.5" y="-11.0"/>
      <point x="566.0" y="76.5"/>
      <point x="566.0" y="339.0" type="curve" smooth="yes"/>
      <point x="566.0" y="354.0" type="line" smooth="yes"/>
      <point x="566.0" y="463.5"/>
      <point x="494.5" y="557.0"/>
      <point x="412.5" y="557.0" type="curve" smooth="yes"/>
      <point x="341.5" y="557.0"/>
      <point x="278.5" y="495.5"/>
      <point x="243.5" y="415.5" type="curve"/>
      <point x="214.5" y="415.5" type="line"/>
      <point x="214.5" y="235.0" type="line"/>
      <point x="249.5" y="338.5"/>
      <point x="297.0" y="375.49999999999994"/>
      <point x="350.5" y="375.49999999999994" type="curve" smooth="yes"/>
      <point x="356.5" y="375.49999999999994"/>
      <point x="363.0" y="374.99999999999994"/>
      <point x="367.99999999999994" y="373.0" type="curve" smooth="yes"/>
      <point x="372.49999999999994" y="356.0"/>
      <point x="373.99999999999994" y="334.0"/>
      <point x="373.99999999999994" y="300.5" type="curve" smooth="yes"/>
      <point x="373.99999999999994" y="291.5" type="line" smooth="yes"/>
      <point x="373.99999999999994" y="184.5"/>
      <point x="344.5" y="148.5"/>
      <point x="295.0" y="148.5" type="curve" smooth="yes"/>
      <point x="259.5" y="148.5"/>
      <point x="227.5" y="164.0"/>
      <point x="208.5" y="181.0" type="curve"/>
    </contour>
  </outline>
</glyph>
<glyph name="c" format="2">
  <advance width="500.0"/>
  <unicode hex="0063"/>
  <outline>
    <contour>
      <point x="325.0" y="558.0" type="curve" smooth="yes"/>
      <point x="144.49999999999997" y="558.0"/>
      <point x="32.999999999999986" y="439.5"/>
      <point x="32.999999999999986" y="264.0" type="curve" smooth="yes"/>
      <point x="32.999999999999986" y="252.0" type="line" smooth="yes"/>
      <point x="32.999999999999986" y="76.83697392925001"/>
      <point x="138.49818842960002" y="-12.999999999999998"/>
      <point x="294.0" y="-13.0" type="curve" smooth="yes"/>
      <point x="369.5" y="-13.0"/>
      <point x="419.5" y="-1.5000000000000004"/>
      <point x="442.5" y="21.500000000000004" type="curve" smooth="yes"/>
      <point x="465.5" y="44.5"/>
      <point x="476.0" y="80.5"/>
      <point x="476.0" y="132.5" type="curve" smooth="yes"/>
      <point x="476.0" y="157.0"/>
      <point x="473.5" y="179.0"/>
      <point x="468.5" y="200.5" type="curve"/>
      <point x="462.5" y="200.5" type="line"/>
      <point x="409.5" y="167.0"/>
      <point x="371.5" y="156.5"/>
      <point x="309.0" y="156.5" type="curve" smooth="yes"/>
      <point x="277.5" y="156.5"/>
      <point x="249.5" y="161.0"/>
      <point x="223.5" y="172.5" type="curve" smooth="yes"/>
      <point x="217.0" y="194.5"/>
      <point x="214.0" y="219.0"/>
      <point x="214.0" y="245.0" type="curve" smooth="yes"/>
      <point x="214.0" y="254.5" type="line" smooth="yes"/>
      <point x="214.0" y="336.5"/>
      <point x="250.0" y="387.99999999999994"/>
      <point x="322.0" y="387.99999999999994" type="curve" smooth="yes"/>
      <point x="372.5" y="387.99999999999994"/>
      <point x="404.0" y="378.99999999999994"/>
      <point x="451.5" y="347.49999999999994" type="curve"/>
      <point x="457.5" y="347.49999999999994" type="line"/>
      <point x="468.5" y="374.5"/>
      <point x="473.0" y="404.0"/>
      <point x="473.0" y="435.0" type="curve" smooth="yes"/>
      <point x="473.0" y="481.0"/>
      <point x="464.0" y="507.0"/>
      <point x="445.0" y="526.0" type="curve" smooth="yes"/>
      <point x="422.5" y="548.5"/>
      <point x="385.0" y="558.0"/>
    </contour>
  </outline>
</glyph>
<glyph name="d" format="2">
  <advance width="600.0"/>
  <unicode hex="0064"/>
  <outline>
    <contour>
      <point x="223.99999999999997" y="557.0" type="curve" smooth="yes"/>
      <point x="120.49999999999996" y="557.0"/>
      <point x="31.49999999999999" y="468.5"/>
      <point x="31.49999999999999" y="207.49999999999997" type="curve" smooth="yes"/>
      <point x="31.49999999999999" y="192.5" type="line" smooth="yes"/>
      <point x="31.49999999999999" y="82.5"/>
      <point x="102.49999999999997" y="-11.0"/>
      <point x="188.99999999999997" y="-11.0" type="curve" smooth="yes"/>
      <point x="267.5" y="-11.0"/>
      <point x="335.37347583639996" y="53.2408550184"/>
      <point x="356.99999999999994" y="130.0" type="curve"/>
      <point x="374.5" y="130.0" type="line"/>
      <point x="374.5" y="302.0" type="line"/>
      <point x="343.5" y="203.0"/>
      <point x="299.5" y="170.5"/>
      <point x="247.0" y="170.5" type="curve" smooth="yes"/>
      <point x="240.5" y="170.5"/>
      <point x="234.00000000000003" y="171.0"/>
      <point x="227.5" y="173.0" type="curve" smooth="yes"/>
      <point x="224.5" y="192.0"/>
      <point x="223.5" y="213.50000000000003"/>
      <point x="223.5" y="245.5" type="curve" smooth="yes"/>
      <point x="223.5" y="254.5" type="line" smooth="yes"/>
      <point x="223.5" y="361.5"/>
      <point x="254.00000000000003" y="397.49999999999994"/>
      <point x="305.0" y="397.49999999999994" type="curve" smooth="yes"/>
      <point x="335.5" y="397.49999999999994"/>
      <point x="359.0" y="389.0"/>
      <point x="377.49999999999994" y="373.5" type="curve"/>
      <point x="377.49999999999994" y="476.5" type="line"/>
      <point x="356.99999999999994" y="476.5" type="line"/>
      <point x="331.5" y="520.5"/>
      <point x="284.0" y="557.0"/>
    </contour>
    <contour>
      <point x="410.99999999999994" y="758.0" type="curve"/>
      <point x="388.49999999999994" y="758.0"/>
      <point x="364.5" y="754.0"/>
      <point x="344.99999999999994" y="750.0" type="curve"/>
      <point x="357.99999999999994" y="720.0"/>
      <point x="362.49999999999994" y="684.0"/>
      <point x="362.49999999999994" y="648.5" type="curve"/>
      <point x="362.49999999999994" y="490.0"/>
      <point x="362.49999999999994" y="331.0"/>
      <point x="362.49999999999994" y="149.0" type="curve"/>
      <point x="362.49999999999994" y="56.99999999999999"/>
      <point x="404.49999999999994" y="-7.5"/>
      <point x="501.5" y="-7.5" type="curve" smooth="yes"/>
      <point x="523.5" y="-7.5"/>
      <point x="542.5" y="-4.000000000000001"/>
      <point x="565.0" y="0.49999999999999967" type="curve"/>
      <point x="554.0" y="39.00000000000001"/>
      <point x="550.0" y="73.49999999999999"/>
      <point x="550.0" y="112.99999999999999" type="curve" smooth="yes"/>
      <point x="550.0" y="287.0"/>
      <point x="550.0" y="458.5"/>
      <point x="550.0" y="581.5" type="curve"/>
      <point x="550.0" y="717.0"/>
      <point x="494.5" y="758.0"/>
    </contour>
  </outline>
</glyph>
<glyph name="f" format="2">
  <advance width="400.0"/>
  <unicode hex="0066"/>
  <outline>
    <contour>
      <point x="7.499999999999991" y="520.0" type="line"/>
      <point x="7.499999999999991" y="514.0"/>
      <point x="7.499999999999991" y="496.9999999999999"/>
      <point x="7.499999999999991" y="486.5" type="curve" smooth="yes"/>
      <point x="7.499999999999991" y="377.0"/>
      <point x="35.49999999999999" y="345.0"/>
      <point x="147.49999999999997" y="345.0" type="curve"/>
      <point x="371.5" y="345.0" type="line"/>
      <point x="376.0" y="363.49999999999994"/>
      <point x="378.5" y="388.0"/>
      <point x="378.5" y="413.0" type="curve" smooth="yes"/>
      <point x="378.5" y="494.5"/>
      <point x="358.0" y="520.0"/>
      <point x="290.5" y="520.0" type="curve"/>
    </contour>
    <contour>
      <point x="266.0" y="93.0" type="curve" smooth="yes"/>
      <point x="266.0" y="198.00000000000003"/>
      <point x="266.0" y="419.5"/>
      <point x="266.0" y="520.0" type="curve" smooth="yes"/>
      <point x="256.0" y="545.0"/>
      <point x="247.0" y="571.0"/>
      <point x="245.00000000000006" y="596.0" type="curve" smooth="yes"/>
      <point x="255.0" y="597.5"/>
      <point x="264.5" y="599.0"/>
      <point x="273.5" y="599.0" type="curve" smooth="yes"/>
      <point x="318.0" y="599.0"/>
      <point x="347.0" y="593.0"/>
      <point x="375.0" y="582.5" type="curve"/>
      <point x="381.0" y="582.5" type="line"/>
      <point x="386.5" y="606.5"/>
      <point x="388.0" y="626.5"/>
      <point x="388.0" y="652.0" type="curve" smooth="yes"/>
      <point x="388.0" y="697.0"/>
      <point x="379.5" y="728.0"/>
      <point x="360.5" y="747.0" type="curve" smooth="yes"/>
      <point x="346.0" y="761.5"/>
      <point x="328.5" y="770.0"/>
      <point x="288.0" y="770.0" type="curve" smooth="yes"/>
      <point x="161.5" y="770.0"/>
      <point x="81.0" y="665.0"/>
      <point x="81.0" y="548.0" type="curve" smooth="yes"/>
      <point x="81.0" y="393.5"/>
      <point x="81.0" y="268.5"/>
      <point x="81.0" y="114.00000000000001" type="curve" smooth="yes"/>
      <point x="81.0" y="69.0"/>
      <point x="74.5" y="35.00000000000001"/>
      <point x="61.49999999999999" y="0.0" type="curve"/>
      <point x="84.0" y="-6.000000000000001"/>
      <point x="109.5" y="-10.0"/>
      <point x="139.0" y="-10.0" type="curve" smooth="yes"/>
      <point x="231.0" y="-10.0"/>
      <point x="266.0" y="25.000000000000007"/>
    </contour>
  </outline>
</glyph>
<glyph name="g" format="2">
  <advance width="600.0"/>
  <unicode hex="0067"/>
  <outline>
    <contour>
      <point x="124.5" y="76.5" type="curve" smooth="yes"/>
      <point x="124.5" y="16.0"/>
      <point x="182.5" y="-29.5"/>
      <point x="269.0" y="-36.0" type="curve" smooth="yes"/>
      <point x="376.0" y="-44.0" type="line" smooth="yes"/>
      <point x="392.0" y="-45.0"/>
      <point x="401.0" y="-53.0"/>
      <point x="401.0" y="-66.5" type="curve" smooth="yes"/>
      <point x="401.0" y="-71.5" type="line" smooth="yes"/>
      <point x="401.0" y="-84.5"/>
      <point x="399.0" y="-92.5"/>
      <point x="391.5" y="-101.5" type="curve" smooth="yes"/>
      <point x="361.0" y="-107.5"/>
      <point x="324.0" y="-110.0"/>
      <point x="282.0" y="-110.0" type="curve"/>
      <point x="269.0" y="-110.0" type="line" smooth="yes"/>
      <point x="221.0" y="-110.0"/>
      <point x="201.0" y="-99.0"/>
      <point x="201.0" y="-66.5" type="curve" smooth="yes"/>
      <point x="201.0" y="-60.5" type="line" smooth="yes"/>
      <point x="201.0" y="-34.0"/>
      <point x="209.5" y="-21.5"/>
      <point x="238.0" y="-2.5" type="curve"/>
      <point x="147.5" y="29.5" type="line"/>
      <point x="147.5" y="10.5" type="line"/>
      <point x="65.0" y="5.5"/>
      <point x="20.5" y="-31.0"/>
      <point x="20.5" y="-90.0" type="curve" smooth="yes"/>
      <point x="20.5" y="-98.0" type="line" smooth="yes"/>
      <point x="20.5" y="-174.5"/>
      <point x="102.5" y="-225.0"/>
      <point x="241.0" y="-225.0" type="curve" smooth="yes"/>
      <point x="251.5" y="-225.0" type="line" smooth="yes"/>
      <point x="457.5" y="-225.0"/>
      <point x="580.5" y="-153.5"/>
      <point x="580.5" y="-35.0" type="curve" smooth="yes"/>
      <point x="580.5" y="-27.0" type="line" smooth="yes"/>
      <point x="580.5" y="50.5"/>
      <point x="525.0" y="91.0"/>
      <point x="427.5" y="97.5" type="curve" smooth="yes"/>
      <point x="318.0" y="105.0" type="line" smooth="yes"/>
      <point x="291.5" y="107.0"/>
      <point x="279.5" y="116.0"/>
      <point x="279.5" y="130.0" type="curve" smooth="yes"/>
      <point x="279.5" y="146.5"/>
      <point x="283.0" y="159.0"/>
      <point x="291.0" y="172.5" type="curve"/>
      <point x="200.0" y="182.0" type="line"/>
      <point x="200.0" y="163.5" type="line"/>
      <point x="150.5" y="151.5"/>
      <point x="124.5" y="119.0"/>
    </contour>
    <contour>
      <point x="334.0" y="428.0" type="line"/>
      <point x="356.5" y="407.5"/>
      <point x="363.0" y="383.5"/>
      <point x="363.0" y="357.0" type="curve" smooth="yes"/>
      <point x="363.0" y="348.0" type="line" smooth="yes"/>
      <point x="363.0" y="309.5"/>
      <point x="337.5" y="290.5"/>
      <point x="284.0" y="290.5" type="curve" smooth="yes"/>
      <point x="255.5" y="290.5"/>
      <point x="238.5" y="293.5"/>
      <point x="219.5" y="300.5" type="curve" smooth="yes"/>
      <point x="213.5" y="313.5"/>
      <point x="211.0" y="325.0"/>
      <point x="211.0" y="337.0" type="curve" smooth="yes"/>
      <point x="211.0" y="344.0" type="line" smooth="yes"/>
      <point x="211.0" y="393.5"/>
      <point x="241.5" y="414.0"/>
      <point x="310.5" y="414.0" type="curve" smooth="yes"/>
      <point x="432.5" y="414.0"/>
      <point x="494.0" y="397.5"/>
      <point x="531.0" y="397.5" type="curve" smooth="yes"/>
      <point x="566.0" y="397.5"/>
      <point x="581.0" y="429.5"/>
      <point x="581.0" y="485.5" type="curve" smooth="yes"/>
      <point x="581.0" y="510.0"/>
      <point x="578.5" y="530.0"/>
      <point x="574.0" y="547.0" type="curve"/>
      <point x="504.5" y="556.0"/>
      <point x="420.5" y="561.5"/>
      <point x="327.0" y="561.5" type="curve" smooth="yes"/>
      <point x="144.0" y="561.5"/>
      <point x="43.0" y="482.0"/>
      <point x="43.0" y="358.0" type="curve" smooth="yes"/>
      <point x="43.0" y="350.0" type="line" smooth="yes"/>
      <point x="43.0" y="226.0"/>
      <point x="137.0" y="159.0"/>
      <point x="297.5" y="160.0" type="curve" smooth="yes"/>
      <point x="428.5" y="160.0"/>
      <point x="515.5" y="211.0"/>
      <point x="515.5" y="301.5" type="curve" smooth="yes"/>
      <point x="515.5" y="310.0" type="line" smooth="yes"/>
      <point x="515.5" y="348.5"/>
      <point x="490.5" y="378.5"/>
      <point x="447.5" y="397.5" type="curve"/>
      <point x="447.5" y="424.0" type="line"/>
    </contour>
  </outline>
</glyph>
<glyph name="h" format="2">
  <advance width="600.0"/>
  <unicode hex="0068"/>
  <outline>
    <contour>
      <point x="171.5" y="-5.0" type="curve" smooth="yes"/>
      <point x="194.0" y="-5.0"/>
      <point x="213.0" y="-4.0"/>
      <point x="235.0" y="0.0" type="curve"/>
      <point x="235.0" y="205.5"/>
      <point x="235.0" y="404.0"/>
      <point x="235.0" y="581.5" type="curve"/>
      <point x="235.0" y="715.5"/>
      <point x="184.5" y="758.0"/>
      <point x="95.0" y="758.0" type="curve" smooth="yes"/>
      <point x="74.0" y="758.0"/>
      <point x="52.5" y="754.5"/>
      <point x="32.5" y="750.0" type="curve"/>
      <point x="45.5" y="724.0"/>
      <point x="50.0" y="675.5"/>
      <point x="50.0" y="630.5" type="curve" smooth="yes"/>
      <point x="50.0" y="435.5"/>
      <point x="50.0" y="282.0"/>
      <point x="50.0" y="95.5" type="curve" smooth="yes"/>
      <point x="50.0" y="33.0"/>
      <point x="86.0" y="-5.0"/>
    </contour>
    <contour>
      <point x="221.5" y="205.5" type="line"/>
      <point x="255.5" y="333.5"/>
      <point x="305.0" y="369.5"/>
      <point x="351.0" y="369.5" type="curve" smooth="yes"/>
      <point x="362.5" y="369.5"/>
      <point x="373.5" y="366.5"/>
      <point x="381.5" y="361.0" type="curve" smooth="yes"/>
      <point x="360.0" y="264.5"/>
      <point x="345.5" y="176.5"/>
      <point x="345.5" y="123.5" type="curve" smooth="yes"/>
      <point x="345.5" y="27.5"/>
      <point x="392.0" y="-8.0"/>
      <point x="483.5" y="-8.0" type="curve"/>
      <point x="514.5" y="-8.0"/>
      <point x="538.0" y="-5.5"/>
      <point x="566.0" y="0.0" type="curve"/>
      <point x="552.0" y="48.0"/>
      <point x="547.0" y="89.5"/>
      <point x="547.0" y="149.5" type="curve" smooth="yes"/>
      <point x="547.0" y="223.0"/>
      <point x="547.0" y="296.5"/>
      <point x="547.0" y="370.0" type="curve" smooth="yes"/>
      <point x="547.0" y="457.5"/>
      <point x="486.5" y="558.0"/>
      <point x="426.0" y="558.0" type="curve" smooth="yes"/>
      <point x="350.0" y="558.0"/>
      <point x="275.0" y="494.0"/>
      <point x="241.5" y="404.0" type="curve"/>
      <point x="215.0" y="404.0" type="line"/>
    </contour>
  </outline>
</glyph>
<glyph name="i" format="2">
  <advance width="350.0"/>
  <unicode hex="0069"/>
  <outline>
    <contour>
      <point x="103.0" y="117.0" type="curve"/>
      <point x="103.0" y="27.5"/>
      <point x="136.0" y="-8.0"/>
      <point x="227.5" y="-8.0" type="curve" smooth="yes"/>
      <point x="258.5" y="-8.0"/>
      <point x="280.0" y="-5.5"/>
      <point x="308.0" y="0.0" type="curve"/>
      <point x="292.0" y="51.5"/>
      <point x="289.5" y="96.0"/>
      <point x="289.5" y="157.0" type="curve"/>
      <point x="289.5" y="254.5"/>
      <point x="289.5" y="370.5"/>
      <point x="289.5" y="466.5" type="curve" smooth="yes"/>
      <point x="289.5" y="522.0"/>
      <point x="246.0" y="555.5"/>
      <point x="118.0" y="555.5" type="curve" smooth="yes"/>
      <point x="91.5" y="555.5"/>
      <point x="61.0" y="553.0"/>
      <point x="35.5" y="548.0" type="curve"/>
      <point x="29.0" y="525.0"/>
      <point x="25.5" y="499.5"/>
      <point x="25.5" y="464.5" type="curve" smooth="yes"/>
      <point x="25.5" y="393.0"/>
      <point x="46.5" y="350.0"/>
      <point x="73.0" y="350.0" type="curve" smooth="yes"/>
      <point x="84.5" y="350.0"/>
      <point x="91.0" y="353.5"/>
      <point x="97.0" y="360.5" type="curve"/>
      <point x="103.0" y="360.5" type="line"/>
      <point x="103.0" y="281.5"/>
      <point x="103.0" y="188.0"/>
    </contour>
    <contour>
      <point x="73.0" y="774.5" type="curve"/>
      <point x="73.0" y="703.5" type="line" smooth="yes"/>
      <point x="73.0" y="646.5"/>
      <point x="131.0" y="620.0"/>
      <point x="209.0" y="620.0" type="curve" smooth="yes"/>
      <point x="242.5" y="620.0"/>
      <point x="280.5" y="626.0"/>
      <point x="312.0" y="637.5" type="curve"/>
      <point x="312.0" y="712.5" type="line" smooth="yes"/>
      <point x="312.0" y="769.5"/>
      <point x="256.5" y="788.0"/>
      <point x="182.0" y="788.0" type="curve" smooth="yes"/>
      <point x="147.0" y="788.0"/>
      <point x="104.5" y="782.5"/>
    </contour>
  </outline>
</glyph>
<glyph name="j" format="2">
  <advance width="350.0"/>
  <unicode hex="006A"/>
  <outline>
    <contour>
      <point x="109.49999999999997" y="555.0" type="curve" smooth="yes"/>
      <point x="87.5" y="555.0"/>
      <point x="59.500000000000014" y="553.5"/>
      <point x="33.5" y="550.0" type="curve"/>
      <point x="26.999999999999996" y="529.0"/>
      <point x="24.999999999999996" y="504.0"/>
      <point x="24.999999999999996" y="477.5" type="curve" smooth="yes"/>
      <point x="24.999999999999996" y="410.99999999999994"/>
      <point x="43.49999999999999" y="360.99999999999994"/>
      <point x="67.0" y="360.99999999999994" type="curve" smooth="yes"/>
      <point x="79.5" y="360.99999999999994"/>
      <point x="89.49999999999999" y="364.49999999999994"/>
      <point x="99.0" y="371.49999999999994" type="curve"/>
      <point x="105.0" y="366.99999999999994" type="line"/>
      <point x="105.0" y="250.5"/>
      <point x="105.0" y="154.0"/>
      <point x="105.0" y="37.50000000000002" type="curve" smooth="yes"/>
      <point x="105.0" y="-3.9999999999999805"/>
      <point x="105.0" y="-36.49999999999998"/>
      <point x="100.99999999999999" y="-65.99999999999997" type="curve"/>
      <point x="95.0" y="-66.99999999999999"/>
      <point x="89.49999999999999" y="-67.49999999999999"/>
      <point x="82.0" y="-67.49999999999999" type="curve" smooth="yes"/>
      <point x="56.5" y="-67.49999999999999"/>
      <point x="36.499999999999986" y="-61.999999999999986"/>
      <point x="12.5" y="-51.999999999999986" type="curve"/>
      <point x="6.499999999999998" y="-51.999999999999986" type="line"/>
      <point x="1.4999999999999964" y="-76.0"/>
      <point x="0.49999999999999645" y="-97.49999999999999"/>
      <point x="0.49999999999999645" y="-119.99999999999997" type="curve" smooth="yes"/>
      <point x="0.49999999999999645" y="-167.0"/>
      <point x="10.999999999999995" y="-205.5"/>
      <point x="29.999999999999993" y="-224.5" type="curve" smooth="yes"/>
      <point x="48.99999999999999" y="-243.5"/>
      <point x="71.0" y="-250.0"/>
      <point x="108.5" y="-250.0" type="curve" smooth="yes"/>
      <point x="200.5" y="-250.0"/>
      <point x="290.0" y="-153.0"/>
      <point x="290.0" y="-38.99999999999999" type="curve" smooth="yes"/>
      <point x="290.0" y="180.00000000000003"/>
      <point x="290.0" y="308.5"/>
      <point x="290.0" y="487.0" type="curve" smooth="yes"/>
      <point x="290.0" y="533.0"/>
      <point x="225.99999999999997" y="555.0"/>
    </contour>
    <contour>
      <point x="72.49999999999999" y="774.5" type="curve"/>
      <point x="72.49999999999999" y="703.5" type="line" smooth="yes"/>
      <point x="72.49999999999999" y="646.5"/>
      <point x="130.5" y="620.0"/>
      <point x="208.5" y="620.0" type="curve" smooth="yes"/>
      <point x="241.99999999999997" y="620.0"/>
      <point x="280.0" y="626.0"/>
      <point x="311.5" y="637.5" type="curve"/>
      <point x="311.5" y="712.5" type="line" smooth="yes"/>
      <point x="311.5" y="769.5"/>
      <point x="256.0" y="788.0"/>
      <point x="181.49999999999997" y="788.0" type="curve" smooth="yes"/>
      <point x="146.49999999999997" y="788.0"/>
      <point x="103.99999999999997" y="782.5"/>
    </contour>
  </outline>
</glyph>
<glyph name="k" format="2">
  <advance width="600.0"/>
  <unicode hex="006B"/>
  <outline>
    <contour>
      <point x="237.5" y="0.0" type="curve"/>
      <point x="237.5" y="205.49999999999997"/>
      <point x="237.5" y="404.0"/>
      <point x="237.5" y="576.5" type="curve" smooth="yes"/>
      <point x="237.5" y="707.5"/>
      <point x="185.5" y="758.0"/>
      <point x="105.0" y="758.0" type="curve"/>
      <point x="80.50000000000001" y="758.0"/>
      <point x="54.99999999999999" y="755.0"/>
      <point x="31.999999999999986" y="750.0" type="curve"/>
      <point x="45.499999999999986" y="722.5"/>
      <point x="49.999999999999986" y="675.5"/>
      <point x="49.999999999999986" y="630.5" type="curve" smooth="yes"/>
      <point x="49.999999999999986" y="448.5"/>
      <point x="50.499999999999986" y="302.99999999999994"/>
      <point x="50.499999999999986" y="150.5" type="curve" smooth="yes"/>
      <point x="50.499999999999986" y="59.49999999999999"/>
      <point x="85.0" y="-5.000000000000002"/>
      <point x="174.0" y="-5.000000000000002" type="curve" smooth="yes"/>
      <point x="196.5" y="-5.000000000000002"/>
      <point x="215.50000000000003" y="-4.000000000000001"/>
    </contour>
    <contour>
      <point x="474.99999999999994" y="-10.0" type="curve" smooth="yes"/>
      <point x="524.0" y="-10.0"/>
      <point x="558.5" y="-1.9999999999999991"/>
      <point x="587.0" y="15.000000000000002" type="curve"/>
      <point x="506.0" y="115.00000000000001"/>
      <point x="445.00000000000006" y="217.0"/>
      <point x="394.50000000000006" y="348.0" type="curve"/>
      <point x="262.0" y="206.00000000000003" type="line"/>
      <point x="288.0" y="202.00000000000003" type="line"/>
      <point x="293.0" y="158.00000000000003"/>
      <point x="305.0" y="120.49999999999997"/>
      <point x="324.0" y="86.5" type="curve" smooth="yes"/>
      <point x="337.5" y="61.99999999999999"/>
      <point x="353.49999999999994" y="40.5"/>
      <point x="367.49999999999994" y="27.5" type="curve" smooth="yes"/>
      <point x="395.49999999999994" y="1.0"/>
      <point x="427.49999999999994" y="-10.0"/>
    </contour>
    <contour>
      <point x="200.5" y="307.0" type="line"/>
      <point x="183.5" y="177.5" type="line"/>
      <point x="319.0" y="195.5"/>
      <point x="469.5" y="288.5"/>
      <point x="543.5" y="431.5" type="curve" smooth="yes"/>
      <point x="561.0" y="465.0"/>
      <point x="564.0" y="479.0"/>
      <point x="564.0" y="495.0" type="curve" smooth="yes"/>
      <point x="564.0" y="534.5"/>
      <point x="491.0" y="558.0"/>
      <point x="402.99999999999994" y="558.0" type="curve"/>
      <point x="377.49999999999994" y="558.0" type="line"/>
      <point x="363.5" y="508.5"/>
      <point x="344.5" y="464.5"/>
      <point x="317.0" y="416.5" type="curve" smooth="yes"/>
      <point x="297.5" y="378.5"/>
      <point x="273.0" y="340.0"/>
      <point x="243.5" y="307.0" type="curve"/>
    </contour>
  </outline>
</glyph>
<glyph name="l" format="2">
  <advance width="350.0"/>
  <unicode hex="006C"/>
  <outline>
    <contour>
      <point x="54.49999999999999" y="630.5" type="curve" smooth="yes"/>
      <point x="54.49999999999999" y="476.5"/>
      <point x="54.49999999999999" y="317.5"/>
      <point x="54.49999999999999" y="155.0" type="curve" smooth="yes"/>
      <point x="54.49999999999999" y="71.99999999999999"/>
      <point x="124.5" y="-11.0"/>
      <point x="212.99999999999994" y="-11.0" type="curve" smooth="yes"/>
      <point x="259.0" y="-11.0"/>
      <point x="284.5" y="-4.499999999999999"/>
      <point x="303.0" y="14.000000000000004" type="curve" smooth="yes"/>
      <point x="324.0" y="35.00000000000001"/>
      <point x="332.5" y="74.5"/>
      <point x="332.5" y="121.0" type="curve" smooth="yes"/>
      <point x="332.5" y="152.50000000000003"/>
      <point x="331.5" y="165.0"/>
      <point x="327.0" y="186.00000000000003" type="curve"/>
      <point x="321.0" y="186.00000000000003" type="line"/>
      <point x="305.0" y="176.00000000000003"/>
      <point x="293.0" y="171.00000000000003"/>
      <point x="272.5" y="171.00000000000003" type="curve" smooth="yes"/>
      <point x="262.0" y="171.00000000000003"/>
      <point x="252.5" y="173.00000000000003"/>
      <point x="245.0" y="177.0" type="curve" smooth="yes"/>
      <point x="243.00000000000006" y="199.0"/>
      <point x="242.0" y="223.0"/>
      <point x="242.0" y="250.00000000000006" type="curve" smooth="yes"/>
      <point x="242.0" y="378.0"/>
      <point x="242.0" y="508.5"/>
      <point x="242.0" y="636.5" type="curve" smooth="yes"/>
      <point x="242.0" y="723.0"/>
      <point x="200.0" y="758.0"/>
      <point x="119.5" y="758.0" type="curve" smooth="yes"/>
      <point x="91.49999999999997" y="758.0"/>
      <point x="64.50000000000001" y="755.5"/>
      <point x="40.99999999999999" y="750.0" type="curve"/>
      <point x="49.49999999999999" y="719.0"/>
      <point x="54.49999999999999" y="675.5"/>
    </contour>
  </outline>
</glyph>
<glyph name="m" format="2">
  <advance width="850.0"/>
  <unicode hex="006D"/>
  <outline>
    <contour>
      <point x="819.0" y="0.0" type="curve"/>
      <point x="807.0" y="48.5"/>
      <point x="802.5" y="89.5"/>
      <point x="802.5" y="149.5" type="curve" smooth="yes"/>
      <point x="802.5" y="228.13568773235"/>
      <point x="802.5" y="306.5"/>
      <point x="802.5" y="375.5" type="curve" smooth="yes"/>
      <point x="802.5" y="462.0"/>
      <point x="738.0" y="556.0"/>
      <point x="669.5" y="556.0" type="curve" smooth="yes"/>
      <point x="615.0" y="556.0"/>
      <point x="556.5" y="501.5"/>
      <point x="523.0" y="404.0" type="curve"/>
      <point x="508.0" y="404.0" type="line"/>
      <point x="511.5" y="271.0" type="line"/>
      <point x="532.0802979784501" y="337.56431467979996"/>
      <point x="562.0" y="367.5"/>
      <point x="600.0" y="367.5" type="curve" smooth="yes"/>
      <point x="612.5" y="367.5"/>
      <point x="621.0" y="364.0"/>
      <point x="627.5" y="359.0" type="curve" smooth="yes"/>
      <point x="611.0" y="261.0"/>
      <point x="603.0" y="194.068627451"/>
      <point x="603.0" y="119.0" type="curve" smooth="yes"/>
      <point x="603.0" y="25.0"/>
      <point x="640.5" y="-8.0"/>
      <point x="738.0" y="-8.0" type="curve" smooth="yes"/>
      <point x="767.0" y="-8.0"/>
      <point x="793.5" y="-5.5"/>
    </contour>
    <contour>
      <point x="520.0" y="0.0" type="curve"/>
      <point x="520.4291633413" y="136.65784782815"/>
      <point x="517.69918830875" y="273.41792199844997"/>
      <point x="520.0" y="372.0" type="curve" smooth="yes"/>
      <point x="520.0" y="449.34507042255"/>
      <point x="469.9104477612" y="555.0"/>
      <point x="397.5" y="555.0" type="curve" smooth="yes"/>
      <point x="334.39737991264997" y="555.0"/>
      <point x="279.5" y="503.5"/>
      <point x="246.0" y="404.0" type="curve"/>
      <point x="222.5" y="404.0" type="line"/>
      <point x="225.5" y="257.0" type="line"/>
      <point x="253.65309416075" y="335.63808667065"/>
      <point x="288.5" y="367.5"/>
      <point x="323.0" y="367.5" type="curve" smooth="yes"/>
      <point x="332.5" y="367.5"/>
      <point x="340.5" y="365.0"/>
      <point x="348.0" y="360.0" type="curve" smooth="yes"/>
      <point x="333.0" y="253.0"/>
      <point x="323.5" y="177.57017543860002"/>
      <point x="323.5" y="112.5" type="curve" smooth="yes"/>
      <point x="323.5" y="30.2113402062"/>
      <point x="356.987012987" y="-5.0"/>
      <point x="440.0" y="-5.0" type="curve"/>
      <point x="476.5681818182" y="-5.0"/>
      <point x="503.5" y="-3.0"/>
    </contour>
    <contour>
      <point x="240.0" y="0.0" type="curve"/>
      <point x="239.5" y="136.67970660145"/>
      <point x="240.0" y="274.0"/>
      <point x="240.0" y="411.5" type="curve" smooth="yes"/>
      <point x="240.0" y="513.5"/>
      <point x="194.13513513515" y="553.0"/>
      <point x="113.5" y="553.0" type="curve" smooth="yes"/>
      <point x="83.5" y="553.0"/>
      <point x="56.5" y="550.5"/>
      <point x="36.0" y="546.0" type="curve"/>
      <point x="46.0" y="509.5"/>
      <point x="50.0" y="470.5"/>
      <point x="50.0" y="423.0" type="curve" smooth="yes"/>
      <point x="50.0" y="314.02631578945"/>
      <point x="50.0" y="204.97368421055"/>
      <point x="50.0" y="93.0" type="curve" smooth="yes"/>
      <point x="50.0" y="14.37096774195"/>
      <point x="82.40217391305" y="-6.5"/>
      <point x="158.5" y="-6.5" type="curve" smooth="yes"/>
      <point x="194.7205882353" y="-6.5"/>
      <point x="219.92097681715" y="-4.7877395154"/>
    </contour>
  </outline>
</glyph>
<glyph name="n" format="2">
  <advance width="600.0"/>
  <unicode hex="006E"/>
  <outline>
    <contour>
      <point x="566.0" y="0.0" type="curve"/>
      <point x="552.0" y="47.99999999999999"/>
      <point x="547.0" y="89.5"/>
      <point x="547.0" y="149.5" type="curve" smooth="yes"/>
      <point x="547.0" y="223.0"/>
      <point x="547.0" y="296.5"/>
      <point x="547.0" y="370.0" type="curve" smooth="yes"/>
      <point x="547.0" y="457.5"/>
      <point x="486.5" y="558.0"/>
      <point x="426.0" y="558.0" type="curve"/>
      <point x="350.0" y="558.0"/>
      <point x="275.0" y="494.0"/>
      <point x="241.5" y="404.0" type="curve"/>
      <point x="215.0" y="404.0" type="line"/>
      <point x="221.5" y="205.50000000000006" type="line"/>
      <point x="255.5" y="333.5"/>
      <point x="305.0" y="369.49999999999994"/>
      <point x="351.0" y="369.49999999999994" type="curve" smooth="yes"/>
      <point x="362.5" y="369.49999999999994"/>
      <point x="373.49999999999994" y="366.5"/>
      <point x="381.49999999999994" y="361.0" type="curve" smooth="yes"/>
      <point x="359.99999999999994" y="264.5"/>
      <point x="345.49999999999994" y="176.49999999999997"/>
      <point x="345.49999999999994" y="123.5" type="curve" smooth="yes"/>
      <point x="345.49999999999994" y="27.500000000000004"/>
      <point x="391.99999999999994" y="-8.000000000000002"/>
      <point x="483.5" y="-8.000000000000002" type="curve" smooth="yes"/>
      <point x="514.5" y="-8.000000000000002"/>
      <point x="538.0" y="-5.500000000000001"/>
    </contour>
    <contour>
      <point x="235.5" y="0.0" type="curve"/>
      <point x="235.5" y="126.00000000000003"/>
      <point x="235.5" y="268.5"/>
      <point x="235.5" y="406.50000000000006" type="curve" smooth="yes"/>
      <point x="235.5" y="513.0"/>
      <point x="188.0" y="553.0"/>
      <point x="105.5" y="553.0" type="curve"/>
      <point x="81.00000000000001" y="553.0"/>
      <point x="56.49999999999999" y="550.0"/>
      <point x="31.499999999999986" y="545.0" type="curve"/>
      <point x="44.499999999999986" y="514.0"/>
      <point x="50.499999999999986" y="470.5"/>
      <point x="50.499999999999986" y="425.5" type="curve" smooth="yes"/>
      <point x="50.499999999999986" y="314.5"/>
      <point x="50.499999999999986" y="204.49999999999997"/>
      <point x="50.499999999999986" y="90.5" type="curve" smooth="yes"/>
      <point x="50.499999999999986" y="25.499999999999993"/>
      <point x="79.0" y="-5.000000000000002"/>
      <point x="171.0" y="-5.000000000000002" type="curve" smooth="yes"/>
      <point x="193.5" y="-5.000000000000002"/>
      <point x="213.50000000000003" y="-4.000000000000001"/>
    </contour>
  </outline>
</glyph>
<glyph name="p" format="2">
  <advance width="600.0"/>
  <unicode hex="0070"/>
  <outline>
    <contour>
      <point x="31.499999999999993" y="545.0" type="curve"/>
      <point x="44.499999999999986" y="515.5"/>
      <point x="49.999999999999986" y="470.5"/>
      <point x="49.999999999999986" y="425.5" type="curve" smooth="yes"/>
      <point x="49.999999999999986" y="248.75"/>
      <point x="49.999999999999986" y="126.02822580644998"/>
      <point x="49.999999999999986" y="-36.0" type="curve" smooth="yes"/>
      <point x="49.999999999999986" y="-131.5"/>
      <point x="83.5" y="-196.5"/>
      <point x="174.5" y="-196.5" type="curve" smooth="yes"/>
      <point x="197.00000000000003" y="-196.5"/>
      <point x="215.50000000000003" y="-195.5"/>
      <point x="237.5" y="-191.5" type="curve"/>
      <point x="237.5" y="2.9413810960999993"/>
      <point x="237.5" y="189.97150259065"/>
      <point x="237.5" y="386.5" type="curve" smooth="yes"/>
      <point x="237.5" y="510.5"/>
      <point x="185.0" y="553.0"/>
      <point x="100.0" y="553.0" type="curve"/>
      <point x="76.50000000000003" y="553.0"/>
      <point x="53.49999999999999" y="550.0"/>
    </contour>
    <contour>
      <point x="412.5" y="557.0" type="curve" smooth="yes"/>
      <point x="341.50000000000006" y="557.0"/>
      <point x="279.0" y="500.0"/>
      <point x="243.5" y="415.5" type="curve"/>
      <point x="228.5" y="415.5" type="line"/>
      <point x="228.5" y="250.5" type="line"/>
      <point x="257.5" y="342.5"/>
      <point x="300.5" y="375.49999999999994"/>
      <point x="353.0" y="375.49999999999994" type="curve" smooth="yes"/>
      <point x="359.0" y="375.49999999999994"/>
      <point x="365.5" y="374.99999999999994"/>
      <point x="371.49999999999994" y="373.0" type="curve" smooth="yes"/>
      <point x="374.99999999999994" y="356.0"/>
      <point x="376.49999999999994" y="334.0"/>
      <point x="376.49999999999994" y="300.5" type="curve" smooth="yes"/>
      <point x="376.49999999999994" y="291.5" type="line" smooth="yes"/>
      <point x="376.49999999999994" y="184.5"/>
      <point x="346.0" y="148.5"/>
      <point x="295.0" y="148.5" type="curve" smooth="yes"/>
      <point x="265.5" y="148.5"/>
      <point x="242.5" y="157.0"/>
      <point x="226.0" y="171.0" type="curve"/>
      <point x="226.0" y="74.5" type="line"/>
      <point x="243.0" y="74.5" type="line"/>
      <point x="267.5" y="27.0"/>
      <point x="313.5" y="-11.0"/>
      <point x="374.5" y="-11.0" type="curve" smooth="yes"/>
      <point x="478.5" y="-11.0"/>
      <point x="568.5" y="76.0"/>
      <point x="568.5" y="339.0" type="curve" smooth="yes"/>
      <point x="568.5" y="354.0" type="line" smooth="yes"/>
      <point x="568.5" y="463.5"/>
      <point x="498.0" y="557.0"/>
    </contour>
  </outline>
</glyph>
<glyph name="q" format="2">
  <advance width="600.0"/>
  <unicode hex="0071"/>
  <outline>
    <contour>
      <point x="389.0" y="546.5" type="curve"/>
      <point x="375.0" y="511.0"/>
      <point x="362.5" y="457.0"/>
      <point x="362.5" y="413.0" type="curve" smooth="yes"/>
      <point x="362.5" y="262.0"/>
      <point x="362.5" y="111.0"/>
      <point x="362.5" y="-40.0" type="curve" smooth="yes"/>
      <point x="362.5" y="-129.5"/>
      <point x="401.5" y="-195.5"/>
      <point x="486.5" y="-195.5" type="curve" smooth="yes"/>
      <point x="509.0" y="-195.5"/>
      <point x="528.0" y="-194.5"/>
      <point x="550.0" y="-190.5" type="curve"/>
      <point x="550.0" y="-152.5"/>
      <point x="550.0" y="-115.0"/>
      <point x="550.0" y="-78.0" type="curve" smooth="yes"/>
      <point x="550.0" y="79.0"/>
      <point x="550.0" y="226.0"/>
      <point x="550.0" y="386.5" type="curve"/>
      <point x="550.0" y="514.0"/>
      <point x="516.5" y="553.0"/>
      <point x="453.0" y="553.0" type="curve" smooth="yes"/>
      <point x="428.5" y="553.0"/>
      <point x="408.5" y="550.0"/>
    </contour>
    <contour>
      <point x="384.5" y="130.0" type="line"/>
      <point x="384.5" y="326.0" type="line"/>
      <point x="353.0" y="210.00000000000003"/>
      <point x="305.33516483515" y="170.5"/>
      <point x="247.0" y="170.5" type="curve" smooth="yes"/>
      <point x="240.5" y="170.5"/>
      <point x="234.5" y="171.0"/>
      <point x="229.0" y="173.0" type="curve" smooth="yes"/>
      <point x="225.0" y="188.5"/>
      <point x="223.5" y="205.0"/>
      <point x="223.5" y="234.5" type="curve" smooth="yes"/>
      <point x="223.5" y="243.5" type="line" smooth="yes"/>
      <point x="223.5" y="350.5"/>
      <point x="247.5" y="397.5"/>
      <point x="305.0" y="397.5" type="curve" smooth="yes"/>
      <point x="338.5" y="397.5"/>
      <point x="363.5" y="388.0"/>
      <point x="384.5" y="371.0" type="curve"/>
      <point x="384.5" y="476.0" type="line"/>
      <point x="364.0" y="476.0" type="line"/>
      <point x="340.4574366265" y="520.1994859036"/>
      <point x="290.41842928209996" y="557.0"/>
      <point x="230.0" y="557.0" type="curve" smooth="yes"/>
      <point x="119.5" y="557.0"/>
      <point x="31.5" y="469.0"/>
      <point x="31.5" y="207.5" type="curve" smooth="yes"/>
      <point x="31.5" y="192.5" type="line" smooth="yes"/>
      <point x="31.5" y="82.0"/>
      <point x="103.0" y="-11.0"/>
      <point x="187.5" y="-11.0" type="curve" smooth="yes"/>
      <point x="259.65439754755" y="-11.0"/>
      <point x="327.5" y="44.0"/>
      <point x="356.5" y="130.0" type="curve"/>
    </contour>
  </outline>
</glyph>
<glyph name="r" format="2">
  <advance width="450.0"/>
  <unicode hex="0072"/>
  <outline>
    <contour>
      <point x="212.0" y="396.5" type="line"/>
      <point x="230.5" y="224.5" type="line"/>
      <point x="264.87035905935" y="310.0353149751499"/>
      <point x="302.20454545455" y="344.49999999999994"/>
      <point x="360.0" y="344.49999999999994" type="curve" smooth="yes"/>
      <point x="383.17475728155" y="344.49999999999994"/>
      <point x="395.92577117065" y="340.22324873904995"/>
      <point x="415.5" y="328.99999999999994" type="curve"/>
      <point x="421.5" y="328.99999999999994" type="line"/>
      <point x="429.89254409725004" y="355.35986906259996"/>
      <point x="433.5" y="383.31318681319993"/>
      <point x="433.5" y="421.49999999999994" type="curve" smooth="yes"/>
      <point x="433.5" y="474.76595744680003"/>
      <point x="424.46353775325" y="510.03646224675003"/>
      <point x="408.5" y="533.5" type="curve" smooth="yes"/>
      <point x="395.3578359554" y="553.1421640446"/>
      <point x="381.66883116885003" y="562.5"/>
      <point x="360.5" y="562.5" type="curve" smooth="yes"/>
      <point x="311.56382978725" y="562.5"/>
      <point x="267.3893979535" y="507.05759181405"/>
      <point x="243.0" y="396.5" type="curve"/>
    </contour>
    <contour>
      <point x="237.0" y="0.0" type="curve"/>
      <point x="237.0" y="117.50000000000001"/>
      <point x="237.0" y="224.50000000000003"/>
      <point x="237.0" y="381.5" type="curve" smooth="yes"/>
      <point x="237.0" y="497.5"/>
      <point x="201.5" y="553.0"/>
      <point x="110.0" y="553.0" type="curve"/>
      <point x="82.50000000000003" y="553.0"/>
      <point x="59.0" y="550.0"/>
      <point x="35.999999999999986" y="545.0" type="curve"/>
      <point x="46.999999999999986" y="514.0"/>
      <point x="51.999999999999986" y="470.5"/>
      <point x="51.999999999999986" y="425.5" type="curve" smooth="yes"/>
      <point x="51.999999999999986" y="314.5"/>
      <point x="51.999999999999986" y="204.49999999999997"/>
      <point x="51.999999999999986" y="82.5" type="curve" smooth="yes"/>
      <point x="51.999999999999986" y="21.499999999999993"/>
      <point x="76.99999999999999" y="-5.000000000000002"/>
      <point x="172.5" y="-5.000000000000002" type="curve" smooth="yes"/>
      <point x="195.0" y="-5.000000000000002"/>
      <point x="215.00000000000003" y="-4.000000000000001"/>
    </contour>
  </outline>
</glyph>
<glyph name="t" format="2">
  <advance width="500.0"/>
  <unicode hex="0074"/>
  <outline>
    <contour>
      <point x="22.0" y="545.0" type="line"/>
      <point x="21.0" y="538.5"/>
      <point x="20.5" y="530.5"/>
      <point x="20.5" y="522.0" type="curve" smooth="yes"/>
      <point x="20.5" y="399.89583333334997"/>
      <point x="59.0" y="365.0"/>
      <point x="196.5" y="365.0" type="curve" smooth="yes"/>
      <point x="460.0" y="365.0" type="line"/>
      <point x="464.5" y="383.5"/>
      <point x="467.0" y="413.0"/>
      <point x="467.0" y="438.0" type="curve" smooth="yes"/>
      <point x="467.0" y="519.5"/>
      <point x="450.0" y="545.0"/>
      <point x="394.0" y="545.0" type="curve" smooth="yes"/>
    </contour>
    <contour>
      <point x="459.5" y="195.5" type="curve"/>
      <point x="453.5" y="195.5" type="line"/>
      <point x="415.0" y="176.5"/>
      <point x="377.5" y="169.0"/>
      <point x="331.5" y="169.0" type="curve" smooth="yes"/>
      <point x="319.5" y="169.0"/>
      <point x="312.5" y="170.0"/>
      <point x="303.5" y="172.0" type="curve" smooth="yes"/>
      <point x="301.0" y="183.5"/>
      <point x="300.0" y="196.5"/>
      <point x="300.0" y="211.0" type="curve"/>
      <point x="300.0" y="346.5"/>
      <point x="300.0" y="481.5"/>
      <point x="300.0" y="617.0" type="curve" smooth="yes"/>
      <point x="300.0" y="685.5"/>
      <point x="271.0" y="709.5"/>
      <point x="184.5" y="709.5" type="curve"/>
      <point x="158.0" y="709.5"/>
      <point x="131.0" y="706.5"/>
      <point x="106.0" y="701.0" type="curve"/>
      <point x="111.0" y="665.5"/>
      <point x="112.5" y="630.5"/>
      <point x="112.5" y="595.0" type="curve" smooth="yes"/>
      <point x="112.5" y="459.5"/>
      <point x="112.5" y="324.0"/>
      <point x="112.5" y="189.0" type="curve"/>
      <point x="112.5" y="64.5"/>
      <point x="208.5" y="-11.0"/>
      <point x="314.0" y="-11.0" type="curve" smooth="yes"/>
      <point x="384.0" y="-11.0"/>
      <point x="416.0" y="-2.0"/>
      <point x="435.5" y="20.5" type="curve" smooth="yes"/>
      <point x="453.0" y="41.0"/>
      <point x="465.5" y="83.5"/>
      <point x="465.5" y="140.0" type="curve" smooth="yes"/>
      <point x="465.5" y="158.5"/>
      <point x="464.0" y="174.5"/>
    </contour>
  </outline>
</glyph>
<glyph name="v" format="2">
  <advance width="600.0"/>
  <unicode hex="0076"/>
  <outline>
    <contour>
      <point x="96.5" y="554.5" type="curve" smooth="yes"/>
      <point x="77.5" y="554.5"/>
      <point x="53.0" y="552.0"/>
      <point x="34.0" y="547.0" type="curve"/>
      <point x="58.0" y="297.0"/>
      <point x="106.0" y="129.0"/>
      <point x="198.0" y="37.0" type="curve"/>
      <point x="237.0" y="-2.0"/>
      <point x="267.0" y="-10.0"/>
      <point x="311.0" y="-10.0" type="curve" smooth="yes"/>
      <point x="330.5" y="-10.0"/>
      <point x="351.5" y="-7.5"/>
      <point x="371.0" y="-4.0" type="curve"/>
      <point x="472.5" y="80.0"/>
      <point x="540.0" y="258.0"/>
      <point x="558.5" y="454.5" type="curve"/>
      <point x="564.5" y="520.0"/>
      <point x="526.5" y="554.5"/>
      <point x="441.0" y="554.5" type="curve" smooth="yes"/>
      <point x="419.5" y="554.5"/>
      <point x="397.0" y="552.5"/>
      <point x="375.5" y="547.0" type="curve"/>
      <point x="370.5" y="356.5"/>
      <point x="343.5" y="230.5"/>
      <point x="298.5" y="154.0" type="curve"/>
      <point x="291.5" y="154.0" type="line"/>
      <point x="264.0" y="215.5"/>
      <point x="243.5" y="324.0"/>
      <point x="229.0" y="477.5" type="curve"/>
      <point x="225.0" y="533.0"/>
      <point x="180.5" y="554.5"/>
    </contour>
  </outline>
</glyph>
<glyph name="x" format="2">
  <advance width="600.0"/>
  <unicode hex="0078"/>
  <outline>
    <contour>
      <point x="29.5" y="546.0" type="curve"/>
      <point x="84.00000000000001" y="421.0"/>
      <point x="144.49999999999997" y="308.5"/>
      <point x="218.49999999999997" y="206.0" type="curve"/>
      <point x="265.5" y="144.5" type="line"/>
      <point x="290.07659577235" y="113.7952718338"/>
      <point x="316.38800084760004" y="84.19942760275"/>
      <point x="345.49999999999994" y="52.50000000000001" type="curve" smooth="yes"/>
      <point x="388.36190090889994" y="7.081552074050003"/>
      <point x="419.49999999999994" y="-11.0"/>
      <point x="497.5" y="-11.0" type="curve" smooth="yes"/>
      <point x="537.5" y="-11.0"/>
      <point x="570.0" y="0.5000000000000018"/>
      <point x="591.5" y="18.0" type="curve"/>
      <point x="510.0" y="96.50000000000001"/>
      <point x="441.5" y="178.0"/>
      <point x="378.5" y="270.0" type="curve"/>
      <point x="341.0" y="330.0" type="line"/>
      <point x="308.5" y="385.5"/>
      <point x="282.5" y="439.5"/>
      <point x="257.0" y="497.0" type="curve" smooth="yes"/>
      <point x="237.0" y="540.5"/>
      <point x="188.5" y="555.0"/>
      <point x="107.0" y="555.0" type="curve" smooth="yes"/>
      <point x="80.00000000000003" y="555.0"/>
      <point x="52.0" y="552.0"/>
    </contour>
    <contour>
      <point x="219.99999999999997" y="275.0" type="line"/>
      <point x="174.49999999999997" y="214.00000000000003"/>
      <point x="122.49999999999999" y="157.5"/>
      <point x="47.999999999999986" y="96.0" type="curve" smooth="yes"/>
      <point x="24.999999999999996" y="76.5"/>
      <point x="20.999999999999993" y="66.5"/>
      <point x="20.999999999999993" y="51.0" type="curve" smooth="yes"/>
      <point x="20.999999999999993" y="12.5"/>
      <point x="79.0" y="-10.0"/>
      <point x="167.5" y="-10.0" type="curve" smooth="yes"/>
      <point x="183.5" y="-10.0" type="line"/>
      <point x="222.00000000000003" y="30.99999999999999"/>
      <point x="256.0" y="72.99999999999997"/>
      <point x="287.0" y="111.5" type="curve"/>
      <point x="324.5" y="111.5" type="line"/>
    </contour>
    <contour>
      <point x="422.5" y="557.0" type="curve" smooth="yes"/>
      <point x="399.5" y="557.0" type="line"/>
      <point x="380.5104807916" y="486.54791219025003"/>
      <point x="357.90819680544996" y="421.81639361095"/>
      <point x="328.0" y="363.0" type="curve"/>
      <point x="284.99999999999994" y="363.0" type="line"/>
      <point x="395.00000000000006" y="190.5" type="line"/>
      <point x="469.50000000000006" y="290.0"/>
      <point x="523.0" y="378.5"/>
      <point x="558.5" y="466.0" type="curve" smooth="yes"/>
      <point x="563.0" y="478.0"/>
      <point x="565.5" y="488.0"/>
      <point x="565.5" y="497.0" type="curve" smooth="yes"/>
      <point x="565.5" y="539.0"/>
      <point x="512.5" y="557.0"/>
    </contour>
  </outline>
</glyph>
<glyph name="y" format="2">
  <advance width="600.0"/>
  <unicode hex="0079"/>
  <outline>
    <contour>
      <point x="442.49999999999994" y="552.0" type="curve" smooth="yes"/>
      <point x="421.0" y="552.0"/>
      <point x="404.0" y="550.0"/>
      <point x="381.49999999999994" y="545.0" type="curve"/>
      <point x="369.5" y="252.5"/>
      <point x="333.0" y="86.5"/>
      <point x="271.0" y="24.500000000000014" type="curve" smooth="yes"/>
      <point x="227.5" y="-18.999999999999982"/>
      <point x="163.49999999999997" y="-35.999999999999986"/>
      <point x="94.0" y="-35.999999999999986" type="curve"/>
      <point x="87.49999999999997" y="-35.999999999999986"/>
      <point x="81.49999999999999" y="-35.999999999999986"/>
      <point x="75.0" y="-35.999999999999986" type="curve"/>
      <point x="68.99999999999999" y="-35.999999999999986" type="line"/>
      <point x="68.99999999999999" y="-39.999999999999986" type="line" smooth="yes"/>
      <point x="68.99999999999999" y="-96.99999999999999"/>
      <point x="83.49999999999999" y="-155.5"/>
      <point x="105.49999999999997" y="-177.5" type="curve" smooth="yes"/>
      <point x="125.99999999999999" y="-197.99999999999997"/>
      <point x="144.0" y="-204.99999999999997"/>
      <point x="168.5" y="-204.99999999999997" type="curve" smooth="yes"/>
      <point x="238.50000000000003" y="-204.99999999999997"/>
      <point x="305.49999999999994" y="-171.5"/>
      <point x="366.0" y="-110.5" type="curve" smooth="yes"/>
      <point x="467.5" y="-7.500000000000007"/>
      <point x="537.5" y="188.0"/>
      <point x="560.5" y="469.0" type="curve" smooth="yes"/>
      <point x="566.0" y="530.0"/>
      <point x="524.0" y="552.0"/>
    </contour>
    <contour>
      <point x="97.99999999999999" y="552.0" type="curve" smooth="yes"/>
      <point x="73.50000000000003" y="552.0"/>
      <point x="55.99999999999999" y="549.5"/>
      <point x="33.49999999999999" y="545.0" type="curve"/>
      <point x="55.0" y="268.0"/>
      <point x="106.99999999999999" y="160.49999999999997"/>
      <point x="178.5" y="88.99999999999999" type="curve" smooth="yes"/>
      <point x="222.5" y="44.999999999999986"/>
      <point x="279.0" y="19.99999999999999"/>
      <point x="336.00000000000006" y="19.99999999999999" type="curve" smooth="yes"/>
      <point x="343.0" y="19.99999999999999" type="line"/>
      <point x="383.5" y="157.00000000000003" type="line"/>
      <point x="328.5" y="157.00000000000003" type="line"/>
      <point x="269.5" y="222.00000000000003"/>
      <point x="242.00000000000006" y="309.00000000000006"/>
      <point x="229.5" y="477.0" type="curve" smooth="yes"/>
      <point x="225.5" y="532.0"/>
      <point x="188.0" y="552.0"/>
    </contour>
  </outline>
</glyph>
<glyph name="z" format="2">
  <advance width="550.0"/>
  <unicode hex="007A"/>
  <outline>
    <contour>
      <point x="41.5" y="545.0" type="line"/>
      <point x="37.0" y="528.0"/>
      <point x="36.0" y="509.5"/>
      <point x="36.0" y="487.0" type="curve" smooth="yes"/>
      <point x="36.0" y="399.5"/>
      <point x="63.0" y="361.0"/>
      <point x="107.0" y="361.0" type="curve" smooth="yes"/>
      <point x="159.0" y="361.0" type="line" smooth="yes"/>
      <point x="205.5" y="361.0"/>
      <point x="246.0" y="363.0"/>
      <point x="302.0" y="370.0" type="curve"/>
      <point x="303.0" y="363.5" type="line"/>
      <point x="217.5" y="273.5"/>
      <point x="138.0" y="213.5"/>
      <point x="36.0" y="150.0" type="curve"/>
      <point x="36.0" y="130.5" type="line" smooth="yes"/>
      <point x="36.0" y="40.0"/>
      <point x="63.0" y="0.0"/>
      <point x="104.5" y="0.0" type="curve" smooth="yes"/>
      <point x="510.0" y="0.0" type="line"/>
      <point x="515.0" y="21.0"/>
      <point x="517.0" y="49.5"/>
      <point x="517.0" y="78.0" type="curve"/>
      <point x="517.0" y="151.5"/>
      <point x="500.0" y="184.0"/>
      <point x="442.0" y="184.0" type="curve" smooth="yes"/>
      <point x="398.5" y="184.0" type="line" smooth="yes"/>
      <point x="352.0" y="184.0"/>
      <point x="302.0" y="181.0"/>
      <point x="250.5" y="178.5" type="curve"/>
      <point x="250.0" y="185.0" type="line"/>
      <point x="389.5" y="246.0"/>
      <point x="512.5" y="364.5"/>
      <point x="512.5" y="402.0" type="curve"/>
      <point x="512.5" y="410.0" type="line" smooth="yes"/>
      <point x="512.5" y="470.5"/>
      <point x="473.5" y="545.0"/>
      <point x="419.5" y="545.0" type="curve" smooth="yes"/>
    </contour>
  </outline>
</glyph>
<glyph name="braceleft" format="2">
  <advance width="600.0"/>
  <unicode hex="007B"/>
  <outline>
    <contour>
      <point x="419.5" y="179.5" type="curve" smooth="yes"/>
      <point x="419.5" y="229.5"/>
      <point x="390.0" y="274.5"/>
      <point x="308.0" y="297.5" type="curve"/>
      <point x="308.0" y="304.0" type="line"/>
      <point x="382.5" y="327.0"/>
      <point x="419.5" y="369.0"/>
      <point x="419.5" y="420.0" type="curve" smooth="yes"/>
      <point x="419.5" y="477.0"/>
      <point x="400.0" y="523.5"/>
      <point x="383.50000000000006" y="558.5" type="curve" smooth="yes"/>
      <point x="381.00000000000006" y="563.0"/>
      <point x="379.00000000000006" y="567.0"/>
      <point x="377.50000000000006" y="570.5" type="curve"/>
      <point x="402.5" y="580.0"/>
      <point x="429.50000000000006" y="583.5"/>
      <point x="455.0" y="583.5" type="curve" smooth="yes"/>
      <point x="486.5" y="583.5"/>
      <point x="513.0" y="580.0"/>
      <point x="529.5" y="575.5" type="curve"/>
      <point x="535.5" y="575.5" type="line"/>
      <point x="540.5" y="595.0"/>
      <point x="542.5" y="615.5"/>
      <point x="542.5" y="643.5" type="curve" smooth="yes"/>
      <point x="542.5" y="714.5"/>
      <point x="505.5" y="770.0"/>
      <point x="460.0" y="770.0" type="curve"/>
      <point x="456.5" y="770.0" type="line" smooth="yes"/>
      <point x="316.0" y="770.0"/>
      <point x="218.0" y="714.0"/>
      <point x="218.0" y="640.5" type="curve" smooth="yes"/>
      <point x="218.0" y="634.5" type="line" smooth="yes"/>
      <point x="218.0" y="594.0"/>
      <point x="249.99999999999994" y="532.0"/>
      <point x="249.99999999999994" y="465.5" type="curve" smooth="yes"/>
      <point x="249.99999999999994" y="407.5"/>
      <point x="203.0" y="382.0"/>
      <point x="124.49999999999999" y="382.0" type="curve" smooth="yes"/>
      <point x="88.5" y="382.0" type="line"/>
      <point x="81.99999999999999" y="366.0"/>
      <point x="79.99999999999999" y="349.0"/>
      <point x="79.99999999999999" y="323.0" type="curve" smooth="yes"/>
      <point x="79.99999999999999" y="254.0"/>
      <point x="103.49999999999999" y="217.49999999999997"/>
      <point x="149.99999999999997" y="217.49999999999997" type="curve" smooth="yes"/>
      <point x="154.5" y="217.49999999999997" type="line" smooth="yes"/>
      <point x="218.0" y="217.49999999999997"/>
      <point x="249.99999999999994" y="189.99999999999997"/>
      <point x="249.99999999999994" y="134.0" type="curve" smooth="yes"/>
      <point x="249.99999999999994" y="67.0"/>
      <point x="218.0" y="2.5000000000000053"/>
      <point x="218.0" y="-37.99999999999999" type="curve" smooth="yes"/>
      <point x="218.0" y="-42.49999999999999" type="line" smooth="yes"/>
      <point x="218.0" y="-113.49999999999997"/>
      <point x="272.0" y="-172.0"/>
      <point x="443.5" y="-172.0" type="curve" smooth="yes"/>
      <point x="448.5" y="-172.0" type="line" smooth="yes"/>
      <point x="506.5" y="-172.0"/>
      <point x="540.5" y="-100.49999999999997"/>
      <point x="540.5" y="-6.499999999999972" type="curve" smooth="yes"/>
      <point x="540.5" y="5.500000000000021"/>
      <point x="540.0" y="19.50000000000001"/>
      <point x="538.5" y="28.500000000000018" type="curve"/>
      <point x="532.5" y="28.500000000000018" type="line"/>
      <point x="501.5" y="19.000000000000018"/>
      <point x="476.5" y="15.000000000000018"/>
      <point x="444.5" y="15.000000000000018" type="curve" smooth="yes"/>
      <point x="419.00000000000006" y="15.000000000000018"/>
      <point x="398.00000000000006" y="17.500000000000018"/>
      <point x="376.00000000000006" y="25.500000000000007" type="curve"/>
      <point x="378.00000000000006" y="30.000000000000018"/>
      <point x="380.50000000000006" y="34.500000000000014"/>
      <point x="382.50000000000006" y="39.500000000000014" type="curve" smooth="yes"/>
      <point x="400.00000000000006" y="75.00000000000003"/>
      <point x="419.5" y="122.5"/>
    </contour>
  </outline>
</glyph>
<glyph name="bar" format="2">
  <advance width="301.0"/>
  <unicode hex="007C"/>
  <outline>
    <contour>
      <point x="46.0" y="757.5" type="curve"/>
      <point x="56.0" y="721.0"/>
      <point x="61.0" y="683.5"/>
      <point x="61.0" y="642.5" type="curve" smooth="yes"/>
      <point x="61.0" y="400.5"/>
      <point x="61.0" y="157.5"/>
      <point x="61.0" y="-84.5" type="curve" smooth="yes"/>
      <point x="61.0" y="-137.5"/>
      <point x="112.5" y="-165.0"/>
      <point x="209.5" y="-165.0" type="curve" smooth="yes"/>
      <point x="231.0" y="-165.0"/>
      <point x="244.50000000000006" y="-164.0"/>
      <point x="255.0" y="-161.5" type="curve"/>
      <point x="255.0" y="111.0"/>
      <point x="255.0" y="384.5"/>
      <point x="255.0" y="657.0" type="curve" smooth="yes"/>
      <point x="255.0" y="728.5"/>
      <point x="219.0" y="765.5"/>
      <point x="128.5" y="765.5" type="curve" smooth="yes"/>
      <point x="97.5" y="765.5"/>
      <point x="74.0" y="763.5"/>
    </contour>
  </outline>
</glyph>
<glyph name="braceright" format="2">
  <advance width="600.0"/>
  <unicode hex="007D"/>
  <outline>
    <contour>
      <point x="180.49999999999997" y="418.5" type="curve" smooth="yes"/>
      <point x="180.49999999999997" y="368.5"/>
      <point x="209.99999999999997" y="323.5"/>
      <point x="292.0" y="300.5" type="curve"/>
      <point x="292.0" y="294.0" type="line"/>
      <point x="217.5" y="271.0"/>
      <point x="180.49999999999997" y="229.0"/>
      <point x="180.49999999999997" y="178.0" type="curve" smooth="yes"/>
      <point x="180.49999999999997" y="121.0"/>
      <point x="199.99999999999997" y="74.50000000000001"/>
      <point x="216.49999999999997" y="39.500000000000014" type="curve" smooth="yes"/>
      <point x="218.99999999999997" y="35.000000000000014"/>
      <point x="220.99999999999997" y="31.000000000000014"/>
      <point x="222.49999999999997" y="27.500000000000007" type="curve"/>
      <point x="197.49999999999997" y="18.000000000000014"/>
      <point x="170.50000000000003" y="14.500000000000018"/>
      <point x="145.0" y="14.500000000000018" type="curve" smooth="yes"/>
      <point x="113.49999999999999" y="14.500000000000018"/>
      <point x="87.0" y="18.000000000000018"/>
      <point x="70.49999999999999" y="22.500000000000018" type="curve"/>
      <point x="64.49999999999999" y="22.500000000000018" type="line"/>
      <point x="59.499999999999986" y="3.0000000000000178"/>
      <point x="57.499999999999986" y="-17.499999999999993"/>
      <point x="57.499999999999986" y="-45.49999999999998" type="curve" smooth="yes"/>
      <point x="57.499999999999986" y="-116.49999999999999"/>
      <point x="94.5" y="-172.0"/>
      <point x="140.0" y="-172.0" type="curve"/>
      <point x="143.5" y="-172.0" type="line" smooth="yes"/>
      <point x="284.0" y="-172.0"/>
      <point x="382.0" y="-115.99999999999999"/>
      <point x="382.0" y="-42.49999999999999" type="curve" smooth="yes"/>
      <point x="382.0" y="-36.5" type="line" smooth="yes"/>
      <point x="382.0" y="3.9999999999999907"/>
      <point x="350.0" y="66.0"/>
      <point x="350.0" y="132.5" type="curve" smooth="yes"/>
      <point x="350.0" y="190.5"/>
      <point x="397.0" y="216.0"/>
      <point x="475.5" y="216.0" type="curve" smooth="yes"/>
      <point x="511.5" y="216.0" type="line"/>
      <point x="518.0" y="232.00000000000003"/>
      <point x="520.0" y="248.99999999999997"/>
      <point x="520.0" y="274.99999999999994" type="curve" smooth="yes"/>
      <point x="520.0" y="344.0"/>
      <point x="496.5" y="380.5"/>
      <point x="450.0" y="380.5" type="curve" smooth="yes"/>
      <point x="445.5" y="380.5" type="line" smooth="yes"/>
      <point x="382.0" y="380.5"/>
      <point x="350.0" y="408.0"/>
      <point x="350.0" y="464.0" type="curve" smooth="yes"/>
      <point x="350.0" y="531.0"/>
      <point x="382.0" y="595.5"/>
      <point x="382.0" y="636.0" type="curve" smooth="yes"/>
      <point x="382.0" y="640.5" type="line" smooth="yes"/>
      <point x="382.0" y="711.5"/>
      <point x="328.0" y="770.0"/>
      <point x="156.5" y="770.0" type="curve" smooth="yes"/>
      <point x="151.5" y="770.0" type="line" smooth="yes"/>
      <point x="93.5" y="770.0"/>
      <point x="59.499999999999986" y="698.5"/>
      <point x="59.499999999999986" y="604.5" type="curve" smooth="yes"/>
      <point x="59.499999999999986" y="592.5"/>
      <point x="59.999999999999986" y="578.5"/>
      <point x="61.499999999999986" y="569.5" type="curve"/>
      <point x="67.49999999999997" y="569.5" type="line"/>
      <point x="98.49999999999999" y="579.0"/>
      <point x="123.49999999999997" y="583.0"/>
      <point x="155.49999999999997" y="583.0" type="curve" smooth="yes"/>
      <point x="181.00000000000003" y="583.0"/>
      <point x="201.99999999999997" y="580.5"/>
      <point x="223.99999999999997" y="572.5" type="curve"/>
      <point x="221.99999999999997" y="568.0"/>
      <point x="219.49999999999997" y="563.5"/>
      <point x="217.49999999999997" y="558.5" type="curve" smooth="yes"/>
      <point x="199.99999999999997" y="523.0"/>
      <point x="180.49999999999997" y="475.5"/>
    </contour>
  </outline>
</glyph>
<glyph name="asciitilde" format="2">
  <advance width="600.0"/>
  <unicode hex="007E"/>
  <outline>
    <contour>
      <point x="419.0" y="342.5" type="curve" smooth="yes"/>
      <point x="332.0" y="342.5"/>
      <point x="252.0" y="467.5"/>
      <point x="164.0" y="467.5" type="curve" smooth="yes"/>
      <point x="112.5" y="467.5"/>
      <point x="77.5" y="439.50000000000006"/>
      <point x="60.0" y="379.0" type="curve" smooth="yes"/>
      <point x="53.0" y="355.0"/>
      <point x="47.0" y="318.0"/>
      <point x="47.0" y="277.49999999999994" type="curve" smooth="yes"/>
      <point x="47.0" y="248.99999999999997"/>
      <point x="50.0" y="221.99999999999997"/>
      <point x="58.0" y="198.49999999999997" type="curve"/>
      <point x="64.0" y="198.49999999999997" type="line"/>
      <point x="102.5" y="241.49999999999997"/>
      <point x="130.0" y="257.5"/>
      <point x="181.0" y="257.5" type="curve" smooth="yes"/>
      <point x="268.0" y="257.5"/>
      <point x="348.0" y="132.5"/>
      <point x="436.0" y="132.5" type="curve" smooth="yes"/>
      <point x="487.5" y="132.5"/>
      <point x="522.5" y="160.5"/>
      <point x="540.0" y="221.0" type="curve" smooth="yes"/>
      <point x="547.0" y="245.00000000000003"/>
      <point x="553.0" y="282.0"/>
      <point x="553.0" y="322.5" type="curve" smooth="yes"/>
      <point x="553.0" y="351.00000000000006"/>
      <point x="550.0" y="378.0"/>
      <point x="542.0" y="401.5" type="curve"/>
      <point x="536.0" y="401.5" type="line"/>
      <point x="497.5" y="358.5"/>
      <point x="470.0" y="342.5"/>
    </contour>
  </outline>
</glyph>
<glyph name="exclamdown" format="2">
  <advance width="349.99999999999994"/>
  <unicode hex="00A1"/>
  <outline>
    <contour>
      <point x="105.00000000000001" y="236.49999999999997" type="line"/>
      <point x="83.0" y="172.5"/>
      <point x="65.0" y="81.00000000000001"/>
      <point x="64.99999999999999" y="-5.500000000000007" type="curve"/>
      <point x="64.99999999999999" y="-87.99999999999999" type="line" smooth="yes"/>
      <point x="64.99999999999999" y="-143.5"/>
      <point x="134.5" y="-168.0"/>
      <point x="210.49999999999997" y="-168.0" type="curve"/>
      <point x="243.00000000000003" y="-168.0"/>
      <point x="266.0" y="-166.0"/>
      <point x="294.0" y="-159.5" type="curve"/>
      <point x="284.5" y="-123.5"/>
      <point x="279.5" y="-86.0"/>
      <point x="279.5" y="-45.0" type="curve" smooth="yes"/>
      <point x="279.5" y="-13.500000000000014" type="line"/>
      <point x="279.5" y="64.49999999999997"/>
      <point x="263.5" y="174.49999999999997"/>
      <point x="236.0" y="202.0" type="curve" smooth="yes"/>
      <point x="213.0" y="224.99999999999997"/>
      <point x="180.0" y="236.49999999999997"/>
      <point x="123.5" y="236.49999999999997" type="curve"/>
    </contour>
    <contour>
      <point x="58.0" y="542.0" type="curve"/>
      <point x="58.0" y="420.99999999999994" type="line" smooth="yes"/>
      <point x="58.0" y="335.99999999999994"/>
      <point x="115.49999999999999" y="313.49999999999994"/>
      <point x="188.50000000000003" y="313.49999999999994" type="curve"/>
      <point x="231.5" y="313.49999999999994"/>
      <point x="262.0" y="319.49999999999994"/>
      <point x="292.0" y="331.49999999999994" type="curve"/>
      <point x="292.0" y="452.5" type="line" smooth="yes"/>
      <point x="292.0" y="533.0"/>
      <point x="234.50000000000003" y="553.5"/>
      <point x="157.0" y="553.5" type="curve" smooth="yes"/>
      <point x="119.49999999999999" y="553.5"/>
      <point x="88.0" y="550.0"/>
    </contour>
  </outline>
</glyph>
<glyph name="cent" format="2">
  <advance width="600.0"/>
  <unicode hex="00A2"/>
  <outline>
    <contour>
      <point x="352.5" y="618.0" type="curve" smooth="yes"/>
      <point x="164.49999999999997" y="618.0"/>
      <point x="43.99999999999999" y="494.0"/>
      <point x="43.99999999999999" y="310.0" type="curve" smooth="yes"/>
      <point x="43.99999999999999" y="300.0" type="line" smooth="yes"/>
      <point x="43.99999999999999" y="144.50000000000003"/>
      <point x="157.5" y="47.0"/>
      <point x="324.5" y="47.0" type="curve" smooth="yes"/>
      <point x="430.0" y="47.0"/>
      <point x="482.0" y="65.5"/>
      <point x="511.0" y="94.50000000000003" type="curve" smooth="yes"/>
      <point x="534.0" y="117.50000000000001"/>
      <point x="548.5" y="157.5"/>
      <point x="548.5" y="202.50000000000003" type="curve" smooth="yes"/>
      <point x="548.5" y="227.00000000000003"/>
      <point x="545.5" y="249.00000000000003"/>
      <point x="540.5" y="270.5" type="curve"/>
      <point x="534.5" y="270.5" type="line"/>
      <point x="468.0" y="231.0"/>
      <point x="421.0" y="216.5"/>
      <point x="340.5" y="216.5" type="curve" smooth="yes"/>
      <point x="295.5" y="216.5"/>
      <point x="259.5" y="227.0"/>
      <point x="239.0" y="239.5" type="curve"/>
      <point x="232.0" y="261.0"/>
      <point x="230.0" y="283.5"/>
      <point x="230.0" y="306.0" type="curve" smooth="yes"/>
      <point x="230.0" y="314.0" type="line" smooth="yes"/>
      <point x="230.0" y="395.5"/>
      <point x="277.0" y="445.49999999999994"/>
      <point x="357.0" y="445.49999999999994" type="curve" smooth="yes"/>
      <point x="422.0" y="445.49999999999994"/>
      <point x="466.0" y="432.5"/>
      <point x="523.0" y="389.49999999999994" type="curve"/>
      <point x="529.0" y="389.49999999999994" type="line"/>
      <point x="540.0" y="419.5"/>
      <point x="544.5" y="449.0"/>
      <point x="544.5" y="480.0" type="curve" smooth="yes"/>
      <point x="544.5" y="528.0"/>
      <point x="536.0" y="554.0"/>
      <point x="515.5" y="574.5" type="curve" smooth="yes"/>
      <point x="488.0" y="602.0"/>
      <point x="435.5" y="618.0"/>
    </contour>
    <contour>
      <point x="373.0" y="419.0" type="line"/>
      <point x="397.658" y="493.1225"/>
      <point x="422.0" y="572.5"/>
      <point x="446.50000000000006" y="641.5" type="curve" smooth="yes"/>
      <point x="472.00000000000006" y="713.0"/>
      <point x="431.50000000000006" y="758.0"/>
      <point x="342.5" y="758.0" type="curve" smooth="yes"/>
      <point x="325.5" y="758.0"/>
      <point x="294.5" y="753.5"/>
      <point x="274.5" y="746.0" type="curve"/>
      <point x="287.0" y="715.5"/>
      <point x="294.5" y="685.5"/>
      <point x="294.5" y="642.0" type="curve" smooth="yes"/>
      <point x="294.5" y="587.5"/>
      <point x="294.5" y="526.1295"/>
      <point x="294.5" y="468.0" type="curve" smooth="yes"/>
      <point x="294.5" y="436.5"/>
      <point x="326.5" y="419.0"/>
      <point x="368.0" y="419.0" type="curve" smooth="yes"/>
    </contour>
    <contour>
      <point x="302.0" y="232.99999999999997" type="line"/>
      <point x="277.8415" y="158.71099999999998"/>
      <point x="253.99999999999997" y="76.49999999999999"/>
      <point x="229.99999999999997" y="10.0" type="curve" smooth="yes"/>
      <point x="204.99999999999994" y="-61.50000000000002"/>
      <point x="244.99999999999997" y="-106.50000000000001"/>
      <point x="334.0" y="-106.50000000000001" type="curve" smooth="yes"/>
      <point x="351.0" y="-106.50000000000001"/>
      <point x="382.0" y="-102.00000000000001"/>
      <point x="402.0" y="-94.50000000000001" type="curve"/>
      <point x="389.5" y="-64.0"/>
      <point x="382.0" y="-34.00000000000001"/>
      <point x="382.0" y="9.499999999999998" type="curve" smooth="yes"/>
      <point x="382.5" y="64.49999999999999"/>
      <point x="382.0" y="125.70399999999997"/>
      <point x="382.0" y="183.99999999999997" type="curve" smooth="yes"/>
      <point x="382.0" y="215.49999999999997"/>
      <point x="351.5" y="233.0"/>
      <point x="307.0" y="233.0" type="curve"/>
    </contour>
  </outline>
</glyph>
